<svg version="1.1" id="Слой_1" xmlns="http://www.w3.org/2000/svg" xmlns:xlink="http://www.w3.org/1999/xlink" x="0px" y="0px"
	 width="100px" height="100px" viewBox="0 0 100 100" enable-background="new 0 0 100 100" xml:space="preserve">
<g id="Слой_x0020_1">
	<path fill="#FFFFFF" d="M100,100H0V0h100V100z M2.208,97.792h95.583V2.208H2.208V97.792z"/>
	<path fill="#FFFFFF" d="M35.52,39.173c0-1.059-0.258-1.88-0.789-2.467c-0.523-0.581-1.262-0.871-2.208-0.871
		c-0.927,0-1.646,0.284-2.151,0.846c-0.511,0.568-0.763,1.362-0.763,2.391l-0.656-2.252c0.429-0.99,1.003-1.754,1.723-2.29
		c0.731-0.53,1.558-0.801,2.51-0.801c0.972,0,1.792,0.209,2.479,0.637c0.688,0.423,1.205,1.041,1.558,1.855
		c0.36,0.813,0.536,1.791,0.536,2.939v8.089h-2.24L35.52,39.173L35.52,39.173z M19.224,33.924h2.233V47.25h-2.233V33.924z
		 M27.375,39.173c0-1.059-0.259-1.88-0.764-2.467c-0.511-0.581-1.237-0.871-2.177-0.871c-0.953,0-1.684,0.259-2.202,0.776
		c-0.517,0.517-0.775,1.249-0.775,2.202l-0.271-2.568c0.429-0.845,0.99-1.476,1.684-1.893c0.688-0.416,1.477-0.624,2.359-0.624
		c0.928,0,1.716,0.209,2.366,0.637c0.656,0.423,1.154,1.041,1.501,1.855c0.341,0.813,0.511,1.791,0.511,2.939v8.089h-2.233
		L27.375,39.173L27.375,39.173z M49.583,38.801c0-0.972-0.265-1.734-0.782-2.271c-0.523-0.537-1.261-0.808-2.221-0.808
		c-0.587,0-1.148,0.088-1.709,0.271c-0.555,0.183-1.054,0.442-1.489,0.776l-1.628-1.117c0.504-0.605,1.167-1.079,1.993-1.413
		c0.827-0.342,1.741-0.512,2.757-0.512c1.104,0,2.044,0.196,2.833,0.587c0.789,0.385,1.387,0.952,1.797,1.691
		c0.411,0.745,0.619,1.634,0.619,2.681v8.562h-2.171L49.583,38.801L49.583,38.801z M46,47.438c-1.602,0-2.82-0.347-3.652-1.047
		c-0.833-0.706-1.249-1.729-1.249-3.072c0-1.294,0.385-2.278,1.147-2.947c0.764-0.669,1.881-1.009,3.344-1.009h4.107l0.176,1.918
		h-4.271c-0.77,0-1.357,0.171-1.76,0.518c-0.404,0.347-0.6,0.852-0.6,1.521c0,0.713,0.259,1.249,0.776,1.622
		c0.517,0.372,1.268,0.561,2.265,0.561c1.079,0,1.899-0.113,2.461-0.334c0.555-0.22,0.838-0.555,0.838-0.99l0.265,1.811
		c-0.246,0.316-0.562,0.586-0.934,0.802c-0.372,0.208-0.807,0.372-1.293,0.486C47.13,47.382,46.593,47.438,46,47.438z
		 M56.959,42.442l7.205-8.518h2.631L56.688,45.299L56.959,42.442z M55.729,28.58h2.233v18.669h-2.233V28.58z M60.385,39.792
		l1.395-1.749l5.672,9.206h-2.549L60.385,39.792L60.385,39.792z M75.084,47.438c-1.229,0-2.283-0.233-3.153-0.7
		c-0.878-0.467-1.54-1.142-1.994-2.045c-0.461-0.889-0.688-1.961-0.688-3.224v-1.502c0-1.319,0.215-2.442,0.656-3.376
		s1.079-1.646,1.924-2.132c0.833-0.487,1.849-0.732,3.023-0.732c1.116,0,2.068,0.258,2.857,0.776
		c0.782,0.518,1.382,1.269,1.798,2.252c0.417,0.985,0.625,2.171,0.625,3.56v1.192h-9.307v-1.887h7.199v-0.063
		c-0.032-1.198-0.329-2.132-0.878-2.794c-0.555-0.656-1.318-0.99-2.296-0.99c-1.11,0-1.976,0.347-2.581,1.06
		c-0.611,0.707-0.921,1.704-0.921,2.997v1.69c0,1.218,0.328,2.158,0.979,2.814c0.648,0.668,1.563,0.997,2.756,0.997
		c0.574,0,1.149-0.114,1.71-0.347c0.561-0.24,1.066-0.568,1.502-0.996l0,0l1.488,1.463l0,0c-0.649,0.63-1.388,1.123-2.208,1.463
		C76.758,47.263,75.925,47.438,75.084,47.438L75.084,47.438z M31.463,63.148c0-1.061-0.258-1.882-0.788-2.461
		c-0.524-0.581-1.262-0.87-2.208-0.87c-0.928,0-1.647,0.277-2.151,0.846c-0.511,0.562-0.763,1.355-0.763,2.384l-0.656-2.245
		c0.429-0.991,1.003-1.755,1.722-2.29c0.732-0.536,1.558-0.802,2.511-0.802c0.972,0,1.791,0.208,2.479,0.631
		c0.688,0.43,1.205,1.047,1.558,1.855c0.36,0.813,0.537,1.797,0.537,2.94v8.088h-2.24V63.148z M15.167,57.898h2.234v13.325h-2.233
		L15.167,57.898L15.167,57.898z M23.319,63.148c0-1.061-0.259-1.882-0.764-2.461c-0.512-0.581-1.237-0.87-2.177-0.87
		c-0.952,0-1.684,0.259-2.202,0.776c-0.517,0.516-0.776,1.249-0.776,2.194l-0.271-2.566c0.43-0.847,0.991-1.478,1.685-1.893
		c0.688-0.418,1.483-0.619,2.36-0.619c0.928,0,1.716,0.208,2.366,0.631c0.656,0.43,1.155,1.047,1.502,1.855
		c0.341,0.813,0.512,1.797,0.512,2.94v8.088H23.32L23.319,63.148L23.319,63.148z M43.135,71.419c-1.23,0-2.284-0.233-3.154-0.699
		c-0.877-0.468-1.539-1.148-1.994-2.045c-0.46-0.896-0.688-1.968-0.688-3.224v-1.502c0-1.318,0.214-2.447,0.663-3.381
		c0.436-0.935,1.073-1.641,1.918-2.127c0.833-0.486,1.849-0.73,3.028-0.73c1.11,0,2.063,0.258,2.851,0.776
		c0.783,0.517,1.382,1.268,1.799,2.252c0.416,0.984,0.624,2.171,0.624,3.553v1.191h-9.306v-1.879h7.198v-0.069
		c-0.032-1.192-0.328-2.127-0.877-2.79c-0.555-0.661-1.319-0.995-2.29-0.995c-1.118,0-1.981,0.353-2.588,1.06
		c-0.611,0.707-0.921,1.71-0.921,2.997v1.69c0,1.225,0.329,2.158,0.978,2.819c0.65,0.67,1.564,0.997,2.757,0.997
		c0.574,0,1.148-0.113,1.709-0.353c0.562-0.233,1.066-0.562,1.501-0.991l0,0l1.489,1.458l0,0c-0.65,0.631-1.388,1.122-2.208,1.47
		C44.807,71.243,43.975,71.419,43.135,71.419L43.135,71.419z M57.748,71.419c-0.953,0-1.761-0.188-2.436-0.567
		c-0.67-0.379-1.161-0.952-1.477-1.723l0.176-2.782c0,0.573,0.12,1.097,0.36,1.564c0.24,0.474,0.58,0.846,1.041,1.117
		c0.448,0.277,0.985,0.416,1.603,0.416c0.99,0,1.755-0.303,2.296-0.895c0.543-0.601,0.808-1.434,0.808-2.513v-2.89
		c0-1.104-0.265-1.956-0.808-2.555c-0.541-0.606-1.306-0.909-2.296-0.909c-0.618,0-1.154,0.134-1.603,0.398
		c-0.461,0.271-0.801,0.63-1.041,1.091c-0.24,0.467-0.36,0.978-0.36,1.545L53.74,60.15c0.437-0.827,1.011-1.433,1.718-1.836
		c0.699-0.404,1.508-0.604,2.416-0.604c0.94,0,1.747,0.206,2.423,0.63c0.669,0.43,1.18,1.048,1.532,1.855
		c0.354,0.813,0.523,1.798,0.523,2.939v2.902c0,1.129-0.177,2.102-0.536,2.902s-0.883,1.42-1.583,1.842
		C59.54,71.204,58.713,71.419,57.748,71.419z M51.779,52.562h2.232v18.662h-2.232V52.562z M71.533,71.419
		c-1.23,0-2.284-0.233-3.154-0.699c-0.877-0.468-1.541-1.148-2.001-2.045c-0.453-0.896-0.688-1.968-0.688-3.224v-1.502
		c0-1.318,0.222-2.447,0.662-3.381c0.442-0.935,1.079-1.641,1.919-2.127c0.839-0.486,1.849-0.73,3.027-0.73
		c1.117,0,2.063,0.258,2.852,0.776c0.788,0.517,1.389,1.268,1.806,2.252c0.416,0.984,0.618,2.171,0.618,3.553v1.191h-9.307v-1.879
		h7.205v-0.069c-0.031-1.192-0.328-2.127-0.877-2.79c-0.556-0.661-1.318-0.995-2.297-0.995c-1.11,0-1.975,0.353-2.58,1.06
		c-0.619,0.707-0.921,1.71-0.921,2.997v1.69c0,1.225,0.329,2.158,0.979,2.819c0.643,0.67,1.564,0.997,2.757,0.997
		c0.574,0,1.142-0.113,1.71-0.353c0.562-0.233,1.066-0.562,1.502-0.991l0,0l1.488,1.458l0,0c-0.649,0.631-1.388,1.122-2.208,1.47
		C73.205,71.243,72.372,71.419,71.533,71.419L71.533,71.419z M82.41,67.748c0,0.447,0.101,0.788,0.309,1.034
		c0.208,0.24,0.506,0.359,0.884,0.359h1.229v2.106h-1.539c-0.997,0-1.76-0.303-2.303-0.92c-0.543-0.618-0.813-1.49-0.813-2.605
		V52.562h2.232L82.41,67.748L82.41,67.748z"/>
</g>
</svg>
