<svg xmlns="http://www.w3.org/2000/svg" xmlns:xlink="http://www.w3.org/1999/xlink">
  <symbol id="logo-header-mobile" viewBox="0 0 100 100">
<g id="Слой_x0020_1">
  <path fill="#FFFFFF" d="M100,100H0V0h100V100z M2.208,97.792h95.583V2.208H2.208V97.792z"/>
  <path fill="#FFFFFF" d="M35.52,39.173c0-1.059-0.258-1.88-0.789-2.467c-0.523-0.581-1.262-0.871-2.208-0.871
    c-0.927,0-1.646,0.284-2.151,0.846c-0.511,0.568-0.763,1.362-0.763,2.391l-0.656-2.252c0.429-0.99,1.003-1.754,1.723-2.29
    c0.731-0.53,1.558-0.801,2.51-0.801c0.972,0,1.792,0.209,2.479,0.637c0.688,0.423,1.205,1.041,1.558,1.855
    c0.36,0.813,0.536,1.791,0.536,2.939v8.089h-2.24L35.52,39.173L35.52,39.173z M19.224,33.924h2.233V47.25h-2.233V33.924z
     M27.375,39.173c0-1.059-0.259-1.88-0.764-2.467c-0.511-0.581-1.237-0.871-2.177-0.871c-0.953,0-1.684,0.259-2.202,0.776
    c-0.517,0.517-0.775,1.249-0.775,2.202l-0.271-2.568c0.429-0.845,0.99-1.476,1.684-1.893c0.688-0.416,1.477-0.624,2.359-0.624
    c0.928,0,1.716,0.209,2.366,0.637c0.656,0.423,1.154,1.041,1.501,1.855c0.341,0.813,0.511,1.791,0.511,2.939v8.089h-2.233
    L27.375,39.173L27.375,39.173z M49.583,38.801c0-0.972-0.265-1.734-0.782-2.271c-0.523-0.537-1.261-0.808-2.221-0.808
    c-0.587,0-1.148,0.088-1.709,0.271c-0.555,0.183-1.054,0.442-1.489,0.776l-1.628-1.117c0.504-0.605,1.167-1.079,1.993-1.413
    c0.827-0.342,1.741-0.512,2.757-0.512c1.104,0,2.044,0.196,2.833,0.587c0.789,0.385,1.387,0.952,1.797,1.691
    c0.411,0.745,0.619,1.634,0.619,2.681v8.562h-2.171L49.583,38.801L49.583,38.801z M46,47.438c-1.602,0-2.82-0.347-3.652-1.047
    c-0.833-0.706-1.249-1.729-1.249-3.072c0-1.294,0.385-2.278,1.147-2.947c0.764-0.669,1.881-1.009,3.344-1.009h4.107l0.176,1.918
    h-4.271c-0.77,0-1.357,0.171-1.76,0.518c-0.404,0.347-0.6,0.852-0.6,1.521c0,0.713,0.259,1.249,0.776,1.622
    c0.517,0.372,1.268,0.561,2.265,0.561c1.079,0,1.899-0.113,2.461-0.334c0.555-0.22,0.838-0.555,0.838-0.99l0.265,1.811
    c-0.246,0.316-0.562,0.586-0.934,0.802c-0.372,0.208-0.807,0.372-1.293,0.486C47.13,47.382,46.593,47.438,46,47.438z
     M56.959,42.442l7.205-8.518h2.631L56.688,45.299L56.959,42.442z M55.729,28.58h2.233v18.669h-2.233V28.58z M60.385,39.792
    l1.395-1.749l5.672,9.206h-2.549L60.385,39.792L60.385,39.792z M75.084,47.438c-1.229,0-2.283-0.233-3.153-0.7
    c-0.878-0.467-1.54-1.142-1.994-2.045c-0.461-0.889-0.688-1.961-0.688-3.224v-1.502c0-1.319,0.215-2.442,0.656-3.376
    s1.079-1.646,1.924-2.132c0.833-0.487,1.849-0.732,3.023-0.732c1.116,0,2.068,0.258,2.857,0.776
    c0.782,0.518,1.382,1.269,1.798,2.252c0.417,0.985,0.625,2.171,0.625,3.56v1.192h-9.307v-1.887h7.199v-0.063
    c-0.032-1.198-0.329-2.132-0.878-2.794c-0.555-0.656-1.318-0.99-2.296-0.99c-1.11,0-1.976,0.347-2.581,1.06
    c-0.611,0.707-0.921,1.704-0.921,2.997v1.69c0,1.218,0.328,2.158,0.979,2.814c0.648,0.668,1.563,0.997,2.756,0.997
    c0.574,0,1.149-0.114,1.71-0.347c0.561-0.24,1.066-0.568,1.502-0.996l0,0l1.488,1.463l0,0c-0.649,0.63-1.388,1.123-2.208,1.463
    C76.758,47.263,75.925,47.438,75.084,47.438L75.084,47.438z M31.463,63.148c0-1.061-0.258-1.882-0.788-2.461
    c-0.524-0.581-1.262-0.87-2.208-0.87c-0.928,0-1.647,0.277-2.151,0.846c-0.511,0.562-0.763,1.355-0.763,2.384l-0.656-2.245
    c0.429-0.991,1.003-1.755,1.722-2.29c0.732-0.536,1.558-0.802,2.511-0.802c0.972,0,1.791,0.208,2.479,0.631
    c0.688,0.43,1.205,1.047,1.558,1.855c0.36,0.813,0.537,1.797,0.537,2.94v8.088h-2.24V63.148z M15.167,57.898h2.234v13.325h-2.233
    L15.167,57.898L15.167,57.898z M23.319,63.148c0-1.061-0.259-1.882-0.764-2.461c-0.512-0.581-1.237-0.87-2.177-0.87
    c-0.952,0-1.684,0.259-2.202,0.776c-0.517,0.516-0.776,1.249-0.776,2.194l-0.271-2.566c0.43-0.847,0.991-1.478,1.685-1.893
    c0.688-0.418,1.483-0.619,2.36-0.619c0.928,0,1.716,0.208,2.366,0.631c0.656,0.43,1.155,1.047,1.502,1.855
    c0.341,0.813,0.512,1.797,0.512,2.94v8.088H23.32L23.319,63.148L23.319,63.148z M43.135,71.419c-1.23,0-2.284-0.233-3.154-0.699
    c-0.877-0.468-1.539-1.148-1.994-2.045c-0.46-0.896-0.688-1.968-0.688-3.224v-1.502c0-1.318,0.214-2.447,0.663-3.381
    c0.436-0.935,1.073-1.641,1.918-2.127c0.833-0.486,1.849-0.73,3.028-0.73c1.11,0,2.063,0.258,2.851,0.776
    c0.783,0.517,1.382,1.268,1.799,2.252c0.416,0.984,0.624,2.171,0.624,3.553v1.191h-9.306v-1.879h7.198v-0.069
    c-0.032-1.192-0.328-2.127-0.877-2.79c-0.555-0.661-1.319-0.995-2.29-0.995c-1.118,0-1.981,0.353-2.588,1.06
    c-0.611,0.707-0.921,1.71-0.921,2.997v1.69c0,1.225,0.329,2.158,0.978,2.819c0.65,0.67,1.564,0.997,2.757,0.997
    c0.574,0,1.148-0.113,1.709-0.353c0.562-0.233,1.066-0.562,1.501-0.991l0,0l1.489,1.458l0,0c-0.65,0.631-1.388,1.122-2.208,1.47
    C44.807,71.243,43.975,71.419,43.135,71.419L43.135,71.419z M57.748,71.419c-0.953,0-1.761-0.188-2.436-0.567
    c-0.67-0.379-1.161-0.952-1.477-1.723l0.176-2.782c0,0.573,0.12,1.097,0.36,1.564c0.24,0.474,0.58,0.846,1.041,1.117
    c0.448,0.277,0.985,0.416,1.603,0.416c0.99,0,1.755-0.303,2.296-0.895c0.543-0.601,0.808-1.434,0.808-2.513v-2.89
    c0-1.104-0.265-1.956-0.808-2.555c-0.541-0.606-1.306-0.909-2.296-0.909c-0.618,0-1.154,0.134-1.603,0.398
    c-0.461,0.271-0.801,0.63-1.041,1.091c-0.24,0.467-0.36,0.978-0.36,1.545L53.74,60.15c0.437-0.827,1.011-1.433,1.718-1.836
    c0.699-0.404,1.508-0.604,2.416-0.604c0.94,0,1.747,0.206,2.423,0.63c0.669,0.43,1.18,1.048,1.532,1.855
    c0.354,0.813,0.523,1.798,0.523,2.939v2.902c0,1.129-0.177,2.102-0.536,2.902s-0.883,1.42-1.583,1.842
    C59.54,71.204,58.713,71.419,57.748,71.419z M51.779,52.562h2.232v18.662h-2.232V52.562z M71.533,71.419
    c-1.23,0-2.284-0.233-3.154-0.699c-0.877-0.468-1.541-1.148-2.001-2.045c-0.453-0.896-0.688-1.968-0.688-3.224v-1.502
    c0-1.318,0.222-2.447,0.662-3.381c0.442-0.935,1.079-1.641,1.919-2.127c0.839-0.486,1.849-0.73,3.027-0.73
    c1.117,0,2.063,0.258,2.852,0.776c0.788,0.517,1.389,1.268,1.806,2.252c0.416,0.984,0.618,2.171,0.618,3.553v1.191h-9.307v-1.879
    h7.205v-0.069c-0.031-1.192-0.328-2.127-0.877-2.79c-0.556-0.661-1.318-0.995-2.297-0.995c-1.11,0-1.975,0.353-2.58,1.06
    c-0.619,0.707-0.921,1.71-0.921,2.997v1.69c0,1.225,0.329,2.158,0.979,2.819c0.643,0.67,1.564,0.997,2.757,0.997
    c0.574,0,1.142-0.113,1.71-0.353c0.562-0.233,1.066-0.562,1.502-0.991l0,0l1.488,1.458l0,0c-0.649,0.631-1.388,1.122-2.208,1.47
    C73.205,71.243,72.372,71.419,71.533,71.419L71.533,71.419z M82.41,67.748c0,0.447,0.101,0.788,0.309,1.034
    c0.208,0.24,0.506,0.359,0.884,0.359h1.229v2.106h-1.539c-0.997,0-1.76-0.303-2.303-0.92c-0.543-0.618-0.813-1.49-0.813-2.605
    V52.562h2.232L82.41,67.748L82.41,67.748z"/>
</g>
</symbol>
<symbol id="logo-header-desktop" viewBox="0 0 77 77">
<g id="Слой_x0020_1">
  <g id="_2653717897472">
    <path fill="#FFFFFF" d="M27.689,30.42c0-0.79-0.19-1.41-0.59-1.84c-0.39-0.44-0.94-0.65-1.649-0.65c-0.69,0-1.22,0.21-1.601,0.63
      c-0.38,0.42-0.57,1.01-0.57,1.78l-0.49-1.68c0.32-0.74,0.75-1.31,1.291-1.71c0.54-0.4,1.16-0.6,1.87-0.6
      c0.72,0,1.34,0.16,1.85,0.48c0.51,0.32,0.9,0.78,1.17,1.38c0.26,0.61,0.39,1.34,0.39,2.2v6.03h-1.669v-6.02H27.689L27.689,30.42
      L27.689,30.42z M15.528,26.5h1.66v9.94h-1.66V26.5z M21.609,30.42c0-0.79-0.19-1.41-0.57-1.84c-0.38-0.44-0.92-0.65-1.63-0.65
      s-1.25,0.19-1.64,0.58c-0.38,0.38-0.58,0.93-0.58,1.64l-0.2-1.92c0.319-0.63,0.74-1.1,1.26-1.41c0.51-0.31,1.101-0.47,1.76-0.47
      c0.69,0,1.28,0.16,1.77,0.48c0.49,0.32,0.86,0.78,1.11,1.38c0.259,0.61,0.39,1.34,0.39,2.2v6.03h-1.67V30.42L21.609,30.42
      L21.609,30.42L21.609,30.42z M38.188,30.14c0-0.73-0.199-1.29-0.589-1.7c-0.391-0.4-0.94-0.6-1.65-0.6
      c-0.44,0-0.86,0.07-1.28,0.21c-0.41,0.13-0.79,0.33-1.11,0.57l-1.221-0.83c0.381-0.45,0.881-0.8,1.49-1.06
      c0.621-0.25,1.3-0.38,2.061-0.38c0.82,0,1.529,0.15,2.12,0.44c0.579,0.29,1.03,0.71,1.339,1.27c0.301,0.55,0.461,1.22,0.461,1.99
      v6.39h-1.621V30.14L38.188,30.14L38.188,30.14z M35.509,36.59c-1.19,0-2.1-0.26-2.721-0.79c-0.629-0.52-0.94-1.29-0.94-2.29
      c0-0.96,0.29-1.7,0.86-2.2s1.411-0.75,2.5-0.75h3.06l0.14,1.43h-3.189c-0.58,0-1.011,0.13-1.32,0.39
      c-0.3,0.25-0.44,0.63-0.44,1.13c0,0.53,0.19,0.94,0.581,1.21c0.38,0.28,0.94,0.42,1.69,0.42c0.799,0,1.41-0.08,1.83-0.25
      c0.42-0.16,0.629-0.41,0.629-0.73l0.2,1.35c-0.18,0.23-0.42,0.43-0.7,0.59c-0.28,0.16-0.6,0.28-0.97,0.36
      C36.359,36.55,35.959,36.59,35.509,36.59L35.509,36.59L35.509,36.59z M43.699,32.86l5.369-6.36h1.971l-7.551,8.49L43.699,32.86
      L43.699,32.86L43.699,32.86z M42.777,22.51h1.672v13.93h-1.672V22.51z M46.248,30.88l1.041-1.31l4.238,6.87h-1.898L46.248,30.88z
       M57.229,36.59c-0.92,0-1.709-0.18-2.356-0.52c-0.649-0.35-1.149-0.86-1.49-1.53c-0.34-0.67-0.511-1.47-0.511-2.41v-1.12
      c0-0.98,0.156-1.82,0.488-2.52c0.33-0.7,0.812-1.23,1.433-1.59c0.628-0.36,1.378-0.55,2.259-0.55c0.831,0,1.539,0.2,2.131,0.58
      c0.59,0.39,1.041,0.95,1.35,1.68c0.311,0.74,0.461,1.63,0.461,2.66v0.89h-6.939v-1.41h5.37V30.7
      c-0.021-0.89-0.241-1.58-0.659-2.08c-0.41-0.49-0.979-0.74-1.711-0.74c-0.828,0-1.471,0.26-1.93,0.79
      c-0.451,0.53-0.682,1.27-0.682,2.24v1.26c0,0.91,0.24,1.61,0.729,2.1c0.479,0.5,1.169,0.75,2.062,0.75
      c0.43,0,0.851-0.09,1.271-0.27c0.42-0.17,0.8-0.42,1.12-0.74l0,0l1.109,1.09l0,0c-0.479,0.48-1.028,0.84-1.649,1.1
      C58.471,36.46,57.85,36.59,57.229,36.59L57.229,36.59L57.229,36.59z M24.659,48.32c0-0.791-0.189-1.41-0.58-1.84
      c-0.4-0.44-0.95-0.65-1.661-0.65c-0.69,0-1.22,0.21-1.6,0.63s-0.57,1.011-0.57,1.78l-0.49-1.68c0.319-0.74,0.75-1.313,1.289-1.711
      c0.54-0.399,1.161-0.602,1.87-0.602c0.721,0,1.34,0.16,1.851,0.479c0.51,0.319,0.9,0.779,1.169,1.379
      c0.261,0.611,0.39,1.343,0.39,2.201v6.029h-1.67V48.32H24.659L24.659,48.32z M12.499,44.4h1.67v9.938h-1.67V44.4z M18.578,48.32
      c0-0.791-0.189-1.41-0.569-1.84c-0.38-0.44-0.921-0.65-1.62-0.65c-0.71,0-1.26,0.189-1.65,0.58c-0.38,0.38-0.57,0.93-0.57,1.64
      l-0.21-1.92c0.32-0.63,0.74-1.101,1.26-1.409c0.52-0.311,1.1-0.471,1.76-0.471c0.69,0,1.28,0.16,1.77,0.48
      c0.491,0.317,0.86,0.777,1.12,1.379c0.25,0.611,0.38,1.341,0.38,2.201v6.027h-1.671V48.32L18.578,48.32L18.578,48.32z
       M33.378,54.49c-0.919,0-1.71-0.18-2.36-0.52c-0.65-0.353-1.15-0.861-1.49-1.531c-0.339-0.67-0.51-1.469-0.51-2.41V48.91
      c0-0.98,0.16-1.82,0.49-2.52c0.33-0.701,0.81-1.23,1.43-1.593c0.63-0.358,1.38-0.55,2.261-0.55c0.84,0,1.54,0.2,2.129,0.58
      c0.59,0.393,1.04,0.947,1.35,1.68c0.31,0.74,0.46,1.633,0.46,2.66v0.893h-6.94v-1.41h5.37V48.6c-0.02-0.89-0.24-1.58-0.649-2.08
      c-0.42-0.49-0.99-0.74-1.72-0.74c-0.83,0-1.471,0.263-1.921,0.791c-0.46,0.529-0.69,1.271-0.69,2.24v1.26
      c0,0.91,0.24,1.609,0.73,2.102c0.48,0.5,1.17,0.75,2.06,0.75c0.431,0,0.851-0.09,1.27-0.271c0.42-0.17,0.801-0.42,1.121-0.738l0,0
      l1.11,1.09l0,0c-0.48,0.473-1.03,0.84-1.64,1.102C34.619,54.359,33.999,54.49,33.378,54.49L33.378,54.49L33.378,54.49z
       M44.277,54.49c-0.709,0-1.31-0.141-1.811-0.42c-0.5-0.28-0.869-0.711-1.109-1.291l0.141-2.079c0,0.43,0.08,0.819,0.26,1.17
      c0.18,0.36,0.441,0.63,0.781,0.84c0.34,0.2,0.738,0.3,1.199,0.3c0.74,0,1.311-0.22,1.711-0.66c0.408-0.449,0.6-1.07,0.6-1.879
      v-2.15c0-0.828-0.191-1.471-0.6-1.908c-0.4-0.46-0.971-0.682-1.711-0.682c-0.461,0-0.859,0.102-1.199,0.299
      c-0.34,0.201-0.602,0.473-0.781,0.813c-0.18,0.352-0.26,0.729-0.26,1.15l-0.209-1.91c0.331-0.62,0.76-1.07,1.279-1.37
      c0.529-0.3,1.131-0.46,1.811-0.46c0.699,0,1.299,0.16,1.809,0.479c0.5,0.319,0.881,0.779,1.143,1.379
      c0.26,0.611,0.393,1.343,0.393,2.201v2.16c0,0.85-0.133,1.569-0.4,2.17c-0.271,0.602-0.66,1.062-1.18,1.369
      C45.619,54.33,45.008,54.49,44.277,54.49L44.277,54.49L44.277,54.49z M39.829,40.41h1.669v13.93h-1.669V40.41z M54.579,54.49
      c-0.92,0-1.71-0.18-2.358-0.52c-0.65-0.353-1.152-0.861-1.492-1.531s-0.51-1.469-0.51-2.41V48.91c0-0.98,0.16-1.82,0.49-2.52
      c0.33-0.701,0.799-1.23,1.432-1.593c0.629-0.358,1.379-0.55,2.26-0.55c0.83,0,1.539,0.2,2.129,0.58
      c0.593,0.393,1.031,0.947,1.353,1.68c0.31,0.74,0.459,1.633,0.459,2.66v0.893h-6.948v-1.41h5.379V48.6
      c-0.028-0.89-0.25-1.58-0.66-2.08c-0.408-0.49-0.979-0.74-1.709-0.74c-0.83,0-1.471,0.263-1.93,0.791
      c-0.461,0.529-0.681,1.271-0.681,2.24v1.26c0,0.91,0.237,1.609,0.729,2.102c0.479,0.5,1.17,0.75,2.062,0.75
      c0.42,0,0.849-0.09,1.269-0.271c0.422-0.17,0.803-0.42,1.123-0.738l0,0L58.079,53l0,0c-0.479,0.471-1.03,0.84-1.649,1.1
      C55.818,54.359,55.2,54.49,54.579,54.49L54.579,54.49L54.579,54.49z M62.688,51.75c0,0.33,0.08,0.59,0.24,0.77
      c0.149,0.183,0.371,0.271,0.65,0.271h0.92v1.568h-1.15c-0.74,0-1.31-0.219-1.719-0.688c-0.4-0.46-0.602-1.101-0.602-1.938V40.41
      h1.66V51.75L62.688,51.75L62.688,51.75z"/>
    <rect x="0.499" y="0.5" fill="#FFFFFF" width="76" height="3"/>
    <rect x="0.499" y="73.5" fill="#FFFFFF" width="76" height="3"/>
    <rect x="0.472" y="0.996" fill="#FFFFFF" width="2.999" height="75.004"/>
    <rect x="73.527" y="0.996" fill="#FFFFFF" width="2.998" height="75.004"/>
  </g>
</g>
  </symbol>
</svg>
