<?xml version="1.0" encoding="UTF-8"?>
<!DOCTYPE svg PUBLIC "-//W3C//DTD SVG 1.1//EN" "http://www.w3.org/Graphics/SVG/1.1/DTD/svg11.dtd">
<!-- Creator: CorelDRAW 2020 (64-Bit) -->
<svg xmlns="http://www.w3.org/2000/svg" xml:space="preserve" width="24px" height="24px" version="1.1" style="shape-rendering:geometricPrecision; text-rendering:geometricPrecision; image-rendering:optimizeQuality; fill-rule:evenodd; clip-rule:evenodd"
viewBox="0 0 24 24"
 xmlns:xlink="http://www.w3.org/1999/xlink"
 xmlns:xodm="http://www.corel.com/coreldraw/odm/2003">
 <defs>
  <style type="text/css">
   <![CDATA[
    .fil0 {fill:none}
    .fil1 {fill:white;fill-rule:nonzero}
   ]]>
  </style>
 </defs>
 <g id="Слой_x0020_1">
  <metadata id="CorelCorpID_0Corel-Layer"/>
  <g id="_1783456962560">
   <rect class="fil0" width="24" height="24"/>
   <path class="fil1" d="M18 6l-2 0c0,-2.21 -1.79,-4 -4,-4 -2.21,0 -4,1.79 -4,4l-2 0c-1.1,0 -2,0.9 -2,2l0 12c0,1.1 0.9,2 2,2l12 0c1.1,0 2,-0.9 2,-2l0 -12c0,-1.1 -0.9,-2 -2,-2zm-6 -2c1.1,0 2,0.9 2,2l-4 0c0,-1.1 0.9,-2 2,-2zm6 16l-12 0 0 -12 2 0 0 2c0,0.55 0.45,1 1,1 0.55,0 1,-0.45 1,-1l0 -2 4 0 0 2c0,0.55 0.45,1 1,1 0.55,0 1,-0.45 1,-1l0 -2 2 0 0 12z"/>
  </g>
 </g>
</svg>
