<?xml version="1.0" encoding="utf-8"?>
<!-- Generator: Adobe Illustrator 15.1.0, SVG Export Plug-In . SVG Version: 6.00 Build 0)  -->
<!DOCTYPE svg PUBLIC "-//W3C//DTD SVG 1.1//EN" "http://www.w3.org/Graphics/SVG/1.1/DTD/svg11.dtd">
<svg version="1.1" id="Слой_1" xmlns:xodm="http://www.corel.com/coreldraw/odm/2003"
	 xmlns="http://www.w3.org/2000/svg" xmlns:xlink="http://www.w3.org/1999/xlink" x="0px" y="0px" width="118px" height="99px"
	 viewBox="0 0 118 99" enable-background="new 0 0 118 99" xml:space="preserve">
<g id="Слой_x0020_1_1_">
	<g id="_2726424288320_1_">
		<ellipse fill="#F06524" cx="69.221" cy="67.62" rx="48.779" ry="31.12"/>
		<path fill="#F06524" d="M18.37,25.79c-3.841-2.33-3.49-4.271-7.58-6.72c0.13,3.75,1.71,6.1,2.54,10.1L0,32.63l11.51,3.101
			l-2.689,8c3.89-2.28,6.199-5.03,9.55-6.881L24.77,47.65c1.32-2.58-0.369-8.26-0.379-12.41l9.31-2.01l-9.229-4.58
			c-0.041-3.971,1.469-8,0.409-10.621C21.62,21.15,22.221,23.439,18.37,25.79L18.37,25.79z"/>
		<path fill="#F06524" d="M56.23,12.08l-4.721,0.1C51.27,8.27,54.02,4.58,55,0.26c-2.27,1.2-4.721,5.45-7.33,8.28L40.48,0.86
			L42.5,12.8l-10.91,1.45c3.189,1.891,7.66,1.96,11.551,2.73L40.84,25.05l6.54-6.989c4.47,2.34,4.431,5.129,8.271,8.219
			c-0.59-3.719-3.26-6.829-2.961-10.52l10.261-1.34L56.23,12.08L56.23,12.08z"/>
	</g>
</g>
<text transform="matrix(0.8619 0 0 1 54.8843 63.2012)" fill="#FFFFFF" font-family="'Bahnschrift'" font-size="20.3201">хит</text>
<text transform="matrix(0.8619 0 0 1 37.8022 79.4189)" fill="#FFFFFF" font-family="'Bahnschrift'" font-size="20.3201">продаж</text>
</svg>
