<?xml version="1.0" encoding="UTF-8"?>
<!DOCTYPE svg PUBLIC "-//W3C//DTD SVG 1.1//EN" "http://www.w3.org/Graphics/SVG/1.1/DTD/svg11.dtd">
<!-- Creator: CorelDRAW 2020 (64-Bit) -->
<svg xmlns="http://www.w3.org/2000/svg" xml:space="preserve" width="118px" height="99px" version="1.1" style="shape-rendering:geometricPrecision; text-rendering:geometricPrecision; image-rendering:optimizeQuality; fill-rule:evenodd; clip-rule:evenodd"
viewBox="0 0 118 99"
 xmlns:xlink="http://www.w3.org/1999/xlink"
 xmlns:xodm="http://www.corel.com/coreldraw/odm/2003">
 <defs>
  <style type="text/css">
   <![CDATA[
    .fil0 {fill:#F06524}
   ]]>
  </style>
 </defs>
 <g id="Слой_x0020_1">
  <metadata id="CorelCorpID_0Corel-Layer"/>
  <g id="_2726424288320">
   <ellipse class="fil0" cx="69.22" cy="68.12" rx="48.78" ry="31.12"/>
   <path class="fil0" d="M18.37 26.29c-3.84,-2.33 -3.49,-4.27 -7.58,-6.72 0.13,3.75 1.71,6.1 2.54,10.1l-13.33 3.46 11.51 3.1 -2.69 8c3.89,-2.28 6.2,-5.03 9.55,-6.88l6.4 10.8c1.32,-2.58 -0.37,-8.26 -0.38,-12.41l9.31 -2.01 -9.23 -4.58c-0.04,-3.97 1.47,-8 0.41,-10.62 -3.26,3.12 -2.66,5.41 -6.51,7.76z"/>
   <path class="fil0" d="M56.23 12.58l-4.72 0.1c-0.24,-3.91 2.51,-7.6 3.49,-11.92 -2.27,1.2 -4.72,5.45 -7.33,8.28l-7.19 -7.68 2.02 11.94 -10.91 1.45c3.19,1.89 7.66,1.96 11.55,2.73l-2.3 8.07 6.54 -6.99c4.47,2.34 4.43,5.13 8.27,8.22 -0.59,-3.72 -3.26,-6.83 -2.96,-10.52l10.26 -1.34 -6.72 -2.34z"/>
  </g>
 </g>
</svg>
