<?xml version="1.0" encoding="utf-8"?>
<!-- Generator: Adobe Illustrator 15.1.0, SVG Export Plug-In . SVG Version: 6.00 Build 0)  -->
<!DOCTYPE svg PUBLIC "-//W3C//DTD SVG 1.1//EN" "http://www.w3.org/Graphics/SVG/1.1/DTD/svg11.dtd">
<svg version="1.1" id="Слой_1" xmlns="http://www.w3.org/2000/svg" xmlns:xlink="http://www.w3.org/1999/xlink" x="0px" y="0px"
	 width="110px" height="110px" viewBox="0 0 110 110" enable-background="new 0 0 110 110" xml:space="preserve">
<g id="Слой_x0020_1">
	<rect fill="#010101" width="110" height="110"/>
	
		<rect x="15.895" y="15.895" fill="none" stroke="#FFFFFF" stroke-width="3.5" stroke-miterlimit="22.9256" width="78.211" height="78.211"/>
	<path fill="#FFFFFF" d="M43.42,46.341c0-0.847-0.207-1.504-0.631-1.973c-0.419-0.463-1.009-0.696-1.766-0.696
		c-0.742,0-1.317,0.228-1.72,0.676c-0.409,0.455-0.611,1.091-0.611,1.913l-0.524-1.802c0.343-0.792,0.802-1.402,1.377-1.831
		c0.585-0.424,1.247-0.641,2.008-0.641c0.777,0,1.433,0.167,1.983,0.509c0.55,0.338,0.963,0.833,1.246,1.484
		c0.288,0.651,0.43,1.433,0.43,2.352V52.8H43.42V46.341z M30.386,42.143h1.786V52.8h-1.786V42.143z M36.905,46.341
		c0-0.847-0.206-1.504-0.61-1.973c-0.409-0.463-0.989-0.696-1.74-0.696c-0.762,0-1.348,0.207-1.761,0.621
		c-0.414,0.414-0.621,0.999-0.621,1.761L31.956,44c0.343-0.677,0.792-1.181,1.347-1.515c0.55-0.332,1.181-0.499,1.887-0.499
		c0.742,0,1.373,0.167,1.893,0.509c0.524,0.338,0.923,0.833,1.201,1.484c0.272,0.651,0.408,1.433,0.408,2.352V52.8h-1.786V46.341z
		 M54.667,46.044c0-0.777-0.212-1.389-0.626-1.816c-0.418-0.429-1.009-0.646-1.775-0.646c-0.47,0-0.919,0.071-1.368,0.217
		c-0.444,0.146-0.842,0.353-1.19,0.621l-1.301-0.894c0.403-0.484,0.932-0.862,1.594-1.13c0.661-0.271,1.392-0.408,2.204-0.408
		c0.884,0,1.636,0.156,2.266,0.47c0.631,0.307,1.11,0.762,1.438,1.352c0.328,0.595,0.494,1.307,0.494,2.145V52.8h-1.735V46.044z
		 M51.801,52.951c-1.281,0-2.255-0.277-2.921-0.837c-0.666-0.566-1-1.382-1-2.458c0-1.034,0.308-1.821,0.918-2.356
		c0.611-0.535,1.504-0.807,2.675-0.807h3.285l0.141,1.533h-3.417c-0.614,0-1.085,0.136-1.407,0.414
		c-0.323,0.278-0.479,0.681-0.479,1.216c0,0.571,0.207,0.999,0.621,1.297c0.413,0.297,1.014,0.45,1.811,0.45
		c0.863,0,1.519-0.091,1.968-0.269c0.443-0.175,0.671-0.443,0.671-0.792l0.211,1.449c-0.196,0.252-0.448,0.469-0.747,0.64
		c-0.298,0.167-0.646,0.297-1.034,0.388C52.704,52.906,52.274,52.951,51.801,52.951z M60.565,48.954l5.763-6.811h2.104l-8.084,9.098
		L60.565,48.954z M59.582,37.87h1.786V52.8h-1.786V37.87z M63.305,46.836l1.116-1.397l4.535,7.361h-2.038L63.305,46.836z
		 M75.063,52.951c-0.983,0-1.826-0.187-2.523-0.56c-0.702-0.374-1.23-0.914-1.595-1.635c-0.367-0.712-0.55-1.57-0.55-2.578v-1.202
		c0-1.054,0.172-1.951,0.525-2.698c0.353-0.747,0.862-1.317,1.538-1.706c0.667-0.388,1.479-0.585,2.418-0.585
		c0.894,0,1.655,0.207,2.286,0.62c0.626,0.415,1.104,1.016,1.438,1.802c0.333,0.787,0.5,1.736,0.5,2.846v0.954h-7.443v-1.509h5.758
		v-0.05c-0.025-0.959-0.263-1.706-0.702-2.235c-0.443-0.524-1.054-0.792-1.836-0.792c-0.889,0-1.58,0.277-2.064,0.847
		c-0.488,0.565-0.736,1.362-0.736,2.397v1.353c0,0.974,0.263,1.726,0.782,2.25c0.52,0.536,1.251,0.797,2.205,0.797
		c0.459,0,0.918-0.091,1.368-0.278c0.448-0.191,0.852-0.454,1.2-0.797l0,0l1.191,1.17l0,0c-0.521,0.504-1.111,0.898-1.768,1.17
		C76.4,52.81,75.733,52.951,75.063,52.951L75.063,52.951z M40.175,65.516c0-0.848-0.207-1.504-0.631-1.968
		c-0.418-0.465-1.009-0.696-1.766-0.696c-0.742,0-1.317,0.222-1.721,0.677c-0.408,0.448-0.61,1.084-0.61,1.907l-0.525-1.797
		c0.344-0.792,0.803-1.403,1.377-1.832c0.586-0.428,1.248-0.641,2.009-0.641c0.777,0,1.433,0.166,1.982,0.505
		c0.55,0.343,0.964,0.837,1.247,1.483c0.289,0.651,0.429,1.438,0.429,2.352v6.469h-1.792V65.516z M27.142,61.317h1.786v10.657
		h-1.786V61.317z M33.661,65.516c0-0.848-0.207-1.504-0.611-1.968c-0.409-0.465-0.989-0.696-1.741-0.696
		c-0.762,0-1.348,0.206-1.761,0.62c-0.414,0.414-0.621,0.999-0.621,1.756l-0.216-2.054c0.343-0.675,0.792-1.181,1.347-1.513
		c0.549-0.334,1.185-0.495,1.887-0.495c0.741,0,1.372,0.166,1.892,0.505c0.524,0.343,0.923,0.837,1.2,1.483
		c0.273,0.651,0.409,1.438,0.409,2.352v6.469h-1.786V65.516z M49.51,72.131c-0.984,0-1.827-0.187-2.523-0.561
		c-0.701-0.373-1.23-0.919-1.594-1.635c-0.368-0.717-0.55-1.573-0.55-2.578v-1.202c0-1.054,0.171-1.956,0.53-2.704
		c0.348-0.746,0.857-1.311,1.534-1.699c0.665-0.39,1.478-0.586,2.421-0.586c0.888,0,1.649,0.207,2.28,0.621
		c0.625,0.413,1.106,1.014,1.438,1.8c0.333,0.788,0.5,1.737,0.5,2.843v0.953h-7.442v-1.504h5.756v-0.056
		c-0.025-0.953-0.262-1.7-0.701-2.23c-0.444-0.528-1.055-0.797-1.832-0.797c-0.893,0-1.584,0.282-2.068,0.848
		c-0.49,0.565-0.737,1.367-0.737,2.396v1.353c0,0.979,0.263,1.726,0.781,2.255c0.521,0.536,1.252,0.797,2.205,0.797
		c0.459,0,0.918-0.09,1.367-0.282c0.449-0.187,0.853-0.448,1.201-0.792l0,0l1.191,1.166l0,0c-0.52,0.504-1.11,0.898-1.766,1.176
		C50.847,71.99,50.181,72.131,49.51,72.131L49.51,72.131z M61.196,72.131c-0.762,0-1.407-0.151-1.947-0.454
		c-0.535-0.303-0.929-0.762-1.181-1.377l0.141-2.227c0,0.46,0.097,0.879,0.288,1.252c0.191,0.38,0.464,0.677,0.833,0.894
		c0.357,0.222,0.787,0.333,1.281,0.333c0.791,0,1.402-0.243,1.837-0.718c0.434-0.479,0.646-1.145,0.646-2.008v-2.311
		c0-0.884-0.213-1.564-0.646-2.044c-0.435-0.484-1.046-0.728-1.837-0.728c-0.494,0-0.924,0.107-1.281,0.32
		c-0.369,0.216-0.642,0.503-0.833,0.871c-0.191,0.374-0.288,0.783-0.288,1.236l-0.217-2.053c0.349-0.661,0.807-1.146,1.373-1.469
		c0.559-0.323,1.205-0.484,1.932-0.484c0.753,0,1.397,0.166,1.938,0.505c0.534,0.343,0.942,0.837,1.226,1.483
		c0.282,0.651,0.419,1.438,0.419,2.352v2.32c0,0.903-0.142,1.682-0.428,2.321c-0.289,0.641-0.707,1.136-1.268,1.474
		C62.63,71.959,61.969,72.131,61.196,72.131z M56.423,57.049h1.786v14.926h-1.786V57.049z M72.222,72.131
		c-0.984,0-1.827-0.187-2.523-0.561c-0.7-0.373-1.231-0.919-1.599-1.635c-0.363-0.717-0.55-1.573-0.55-2.578v-1.202
		c0-1.054,0.177-1.956,0.528-2.704c0.354-0.746,0.864-1.311,1.535-1.699c0.671-0.39,1.479-0.586,2.421-0.586
		c0.894,0,1.65,0.207,2.281,0.621c0.631,0.413,1.11,1.014,1.443,1.8c0.333,0.788,0.495,1.737,0.495,2.843v0.953h-7.443v-1.504h5.762
		v-0.056c-0.024-0.953-0.262-1.7-0.701-2.23c-0.444-0.528-1.055-0.797-1.837-0.797c-0.887,0-1.579,0.282-2.063,0.848
		c-0.494,0.565-0.736,1.367-0.736,2.396v1.353c0,0.979,0.262,1.726,0.781,2.255c0.515,0.536,1.252,0.797,2.206,0.797
		c0.459,0,0.913-0.09,1.367-0.282c0.449-0.187,0.854-0.448,1.202-0.792l0,0l1.189,1.166l0,0c-0.52,0.504-1.11,0.898-1.766,1.176
		C73.558,71.99,72.893,72.131,72.222,72.131L72.222,72.131z M80.921,69.194c0,0.357,0.081,0.631,0.247,0.827
		c0.167,0.191,0.403,0.287,0.706,0.287h0.985v1.686h-1.233c-0.797,0-1.407-0.242-1.841-0.736s-0.65-1.191-0.65-2.084V57.049h1.786
		V69.194z"/>
</g>
</svg>
