<svg version="1.1" id="Слой_1" xmlns="http://www.w3.org/2000/svg" xmlns:xlink="http://www.w3.org/1999/xlink" x="0px" y="0px"
	 width="158px" height="158px" viewBox="0 0 158 158" enable-background="new 0 0 158 158" xml:space="preserve">
<g id="Слой_x0020_1">
	<path fill="#FFFFFF" d="M158,158H0.25V0.25H158V158z M3.733,154.517h150.783V3.733H3.733V154.517z"/>
	<path fill="#FFFFFF" d="M56.283,62.046c0-1.671-0.408-2.966-1.244-3.891c-0.826-0.916-1.991-1.374-3.484-1.374
		c-1.462,0-2.597,0.448-3.394,1.334c-0.806,0.896-1.204,2.149-1.204,3.772l-1.035-3.554c0.677-1.562,1.583-2.767,2.717-3.612
		c1.154-0.836,2.458-1.264,3.961-1.264c1.533,0,2.827,0.329,3.911,1.005c1.085,0.667,1.901,1.642,2.458,2.926
		c0.567,1.284,0.846,2.826,0.846,4.637v12.76h-3.534V62.046z M30.576,53.766h3.523v21.02h-3.523V53.766z M43.435,62.046
		c0-1.671-0.409-2.966-1.205-3.891c-0.806-0.916-1.951-1.374-3.434-1.374c-1.503,0-2.657,0.408-3.474,1.224
		c-0.816,0.816-1.224,1.97-1.224,3.474l-0.428-4.051c0.677-1.334,1.562-2.329,2.657-2.986c1.084-0.657,2.329-0.985,3.722-0.985
		c1.463,0,2.707,0.329,3.732,1.005c1.035,0.667,1.821,1.642,2.369,2.926c0.538,1.284,0.806,2.826,0.806,4.637v12.76h-3.523V62.046z
		 M78.468,61.459c0-1.533-0.418-2.737-1.234-3.583c-0.826-0.846-1.99-1.274-3.503-1.274c-0.926,0-1.812,0.139-2.697,0.428
		c-0.876,0.289-1.662,0.697-2.349,1.224l-2.568-1.762c0.796-0.955,1.841-1.702,3.145-2.229c1.304-0.538,2.747-0.806,4.35-0.806
		c1.742,0,3.225,0.309,4.469,0.926c1.244,0.607,2.189,1.502,2.836,2.667c0.647,1.175,0.976,2.578,0.976,4.23v13.506h-3.424V61.459z
		 M72.815,75.084c-2.528,0-4.449-0.547-5.762-1.652c-1.314-1.114-1.971-2.727-1.971-4.846c0-2.041,0.607-3.593,1.811-4.648
		c1.204-1.055,2.966-1.593,5.275-1.593h6.479l0.278,3.026h-6.738c-1.214,0-2.14,0.269-2.777,0.816s-0.945,1.344-0.945,2.399
		c0,1.125,0.408,1.97,1.224,2.558c0.816,0.587,2,0.886,3.573,0.886c1.702,0,2.996-0.179,3.882-0.528
		c0.876-0.348,1.323-0.875,1.323-1.563l0.418,2.857c-0.388,0.498-0.886,0.925-1.473,1.264c-0.587,0.329-1.274,0.587-2.04,0.767
		C74.597,74.995,73.75,75.084,72.815,75.084z M90.103,67.202l11.366-13.436h4.15L89.675,71.71L90.103,67.202z M88.162,45.335h3.523
		v29.45h-3.523V45.335z M95.507,63.021l2.2-2.757l8.947,14.521h-4.021L95.507,63.021L95.507,63.021z M118.696,75.084
		c-1.939,0-3.602-0.368-4.976-1.104c-1.384-0.737-2.429-1.801-3.146-3.225c-0.727-1.403-1.085-3.095-1.085-5.086V63.3
		c0-2.081,0.339-3.852,1.035-5.325c0.697-1.473,1.702-2.598,3.035-3.364c1.314-0.767,2.916-1.155,4.769-1.155
		c1.762,0,3.264,0.408,4.508,1.224c1.234,0.816,2.18,2.001,2.836,3.553c0.657,1.553,0.986,3.424,0.986,5.614v1.881h-14.681v-2.976
		h11.356v-0.099c-0.05-1.891-0.518-3.364-1.384-4.409c-0.875-1.035-2.08-1.562-3.622-1.562c-1.752,0-3.116,0.547-4.071,1.671
		c-0.965,1.115-1.453,2.688-1.453,4.728v2.667c0,1.921,0.518,3.404,1.544,4.439c1.024,1.055,2.468,1.573,4.348,1.573
		c0.906,0,1.813-0.18,2.698-0.548c0.885-0.378,1.682-0.896,2.368-1.572l0,0l2.349,2.309l0,0c-1.025,0.995-2.189,1.771-3.483,2.309
		C121.335,74.806,120.021,75.084,118.696,75.084L118.696,75.084z M49.884,99.866c0-1.672-0.408-2.967-1.244-3.882
		c-0.826-0.916-1.991-1.372-3.483-1.372c-1.463,0-2.598,0.437-3.394,1.333c-0.806,0.886-1.204,2.14-1.204,3.762l-1.035-3.543
		c0.677-1.563,1.582-2.767,2.717-3.612c1.155-0.846,2.458-1.264,3.961-1.264c1.533,0,2.826,0.327,3.911,0.995
		c1.085,0.677,1.901,1.651,2.458,2.926c0.567,1.283,0.846,2.836,0.846,4.638v12.76h-3.533V99.866z M24.176,91.585H27.7v21.021
		h-3.523V91.585z M37.035,99.866c0-1.672-0.408-2.967-1.204-3.882c-0.807-0.916-1.951-1.372-3.434-1.372
		c-1.502,0-2.657,0.408-3.473,1.224c-0.816,0.815-1.224,1.97-1.224,3.463l-0.428-4.05c0.677-1.335,1.563-2.33,2.657-2.986
		c1.085-0.657,2.339-0.975,3.723-0.975c1.463,0,2.707,0.327,3.732,0.995c1.035,0.677,1.822,1.651,2.369,2.926
		c0.538,1.283,0.807,2.836,0.807,4.638v12.76h-3.523V99.866z M68.296,112.914c-1.941,0-3.603-0.368-4.976-1.104
		c-1.384-0.737-2.428-1.812-3.145-3.225c-0.727-1.414-1.085-3.104-1.085-5.086v-2.369c0-2.08,0.338-3.86,1.045-5.334
		c0.687-1.474,1.692-2.588,3.025-3.354c1.314-0.767,2.917-1.153,4.778-1.153c1.751,0,3.254,0.407,4.498,1.224
		c1.234,0.815,2.18,2,2.837,3.553s0.985,3.424,0.985,5.604v1.881h-14.68v-2.965h11.355v-0.11c-0.049-1.881-0.517-3.354-1.383-4.4
		c-0.876-1.043-2.081-1.571-3.613-1.571c-1.762,0-3.125,0.557-4.081,1.672c-0.966,1.115-1.453,2.697-1.453,4.728v2.668
		c0,1.931,0.518,3.403,1.542,4.447c1.025,1.056,2.468,1.573,4.349,1.573c0.906,0,1.812-0.179,2.697-0.558
		c0.886-0.368,1.682-0.885,2.369-1.562l0,0l2.349,2.299l0,0c-1.025,0.995-2.189,1.771-3.483,2.319
		C70.934,112.636,69.621,112.914,68.296,112.914L68.296,112.914z M91.347,112.914c-1.503,0-2.776-0.298-3.842-0.896
		c-1.056-0.597-1.831-1.503-2.328-2.717l0.277-4.39c0,0.906,0.189,1.732,0.567,2.469c0.38,0.747,0.916,1.334,1.643,1.762
		c0.707,0.438,1.554,0.657,2.528,0.657c1.563,0,2.768-0.479,3.622-1.413c0.856-0.946,1.274-2.26,1.274-3.962v-4.559
		c0-1.741-0.418-3.085-1.274-4.03c-0.854-0.956-2.06-1.434-3.622-1.434c-0.975,0-1.821,0.21-2.528,0.628
		c-0.727,0.427-1.263,0.995-1.643,1.721c-0.378,0.737-0.567,1.543-0.567,2.438l-0.428-4.051c0.688-1.304,1.593-2.259,2.708-2.896
		c1.104-0.637,2.379-0.954,3.813-0.954c1.482,0,2.756,0.327,3.821,0.995c1.055,0.677,1.86,1.651,2.418,2.926
		c0.558,1.283,0.826,2.836,0.826,4.638v4.578c0,1.781-0.279,3.314-0.846,4.578c-0.567,1.264-1.394,2.239-2.498,2.905
		C94.174,112.575,92.87,112.914,91.347,112.914z M81.932,83.166h3.522v29.44h-3.522V83.166z M113.094,112.914
		c-1.941,0-3.604-0.368-4.977-1.104c-1.383-0.737-2.429-1.812-3.155-3.225c-0.716-1.414-1.085-3.104-1.085-5.086v-2.369
		c0-2.08,0.35-3.86,1.045-5.334c0.697-1.474,1.702-2.588,3.026-3.354c1.323-0.767,2.916-1.153,4.776-1.153
		c1.762,0,3.255,0.407,4.499,1.224c1.243,0.815,2.19,2,2.848,3.553c0.655,1.553,0.975,3.424,0.975,5.604v1.881h-14.681v-2.965
		h11.366v-0.11c-0.05-1.881-0.518-3.354-1.383-4.4c-0.877-1.043-2.08-1.571-3.624-1.571c-1.751,0-3.114,0.557-4.07,1.672
		c-0.976,1.115-1.453,2.697-1.453,4.728v2.668c0,1.931,0.519,3.403,1.543,4.447c1.015,1.056,2.469,1.573,4.35,1.573
		c0.905,0,1.801-0.179,2.697-0.558c0.886-0.368,1.681-0.885,2.369-1.562l0,0l2.349,2.299l0,0c-1.025,0.995-2.19,1.771-3.484,2.319
		C115.73,112.636,114.417,112.914,113.094,112.914L113.094,112.914z M130.252,107.122c0,0.706,0.158,1.244,0.487,1.632
		c0.328,0.379,0.797,0.567,1.394,0.567h1.94v3.324h-2.429c-1.572,0-2.775-0.478-3.632-1.452c-0.856-0.976-1.284-2.351-1.284-4.111
		V83.166h3.523V107.122z"/>
</g>
</svg>
