<?xml version="1.0" encoding="UTF-8"?>
<!DOCTYPE svg PUBLIC "-//W3C//DTD SVG 1.1//EN" "http://www.w3.org/Graphics/SVG/1.1/DTD/svg11.dtd">
<!-- Creator: CorelDRAW 2020 (64-Bit) -->
<svg xmlns="http://www.w3.org/2000/svg" xml:space="preserve" width="106px" height="106px" version="1.1" style="shape-rendering:geometricPrecision; text-rendering:geometricPrecision; image-rendering:optimizeQuality; fill-rule:evenodd; clip-rule:evenodd"
viewBox="0 0 106 106"
 xmlns:xlink="http://www.w3.org/1999/xlink"
 xmlns:xodm="http://www.corel.com/coreldraw/odm/2003">
 <defs>
  <style type="text/css">
   <![CDATA[
    .fil5 {fill:#3C180C}
    .fil7 {fill:#3D1904}
    .fil8 {fill:#431501}
    .fil11 {fill:#441902}
    .fil10 {fill:#451706}
    .fil12 {fill:#4C1B00}
    .fil9 {fill:#4C1C06}
    .fil14 {fill:#582604}
    .fil13 {fill:#622C08}
    .fil4 {fill:#A2662D}
    .fil3 {fill:#BD7A39}
    .fil2 {fill:#C2BFAE}
    .fil0 {fill:#E2E2E0}
    .fil6 {fill:#E2E3DE}
    .fil1 {fill:#FBF7EB}
   ]]>
  </style>
 </defs>
 <g id="Слой_x0020_1">
  <metadata id="CorelCorpID_0Corel-Layer"/>
  <g id="_2726225171232">
   <path class="fil0" d="M59.17 106c-3.07,-1.86 -6.09,1.31 -9.7,-1.93 -1.81,-1.63 -3.95,-4 -5.75,-5.8 -2.57,-2.57 -10.31,-9.19 -11.05,-12.02 -1.4,-2.53 -0.18,-0.21 -2.93,-2.03 -3.23,-2.14 -4.97,-4.29 -7.46,-7.15 -9.96,-11.44 -10.89,-31.38 -1.68,-45.54 5.32,-8.17 14.14,-14.21 23.84,-16.52 13.24,-3.15 20.72,0.58 31.83,6.28l9.62 -9.35c-3.33,-4.97 -15.89,-9.66 -21.71,-10.83 -26.7,-5.4 -52.34,9.3 -61.4,35.1 -9.04,25.74 4.94,55.26 28.08,65.22 11.74,5.05 16.07,4.23 28.31,4.57z"/>
   <path class="fil1" d="M73.53 29.66c10.68,7.5 16.22,30.16 1.82,44.95 -14.83,15.23 -38.22,10.07 -45.41,-1.54 -4.46,-0.84 -7.97,-16.22 -7.76,-21.3 0.31,-7.62 3.8,-15.49 9.02,-20.68 12.15,-12.05 28.85,-11.43 42.33,-1.43zm-40.86 56.59c22.35,14.46 56.31,1.2 59.28,-29.63 1.51,-15.68 -5.51,-22.13 -7.19,-26.24l9.14 -9.45 0.31 -0.76c1.3,-6.82 -1.97,-8.96 -8.32,-8.23l-9.62 9.35c-11.11,-5.7 -18.59,-9.43 -31.83,-6.28 -9.7,2.31 -18.52,8.35 -23.84,16.52 -9.21,14.16 -8.28,34.1 1.68,45.54 2.49,2.86 4.23,5.01 7.46,7.15 2.75,1.82 1.53,-0.5 2.93,2.03z"/>
   <path class="fil2" d="M32.67 86.25c0.74,2.83 8.48,9.45 11.05,12.02 1.8,1.8 3.94,4.17 5.75,5.8 3.61,3.24 6.63,0.07 9.7,1.93 24.91,-2.32 44.66,-22.33 46.83,-47.3 -1.51,-2.94 1.17,-5.65 -1.77,-9.35 -2.88,-3.63 -14.68,-13.3 -17.08,-17.67 2.88,-3.27 7.79,-5.81 6.75,-10.75l-9.14 9.45c1.68,4.11 8.7,10.56 7.19,26.24 -2.97,30.83 -36.93,44.09 -59.28,29.63z"/>
   <path class="fil3" d="M47.68 74.84c1.89,-0.42 2.61,-0.39 1.88,2.05l-1.93 -0.28 0.05 -1.77zm8.49 0.06c0.33,-1.26 0.76,-1.27 1.85,-1.73 3.43,1.76 0.06,5.58 -1.85,1.73zm-14.97 -1.56c2.54,0.09 3.23,2.29 -0.38,2.05l0.38 -2.05zm24.04 -2.81c3.34,-2.35 5.25,2.53 2.7,4.03 -2.51,1.47 -5.52,-2.04 -2.7,-4.03zm-23.67 -3.25c0.71,1.11 1.84,-0.03 0,2.01 -1.88,-1.97 -0.44,-1.28 0,-2.01zm21.08 0.91c0.65,-0.6 -0.37,-2.4 1.74,-0.32 -1.37,1.92 -0.64,0.79 -1.74,0.32zm-27.1 -3.06c3.23,-2.1 4.9,2.58 2.62,3.98 -2.65,1.63 -5.81,-1.9 -2.62,-3.98zm35.58 -0.76c1.85,-0.74 0.82,-0.79 2.91,-0.03 1.05,2.9 0.14,4.11 -2.99,2.96 -0.71,-2.09 -0.84,-0.91 0.08,-2.93zm-35.27 -2.25c0.68,-0.63 -0.37,-2.37 1.74,-0.33 -1.2,2.13 -0.88,0.7 -1.74,0.33zm38.86 -0.95c0.2,-2.01 -0.71,-1.12 1.44,-1.4 -0.2,1.82 0.83,1.48 -1.44,1.4zm-4.1 -3.22c-1.74,2.42 -1.46,0.82 -1.78,-0.98l1.78 0.98zm5.72 -4.04c1.38,2.61 1.2,2.1 -1.39,2.17 0,-3.28 -0.44,-1.32 1.39,-2.17zm2.26 -4.59c-1.87,0.98 -0.92,1.13 -3.04,-0.02l0.28 -2.33 2.48 -0.16 0.28 2.51zm-6.43 -8.86c2.2,0.52 1.78,0.63 1.02,2.38l-1.65 -0.33c-0.29,-2.39 -0.49,-0.78 0.63,-2.05zm-17.67 -1.71c0.8,2.32 0.72,0.53 -0.15,2.26 -3.28,-0.85 -1.96,-2.35 0.15,-2.26zm16.21 -6.85l-0.12 2.14 -1.67 0.01c-0.88,-1.9 -0.27,-2.1 1.79,-2.15zm-9.2 0.28l-0.09 1.91 -2.2 -0.26c-2.58,-0.26 -5.1,1.1 -7.13,2.77l-2.06 1.25 -3.77 2.27 1.4 1.34c3.67,1.14 3.37,1.94 6.09,4.01 2.28,-1.4 1.99,-2.51 5.2,-3.7 7.62,0.04 5.77,-0.01 11.09,4.72 3.25,9.85 -12.94,25.52 -18.24,22.48 -6.6,-3.8 -12.63,-9.5 -14.51,-17.04 -1.3,0.5 -1.3,0.21 -1.86,2.08 -0.47,1.53 -0.06,0.87 -0.42,2.08 -0.48,1.64 0.5,0.15 -0.76,1.77l-0.14 -0.02c-1.5,2.55 -1.95,4.32 -2.62,7.59 -0.29,1.36 -0.47,2.84 -0.61,4.2 -0.2,2.09 0.43,3.31 -0.94,3.44 7.19,11.61 30.58,16.77 45.41,1.54 14.4,-14.79 8.86,-37.45 -1.82,-44.95 -1.62,1.35 -7.64,1.57 -12.02,2.52z"/>
   <path class="fil4" d="M30.61 61.81c1.23,1.8 0.93,0.09 0,1.84 -0.88,-1.43 -1.27,-0.04 0,-1.84zm-3.3 -8.18c1.54,-5.12 4.7,2.71 0,0zm6.42 -6.89c0.64,-1.46 0.4,-1.4 2.09,-1.33 1.2,1.62 0.94,0.43 0.34,2.19 -1.9,0.67 -1.25,0.83 -2.43,-0.86zm-7.25 0.17c1.35,-1.38 0.21,-1.25 1.72,-0.05 -1.19,0.8 0.13,1.35 -1.72,0.05zm6.58 -3.41c-5.19,-1.5 2.26,-4.69 0,0zm11.16 -6.72c-3.43,1.32 -4.57,-0.34 -3.68,-3.66l2.72 -0.8c3.02,2.53 1.3,2.76 0.96,4.46zm-6.94 -0.77c-5.22,-1.22 2.34,-4.63 0,0zm13.4 -5.01c-0.3,2.57 0.42,1.05 -1.31,2.01 -2.05,-1.71 -0.84,-2.86 1.31,-2.01zm5.34 -3.48c0.07,2.13 0.66,0.63 -0.64,2.09 -2.14,-0.59 -2.6,-2.43 0.64,-2.09zm-13.23 -0.06c5.08,-0.21 -0.02,5.06 0,0zm-12.85 45.61c1.37,-0.13 0.74,-1.35 0.94,-3.44 0.14,-1.36 0.32,-2.84 0.61,-4.2 0.67,-3.27 1.12,-5.04 2.62,-7.59l-2.54 -0.23c-0.59,-2.81 0.05,-2.93 2.45,-2.59l0.23 2.84c1.26,-1.62 0.28,-0.13 0.76,-1.77 0.36,-1.21 -0.05,-0.55 0.42,-2.08 0.56,-1.87 0.56,-1.58 1.86,-2.08 -0.83,-7.38 2.7,-11.77 10.37,-10.47l-1.4 -1.34 3.77 -2.27 0.15 -1.66 1.91 0.41c2.03,-1.67 4.55,-3.03 7.13,-2.77l0.06 -1.96 2.23 0.31c4.38,-0.95 10.4,-1.17 12.02,-2.52 -13.48,-10 -30.18,-10.62 -42.33,1.43 -5.22,5.19 -8.71,13.06 -9.02,20.68 -0.21,5.08 3.3,20.46 7.76,21.3z"/>
   <path class="fil5" d="M47.66 41.46c-7.67,-1.3 -11.2,3.09 -10.37,10.47 1.88,7.54 7.91,13.24 14.51,17.04 5.3,3.04 21.49,-12.63 18.24,-22.48 -3.83,-5.65 -5.34,-5.31 -11.09,-4.72 -3.21,1.19 -2.92,2.3 -5.2,3.7 -2.72,-2.07 -2.42,-2.87 -6.09,-4.01z"/>
   <path class="fil6" d="M106 58.7c-0.11,-9.1 0.54,-13.1 -2.34,-22.12 -1.52,-4.73 -5.36,-13.71 -9.45,-16.41l-0.31 0.76c1.04,4.94 -3.87,7.48 -6.75,10.75 2.4,4.37 14.2,14.04 17.08,17.67 2.94,3.7 0.26,6.41 1.77,9.35z"/>
   <path class="fil7" d="M65.24 70.53c-2.82,1.99 0.19,5.5 2.7,4.03 2.55,-1.5 0.64,-6.38 -2.7,-4.03z"/>
   <path class="fil7" d="M35.55 65.13c-3.19,2.08 -0.03,5.61 2.62,3.98 2.28,-1.4 0.61,-6.08 -2.62,-3.98z"/>
   <path class="fil7" d="M44.22 36.78c0.34,-1.7 2.06,-1.93 -0.96,-4.46l-2.72 0.8c-0.89,3.32 0.25,4.98 3.68,3.66z"/>
   <path class="fil8" d="M71.13 64.37c-0.92,2.02 -0.79,0.84 -0.08,2.93 3.13,1.15 4.04,-0.06 2.99,-2.96 -2.09,-0.76 -1.06,-0.71 -2.91,0.03z"/>
   <path class="fil9" d="M56.17 74.9c1.91,3.85 5.28,0.03 1.85,-1.73 -1.09,0.46 -1.52,0.47 -1.85,1.73z"/>
   <path class="fil10" d="M75.56 49.3c2.12,1.15 1.17,1 3.04,0.02l-0.28 -2.51 -2.48 0.16 -0.28 2.33z"/>
   <path class="fil7" d="M34.11 57.84l0.14 0.02 -0.23 -2.84c-2.4,-0.34 -3.04,-0.22 -2.45,2.59l2.54 0.23z"/>
   <path class="fil11" d="M35.82 45.41c-1.69,-0.07 -1.45,-0.13 -2.09,1.33 1.18,1.69 0.53,1.53 2.43,0.86 0.6,-1.76 0.86,-0.57 -0.34,-2.19z"/>
   <polygon class="fil12" points="59.22,33.83 61.42,34.09 61.51,32.18 59.28,31.87 "/>
   <path class="fil12" d="M47.68 74.84l-0.05 1.77 1.93 0.28c0.73,-2.44 0.01,-2.47 -1.88,-2.05z"/>
   <path class="fil12" d="M71.54 42.51l1.65 0.33c0.76,-1.75 1.18,-1.86 -1.02,-2.38 -1.12,1.27 -0.92,-0.34 -0.63,2.05z"/>
   <path class="fil9" d="M27.31 53.63c4.7,2.71 1.54,-5.12 0,0z"/>
   <path class="fil9" d="M33.06 43.5c2.26,-4.69 -5.19,-1.5 0,0z"/>
   <path class="fil12" d="M54.35 41.01c0.87,-1.73 0.95,0.06 0.15,-2.26 -2.11,-0.09 -3.43,1.41 -0.15,2.26z"/>
   <path class="fil11" d="M49.37 33.01c1.73,-0.96 1.01,0.56 1.31,-2.01 -2.15,-0.85 -3.36,0.3 -1.31,2.01z"/>
   <path class="fil12" d="M68.92 34.05l1.67 -0.01 0.12 -2.14c-2.06,0.05 -2.67,0.25 -1.79,2.15z"/>
   <path class="fil11" d="M37.28 36.01c2.34,-4.63 -5.22,-1.22 0,0z"/>
   <path class="fil12" d="M55.38 29.61c1.3,-1.46 0.71,0.04 0.64,-2.09 -3.24,-0.34 -2.78,1.5 -0.64,2.09z"/>
   <path class="fil8" d="M74.95 56.08c2.59,-0.07 2.77,0.44 1.39,-2.17 -1.83,0.85 -1.39,-1.11 -1.39,2.17z"/>
   <path class="fil12" d="M41.2 73.34l-0.38 2.05c3.61,0.24 2.92,-1.96 0.38,-2.05z"/>
   <path class="fil9" d="M42.79 27.46c-0.02,5.06 5.08,-0.21 0,0z"/>
   <path class="fil13" d="M70.62 57.95l-1.78 -0.98c0.32,1.8 0.04,3.4 1.78,0.98z"/>
   <path class="fil14" d="M41.57 69.29c1.84,-2.04 0.71,-0.9 0,-2.01 -0.44,0.73 -1.88,0.04 0,2.01z"/>
   <path class="fil14" d="M35.86 62.12c0.86,0.37 0.54,1.8 1.74,-0.33 -2.11,-2.04 -1.06,-0.3 -1.74,0.33z"/>
   <path class="fil14" d="M74.72 61.17c2.27,0.08 1.24,0.42 1.44,-1.4 -2.15,0.28 -1.24,-0.61 -1.44,1.4z"/>
   <path class="fil14" d="M62.65 68.19c1.1,0.47 0.37,1.6 1.74,-0.32 -2.11,-2.08 -1.09,-0.28 -1.74,0.32z"/>
   <polygon class="fil14" points="50.03,37.85 52.09,36.6 50.18,36.19 "/>
   <path class="fil12" d="M26.48 46.91c1.85,1.3 0.53,0.75 1.72,-0.05 -1.51,-1.2 -0.37,-1.33 -1.72,0.05z"/>
   <path class="fil8" d="M30.61 61.81c-1.27,1.8 -0.88,0.41 0,1.84 0.93,-1.75 1.23,-0.04 0,-1.84z"/>
  </g>
 </g>
</svg>
