<?xml version="1.0" encoding="UTF-8"?>
<!DOCTYPE svg PUBLIC "-//W3C//DTD SVG 1.1//EN" "http://www.w3.org/Graphics/SVG/1.1/DTD/svg11.dtd">
<!-- Creator: CorelDRAW 2020 (64-Bit) -->
<svg xmlns="http://www.w3.org/2000/svg" xml:space="preserve" width="73px" height="73px" version="1.1" style="shape-rendering:geometricPrecision; text-rendering:geometricPrecision; image-rendering:optimizeQuality; fill-rule:evenodd; clip-rule:evenodd"
viewBox="0 0 73 73"
 xmlns:xlink="http://www.w3.org/1999/xlink"
 xmlns:xodm="http://www.corel.com/coreldraw/odm/2003">
 <defs>
  <style type="text/css">
   <![CDATA[
    .str0 {stroke:white;stroke-width:2;stroke-miterlimit:22.9256}
    .fil0 {fill:none}
    .fil1 {fill:white;fill-rule:nonzero}
   ]]>
  </style>
 </defs>
 <g id="Слой_x0020_1">
  <metadata id="CorelCorpID_0Corel-Layer"/>
  <g id="_2491587131920">
   <rect class="fil0 str0" x="-0.5" y="0.5" width="73" height="73"/>
   <path class="fil1" d="M25.19 28.92c0,-0.79 -0.19,-1.41 -0.59,-1.84 -0.39,-0.44 -0.94,-0.65 -1.65,-0.65 -0.69,0 -1.22,0.21 -1.6,0.63 -0.38,0.42 -0.57,1.01 -0.57,1.78l-0.49 -1.68c0.32,-0.74 0.75,-1.31 1.29,-1.71 0.54,-0.4 1.16,-0.6 1.87,-0.6 0.72,0 1.34,0.16 1.85,0.48 0.51,0.32 0.9,0.78 1.17,1.38 0.26,0.61 0.39,1.34 0.39,2.2l0 6.03 -1.67 0 0 -6.02zm-12.16 -3.92l1.66 0 0 9.94 -1.66 0 0 -9.94zm6.08 3.92c0,-0.79 -0.19,-1.41 -0.57,-1.84 -0.38,-0.44 -0.92,-0.65 -1.63,-0.65 -0.71,0 -1.25,0.19 -1.64,0.58 -0.38,0.38 -0.58,0.93 -0.58,1.64l-0.2 -1.92c0.32,-0.63 0.74,-1.1 1.26,-1.41 0.51,-0.31 1.1,-0.47 1.76,-0.47 0.69,0 1.28,0.16 1.77,0.48 0.49,0.32 0.86,0.78 1.11,1.38 0.26,0.61 0.39,1.34 0.39,2.2l0 6.03 -1.67 0 0 -6.02zm16.58 -0.28c0,-0.73 -0.2,-1.29 -0.59,-1.7 -0.39,-0.4 -0.94,-0.6 -1.65,-0.6 -0.44,0 -0.86,0.07 -1.28,0.21 -0.41,0.13 -0.79,0.33 -1.11,0.57l-1.22 -0.83c0.38,-0.45 0.88,-0.8 1.49,-1.06 0.62,-0.25 1.3,-0.38 2.06,-0.38 0.82,0 1.53,0.15 2.12,0.44 0.58,0.29 1.03,0.71 1.34,1.27 0.3,0.55 0.46,1.22 0.46,1.99l0 6.39 -1.62 0 0 -6.3zm-2.68 6.45c-1.19,0 -2.1,-0.26 -2.72,-0.79 -0.63,-0.52 -0.94,-1.29 -0.94,-2.29 0,-0.96 0.29,-1.7 0.86,-2.2 0.57,-0.5 1.41,-0.75 2.5,-0.75l3.06 0 0.14 1.43 -3.19 0c-0.58,0 -1.01,0.13 -1.32,0.39 -0.3,0.25 -0.44,0.63 -0.44,1.13 0,0.53 0.19,0.94 0.58,1.21 0.38,0.28 0.94,0.42 1.69,0.42 0.8,0 1.41,-0.08 1.83,-0.25 0.42,-0.16 0.63,-0.41 0.63,-0.73l0.2 1.35c-0.18,0.23 -0.42,0.43 -0.7,0.59 -0.28,0.16 -0.6,0.28 -0.97,0.36 -0.36,0.09 -0.76,0.13 -1.21,0.13zm8.19 -3.73l5.37 -6.36 1.97 0 -7.55 8.49 0.21 -2.13zm-0.92 -10.35l1.67 0 0 13.93 -1.67 0 0 -13.93zm3.47 8.37l1.04 -1.31 4.24 6.87 -1.9 0 -3.38 -5.56zm10.98 5.71c-0.92,0 -1.71,-0.18 -2.36,-0.52 -0.65,-0.35 -1.15,-0.86 -1.49,-1.53 -0.34,-0.67 -0.51,-1.47 -0.51,-2.41l0 -1.12c0,-0.98 0.16,-1.82 0.49,-2.52 0.33,-0.7 0.81,-1.23 1.43,-1.59 0.63,-0.36 1.38,-0.55 2.26,-0.55 0.83,0 1.54,0.2 2.13,0.58 0.59,0.39 1.04,0.95 1.35,1.68 0.31,0.74 0.46,1.63 0.46,2.66l0 0.89 -6.94 0 0 -1.41 5.37 0 0 -0.05c-0.02,-0.89 -0.24,-1.58 -0.66,-2.08 -0.41,-0.49 -0.98,-0.74 -1.71,-0.74 -0.83,0 -1.47,0.26 -1.93,0.79 -0.45,0.53 -0.68,1.27 -0.68,2.24l0 1.26c0,0.91 0.24,1.61 0.73,2.1 0.48,0.5 1.17,0.75 2.06,0.75 0.43,0 0.85,-0.09 1.27,-0.27 0.42,-0.17 0.8,-0.42 1.12,-0.74l0 0 1.11 1.09 0 0c-0.48,0.48 -1.03,0.84 -1.65,1.1 -0.61,0.26 -1.23,0.39 -1.85,0.39zm-32.57 11.73c0,-0.79 -0.19,-1.41 -0.58,-1.84 -0.4,-0.44 -0.95,-0.65 -1.66,-0.65 -0.69,0 -1.22,0.21 -1.6,0.63 -0.38,0.42 -0.57,1.01 -0.57,1.78l-0.49 -1.68c0.32,-0.74 0.75,-1.31 1.29,-1.71 0.54,-0.4 1.16,-0.6 1.87,-0.6 0.72,0 1.34,0.16 1.85,0.48 0.51,0.32 0.9,0.78 1.17,1.38 0.26,0.61 0.39,1.34 0.39,2.2l0 6.03 -1.67 0 0 -6.02zm-12.16 -3.92l1.67 0 0 9.94 -1.67 0 0 -9.94zm6.08 3.92c0,-0.79 -0.19,-1.41 -0.57,-1.84 -0.38,-0.44 -0.92,-0.65 -1.62,-0.65 -0.71,0 -1.26,0.19 -1.65,0.58 -0.38,0.38 -0.57,0.93 -0.57,1.64l-0.21 -1.92c0.32,-0.63 0.74,-1.1 1.26,-1.41 0.52,-0.31 1.1,-0.47 1.76,-0.47 0.69,0 1.28,0.16 1.77,0.48 0.49,0.32 0.86,0.78 1.12,1.38 0.25,0.61 0.38,1.34 0.38,2.2l0 6.03 -1.67 0 0 -6.02zm14.8 6.17c-0.92,0 -1.71,-0.18 -2.36,-0.52 -0.65,-0.35 -1.15,-0.86 -1.49,-1.53 -0.34,-0.67 -0.51,-1.47 -0.51,-2.41l0 -1.12c0,-0.98 0.16,-1.82 0.49,-2.52 0.33,-0.7 0.81,-1.23 1.43,-1.59 0.63,-0.36 1.38,-0.55 2.26,-0.55 0.84,0 1.54,0.2 2.13,0.58 0.59,0.39 1.04,0.95 1.35,1.68 0.31,0.74 0.46,1.63 0.46,2.66l0 0.89 -6.94 0 0 -1.41 5.37 0 0 -0.05c-0.02,-0.89 -0.24,-1.58 -0.65,-2.08 -0.42,-0.49 -0.99,-0.74 -1.72,-0.74 -0.83,0 -1.47,0.26 -1.92,0.79 -0.46,0.53 -0.69,1.27 -0.69,2.24l0 1.26c0,0.91 0.24,1.61 0.73,2.1 0.48,0.5 1.17,0.75 2.06,0.75 0.43,0 0.85,-0.09 1.27,-0.27 0.42,-0.17 0.8,-0.42 1.12,-0.74l0 0 1.11 1.09 0 0c-0.48,0.47 -1.03,0.84 -1.64,1.1 -0.62,0.26 -1.24,0.39 -1.86,0.39zm10.9 0c-0.71,0 -1.31,-0.14 -1.81,-0.42 -0.5,-0.28 -0.87,-0.71 -1.11,-1.29l0.14 -2.08c0,0.43 0.08,0.82 0.26,1.17 0.18,0.36 0.44,0.63 0.78,0.84 0.34,0.2 0.74,0.3 1.2,0.3 0.74,0 1.31,-0.22 1.71,-0.66 0.41,-0.45 0.6,-1.07 0.6,-1.88l0 -2.15c0,-0.83 -0.19,-1.47 -0.6,-1.91 -0.4,-0.46 -0.97,-0.68 -1.71,-0.68 -0.46,0 -0.86,0.1 -1.2,0.3 -0.34,0.2 -0.6,0.47 -0.78,0.81 -0.18,0.35 -0.26,0.73 -0.26,1.15l-0.21 -1.91c0.33,-0.62 0.76,-1.07 1.28,-1.37 0.53,-0.3 1.13,-0.46 1.81,-0.46 0.7,0 1.3,0.16 1.81,0.48 0.5,0.32 0.88,0.78 1.14,1.38 0.26,0.61 0.39,1.34 0.39,2.2l0 2.16c0,0.85 -0.13,1.57 -0.4,2.17 -0.27,0.6 -0.66,1.06 -1.18,1.37 -0.52,0.32 -1.13,0.48 -1.86,0.48zm-4.45 -14.08l1.67 0 0 13.93 -1.67 0 0 -13.93zm14.75 14.08c-0.92,0 -1.71,-0.18 -2.36,-0.52 -0.65,-0.35 -1.15,-0.86 -1.49,-1.53 -0.34,-0.67 -0.51,-1.47 -0.51,-2.41l0 -1.12c0,-0.98 0.16,-1.82 0.49,-2.52 0.33,-0.7 0.8,-1.23 1.43,-1.59 0.63,-0.36 1.38,-0.55 2.26,-0.55 0.83,0 1.54,0.2 2.13,0.58 0.59,0.39 1.03,0.95 1.35,1.68 0.31,0.74 0.46,1.63 0.46,2.66l0 0.89 -6.95 0 0 -1.41 5.38 0 0 -0.05c-0.03,-0.89 -0.25,-1.58 -0.66,-2.08 -0.41,-0.49 -0.98,-0.74 -1.71,-0.74 -0.83,0 -1.47,0.26 -1.93,0.79 -0.46,0.53 -0.68,1.27 -0.68,2.24l0 1.26c0,0.91 0.24,1.61 0.73,2.1 0.48,0.5 1.17,0.75 2.06,0.75 0.42,0 0.85,-0.09 1.27,-0.27 0.42,-0.17 0.8,-0.42 1.12,-0.74l0 0 1.11 1.09 0 0c-0.48,0.47 -1.03,0.84 -1.65,1.1 -0.61,0.26 -1.23,0.39 -1.85,0.39zm8.11 -2.74c0,0.33 0.08,0.59 0.24,0.77 0.15,0.18 0.37,0.27 0.65,0.27l0.92 0 0 1.57 -1.15 0c-0.74,0 -1.31,-0.22 -1.72,-0.69 -0.4,-0.46 -0.6,-1.1 -0.6,-1.94l0 -11.32 1.66 0 0 11.34z"/>
  </g>
 </g>
</svg>
