<?xml version="1.0" encoding="UTF-8"?>
<!DOCTYPE svg PUBLIC "-//W3C//DTD SVG 1.1//EN" "http://www.w3.org/Graphics/SVG/1.1/DTD/svg11.dtd">
<!-- Creator: CorelDRAW 2020 (64-Bit) -->
<svg xmlns="http://www.w3.org/2000/svg" xml:space="preserve" width="218px" height="218px" version="1.1" style="shape-rendering:geometricPrecision; text-rendering:geometricPrecision; image-rendering:optimizeQuality; fill-rule:evenodd; clip-rule:evenodd"
viewBox="0 0 218 218"
 xmlns:xlink="http://www.w3.org/1999/xlink"
 xmlns:xodm="http://www.corel.com/coreldraw/odm/2003">
 <defs>
  <style type="text/css">
   <![CDATA[
    .str1 {stroke:white;stroke-width:3.5;stroke-miterlimit:22.9256}
    .str0 {stroke:black;stroke-width:2.36;stroke-miterlimit:22.9256}
    .fil1 {fill:none}
    .fil0 {fill:black}
    .fil2 {fill:white;fill-rule:nonzero}
   ]]>
  </style>
 </defs>
 <g id="Слой_x0020_1">
  <metadata id="CorelCorpID_0Corel-Layer"/>
  <rect class="fil0 str0" width="218" height="218"/>
  <rect class="fil1 str1" x="31.5" y="31.5" width="155" height="155"/>
  <path class="fil2" d="M86.05 91.84c0,-1.68 -0.41,-2.98 -1.25,-3.91 -0.83,-0.92 -2,-1.38 -3.5,-1.38 -1.47,0 -2.61,0.45 -3.41,1.34 -0.81,0.9 -1.21,2.16 -1.21,3.79l-1.04 -3.57c0.68,-1.57 1.59,-2.78 2.73,-3.63 1.16,-0.84 2.47,-1.27 3.98,-1.27 1.54,0 2.84,0.33 3.93,1.01 1.09,0.67 1.91,1.65 2.47,2.94 0.57,1.29 0.85,2.84 0.85,4.66l0 12.82 -3.55 0 0 -12.8zm-25.83 -8.32l3.54 0 0 21.12 -3.54 0 0 -21.12zm12.92 8.32c0,-1.68 -0.41,-2.98 -1.21,-3.91 -0.81,-0.92 -1.96,-1.38 -3.45,-1.38 -1.51,0 -2.67,0.41 -3.49,1.23 -0.82,0.82 -1.23,1.98 -1.23,3.49l-0.43 -4.07c0.68,-1.34 1.57,-2.34 2.67,-3 1.09,-0.66 2.34,-0.99 3.74,-0.99 1.47,0 2.72,0.33 3.75,1.01 1.04,0.67 1.83,1.65 2.38,2.94 0.54,1.29 0.81,2.84 0.81,4.66l0 12.82 -3.54 0 0 -12.8zm35.2 -0.59c0,-1.54 -0.42,-2.75 -1.24,-3.6 -0.83,-0.85 -2,-1.28 -3.52,-1.28 -0.93,0 -1.82,0.14 -2.71,0.43 -0.88,0.29 -1.67,0.7 -2.36,1.23l-2.58 -1.77c0.8,-0.96 1.85,-1.71 3.16,-2.24 1.31,-0.54 2.76,-0.81 4.37,-0.81 1.75,0 3.24,0.31 4.49,0.93 1.25,0.61 2.2,1.51 2.85,2.68 0.65,1.18 0.98,2.59 0.98,4.25l0 13.57 -3.44 0 0 -13.39zm-5.68 13.69c-2.54,0 -4.47,-0.55 -5.79,-1.66 -1.32,-1.12 -1.98,-2.74 -1.98,-4.87 0,-2.05 0.61,-3.61 1.82,-4.67 1.21,-1.06 2.98,-1.6 5.3,-1.6l6.51 0 0.28 3.04 -6.77 0c-1.22,0 -2.15,0.27 -2.79,0.82 -0.64,0.55 -0.95,1.35 -0.95,2.41 0,1.13 0.41,1.98 1.23,2.57 0.82,0.59 2.01,0.89 3.59,0.89 1.71,0 3.01,-0.18 3.9,-0.53 0.88,-0.35 1.33,-0.88 1.33,-1.57l0.42 2.87c-0.39,0.5 -0.89,0.93 -1.48,1.27 -0.59,0.33 -1.28,0.59 -2.05,0.77 -0.78,0.17 -1.63,0.26 -2.57,0.26zm17.37 -7.92l11.42 -13.5 4.17 0 -16.02 18.03 0.43 -4.53zm-1.95 -21.97l3.54 0 0 29.59 -3.54 0 0 -29.59zm7.38 17.77l2.21 -2.77 8.99 14.59 -4.04 0 -7.16 -11.82zm23.3 12.12c-1.95,0 -3.62,-0.37 -5,-1.11 -1.39,-0.74 -2.44,-1.81 -3.16,-3.24 -0.73,-1.41 -1.09,-3.11 -1.09,-5.11l0 -2.38c0,-2.09 0.34,-3.87 1.04,-5.35 0.7,-1.48 1.71,-2.61 3.05,-3.38 1.32,-0.77 2.93,-1.16 4.79,-1.16 1.77,0 3.28,0.41 4.53,1.23 1.24,0.82 2.19,2.01 2.85,3.57 0.66,1.56 0.99,3.44 0.99,5.64l0 1.89 -14.75 0 0 -2.99 11.41 0 0 -0.1c-0.05,-1.9 -0.52,-3.38 -1.39,-4.43 -0.88,-1.04 -2.09,-1.57 -3.64,-1.57 -1.76,0 -3.13,0.55 -4.09,1.68 -0.97,1.12 -1.46,2.7 -1.46,4.75l0 2.68c0,1.93 0.52,3.42 1.55,4.46 1.03,1.06 2.48,1.58 4.37,1.58 0.91,0 1.82,-0.18 2.71,-0.55 0.89,-0.38 1.69,-0.9 2.38,-1.58l0 0 2.36 2.32 0 0c-1.03,1 -2.2,1.78 -3.5,2.32 -1.3,0.55 -2.62,0.83 -3.95,0.83zm-69.14 24.9c0,-1.68 -0.41,-2.98 -1.25,-3.9 -0.83,-0.92 -2,-1.38 -3.5,-1.38 -1.47,0 -2.61,0.44 -3.41,1.34 -0.81,0.89 -1.21,2.15 -1.21,3.78l-1.04 -3.56c0.68,-1.57 1.59,-2.78 2.73,-3.63 1.16,-0.85 2.47,-1.27 3.98,-1.27 1.54,0 2.84,0.33 3.93,1 1.09,0.68 1.91,1.66 2.47,2.94 0.57,1.29 0.85,2.85 0.85,4.66l0 12.82 -3.55 0 0 -12.8zm-25.83 -8.32l3.54 0 0 21.12 -3.54 0 0 -21.12zm12.92 8.32c0,-1.68 -0.41,-2.98 -1.21,-3.9 -0.81,-0.92 -1.96,-1.38 -3.45,-1.38 -1.51,0 -2.67,0.41 -3.49,1.23 -0.82,0.82 -1.23,1.98 -1.23,3.48l-0.43 -4.07c0.68,-1.34 1.57,-2.34 2.67,-3 1.09,-0.66 2.35,-0.98 3.74,-0.98 1.47,0 2.72,0.33 3.75,1 1.04,0.68 1.83,1.66 2.38,2.94 0.54,1.29 0.81,2.85 0.81,4.66l0 12.82 -3.54 0 0 -12.8zm31.41 13.11c-1.95,0 -3.62,-0.37 -5,-1.11 -1.39,-0.74 -2.44,-1.82 -3.16,-3.24 -0.73,-1.42 -1.09,-3.12 -1.09,-5.11l0 -2.38c0,-2.09 0.34,-3.88 1.05,-5.36 0.69,-1.48 1.7,-2.6 3.04,-3.37 1.32,-0.77 2.93,-1.16 4.8,-1.16 1.76,0 3.27,0.41 4.52,1.23 1.24,0.82 2.19,2.01 2.85,3.57 0.66,1.56 0.99,3.44 0.99,5.63l0 1.89 -14.75 0 0 -2.98 11.41 0 0 -0.11c-0.05,-1.89 -0.52,-3.37 -1.39,-4.42 -0.88,-1.05 -2.09,-1.58 -3.63,-1.58 -1.77,0 -3.14,0.56 -4.1,1.68 -0.97,1.12 -1.46,2.71 -1.46,4.75l0 2.68c0,1.94 0.52,3.42 1.55,4.47 1.03,1.06 2.48,1.58 4.37,1.58 0.91,0 1.82,-0.18 2.71,-0.56 0.89,-0.37 1.69,-0.89 2.38,-1.57l0 0 2.36 2.31 0 0c-1.03,1 -2.2,1.78 -3.5,2.33 -1.3,0.55 -2.62,0.83 -3.95,0.83zm23.16 0c-1.51,0 -2.79,-0.3 -3.86,-0.9 -1.06,-0.6 -1.84,-1.51 -2.34,-2.73l0.28 -4.41c0,0.91 0.19,1.74 0.57,2.48 0.38,0.75 0.92,1.34 1.65,1.77 0.71,0.44 1.56,0.66 2.54,0.66 1.57,0 2.78,-0.48 3.64,-1.42 0.86,-0.95 1.28,-2.27 1.28,-3.98l0 -4.58c0,-1.75 -0.42,-3.1 -1.28,-4.05 -0.86,-0.96 -2.07,-1.44 -3.64,-1.44 -0.98,0 -1.83,0.21 -2.54,0.63 -0.73,0.43 -1.27,1 -1.65,1.73 -0.38,0.74 -0.57,1.55 -0.57,2.45l-0.43 -4.07c0.69,-1.31 1.6,-2.27 2.72,-2.91 1.11,-0.64 2.39,-0.96 3.83,-0.96 1.49,0 2.77,0.33 3.84,1 1.06,0.68 1.87,1.66 2.43,2.94 0.56,1.29 0.83,2.85 0.83,4.66l0 4.6c0,1.79 -0.28,3.33 -0.85,4.6 -0.57,1.27 -1.4,2.25 -2.51,2.92 -1.1,0.67 -2.41,1.01 -3.94,1.01zm-9.46 -29.89l3.54 0 0 29.58 -3.54 0 0 -29.58zm31.31 29.89c-1.95,0 -3.62,-0.37 -5,-1.11 -1.39,-0.74 -2.44,-1.82 -3.17,-3.24 -0.72,-1.42 -1.09,-3.12 -1.09,-5.11l0 -2.38c0,-2.09 0.35,-3.88 1.05,-5.36 0.7,-1.48 1.71,-2.6 3.04,-3.37 1.33,-0.77 2.93,-1.16 4.8,-1.16 1.77,0 3.27,0.41 4.52,1.23 1.25,0.82 2.2,2.01 2.86,3.57 0.66,1.56 0.98,3.44 0.98,5.63l0 1.89 -14.75 0 0 -2.98 11.42 0 0 -0.11c-0.05,-1.89 -0.52,-3.37 -1.39,-4.42 -0.88,-1.05 -2.09,-1.58 -3.64,-1.58 -1.76,0 -3.13,0.56 -4.09,1.68 -0.98,1.12 -1.46,2.71 -1.46,4.75l0 2.68c0,1.94 0.52,3.42 1.55,4.47 1.02,1.06 2.48,1.58 4.37,1.58 0.91,0 1.81,-0.18 2.71,-0.56 0.89,-0.37 1.69,-0.89 2.38,-1.57l0 0 2.36 2.31 0 0c-1.03,1 -2.2,1.78 -3.5,2.33 -1.3,0.55 -2.62,0.83 -3.95,0.83zm17.24 -5.82c0,0.71 0.16,1.25 0.49,1.64 0.33,0.38 0.8,0.57 1.4,0.57l1.95 0 0 3.34 -2.44 0c-1.58,0 -2.79,-0.48 -3.65,-1.46 -0.86,-0.98 -1.29,-2.36 -1.29,-4.13l0 -24.03 3.54 0 0 24.07z"/>
 </g>
</svg>
