<svg version="1.1" id="Слой_1" xmlns="http://www.w3.org/2000/svg" xmlns:xlink="http://www.w3.org/1999/xlink" x="0px" y="0px"
	 width="77px" height="77px" viewBox="0 0 77 77" enable-background="new 0 0 77 77" xml:space="preserve">
<g id="Слой_x0020_1">
	<g id="_2653717897472">
		<path fill="#FFFFFF" d="M27.689,30.42c0-0.79-0.19-1.41-0.59-1.84c-0.39-0.44-0.94-0.65-1.649-0.65c-0.69,0-1.22,0.21-1.601,0.63
			c-0.38,0.42-0.57,1.01-0.57,1.78l-0.49-1.68c0.32-0.74,0.75-1.31,1.291-1.71c0.54-0.4,1.16-0.6,1.87-0.6
			c0.72,0,1.34,0.16,1.85,0.48c0.51,0.32,0.9,0.78,1.17,1.38c0.26,0.61,0.39,1.34,0.39,2.2v6.03h-1.669v-6.02H27.689L27.689,30.42
			L27.689,30.42z M15.528,26.5h1.66v9.94h-1.66V26.5z M21.609,30.42c0-0.79-0.19-1.41-0.57-1.84c-0.38-0.44-0.92-0.65-1.63-0.65
			s-1.25,0.19-1.64,0.58c-0.38,0.38-0.58,0.93-0.58,1.64l-0.2-1.92c0.319-0.63,0.74-1.1,1.26-1.41c0.51-0.31,1.101-0.47,1.76-0.47
			c0.69,0,1.28,0.16,1.77,0.48c0.49,0.32,0.86,0.78,1.11,1.38c0.259,0.61,0.39,1.34,0.39,2.2v6.03h-1.67V30.42L21.609,30.42
			L21.609,30.42L21.609,30.42z M38.188,30.14c0-0.73-0.199-1.29-0.589-1.7c-0.391-0.4-0.94-0.6-1.65-0.6
			c-0.44,0-0.86,0.07-1.28,0.21c-0.41,0.13-0.79,0.33-1.11,0.57l-1.221-0.83c0.381-0.45,0.881-0.8,1.49-1.06
			c0.621-0.25,1.3-0.38,2.061-0.38c0.82,0,1.529,0.15,2.12,0.44c0.579,0.29,1.03,0.71,1.339,1.27c0.301,0.55,0.461,1.22,0.461,1.99
			v6.39h-1.621V30.14L38.188,30.14L38.188,30.14z M35.509,36.59c-1.19,0-2.1-0.26-2.721-0.79c-0.629-0.52-0.94-1.29-0.94-2.29
			c0-0.96,0.29-1.7,0.86-2.2s1.411-0.75,2.5-0.75h3.06l0.14,1.43h-3.189c-0.58,0-1.011,0.13-1.32,0.39
			c-0.3,0.25-0.44,0.63-0.44,1.13c0,0.53,0.19,0.94,0.581,1.21c0.38,0.28,0.94,0.42,1.69,0.42c0.799,0,1.41-0.08,1.83-0.25
			c0.42-0.16,0.629-0.41,0.629-0.73l0.2,1.35c-0.18,0.23-0.42,0.43-0.7,0.59c-0.28,0.16-0.6,0.28-0.97,0.36
			C36.359,36.55,35.959,36.59,35.509,36.59L35.509,36.59L35.509,36.59z M43.699,32.86l5.369-6.36h1.971l-7.551,8.49L43.699,32.86
			L43.699,32.86L43.699,32.86z M42.777,22.51h1.672v13.93h-1.672V22.51z M46.248,30.88l1.041-1.31l4.238,6.87h-1.898L46.248,30.88z
			 M57.229,36.59c-0.92,0-1.709-0.18-2.356-0.52c-0.649-0.35-1.149-0.86-1.49-1.53c-0.34-0.67-0.511-1.47-0.511-2.41v-1.12
			c0-0.98,0.156-1.82,0.488-2.52c0.33-0.7,0.812-1.23,1.433-1.59c0.628-0.36,1.378-0.55,2.259-0.55c0.831,0,1.539,0.2,2.131,0.58
			c0.59,0.39,1.041,0.95,1.35,1.68c0.311,0.74,0.461,1.63,0.461,2.66v0.89h-6.939v-1.41h5.37V30.7
			c-0.021-0.89-0.241-1.58-0.659-2.08c-0.41-0.49-0.979-0.74-1.711-0.74c-0.828,0-1.471,0.26-1.93,0.79
			c-0.451,0.53-0.682,1.27-0.682,2.24v1.26c0,0.91,0.24,1.61,0.729,2.1c0.479,0.5,1.169,0.75,2.062,0.75
			c0.43,0,0.851-0.09,1.271-0.27c0.42-0.17,0.8-0.42,1.12-0.74l0,0l1.109,1.09l0,0c-0.479,0.48-1.028,0.84-1.649,1.1
			C58.471,36.46,57.85,36.59,57.229,36.59L57.229,36.59L57.229,36.59z M24.659,48.32c0-0.791-0.189-1.41-0.58-1.84
			c-0.4-0.44-0.95-0.65-1.661-0.65c-0.69,0-1.22,0.21-1.6,0.63s-0.57,1.011-0.57,1.78l-0.49-1.68c0.319-0.74,0.75-1.313,1.289-1.711
			c0.54-0.399,1.161-0.602,1.87-0.602c0.721,0,1.34,0.16,1.851,0.479c0.51,0.319,0.9,0.779,1.169,1.379
			c0.261,0.611,0.39,1.343,0.39,2.201v6.029h-1.67V48.32H24.659L24.659,48.32z M12.499,44.4h1.67v9.938h-1.67V44.4z M18.578,48.32
			c0-0.791-0.189-1.41-0.569-1.84c-0.38-0.44-0.921-0.65-1.62-0.65c-0.71,0-1.26,0.189-1.65,0.58c-0.38,0.38-0.57,0.93-0.57,1.64
			l-0.21-1.92c0.32-0.63,0.74-1.101,1.26-1.409c0.52-0.311,1.1-0.471,1.76-0.471c0.69,0,1.28,0.16,1.77,0.48
			c0.491,0.317,0.86,0.777,1.12,1.379c0.25,0.611,0.38,1.341,0.38,2.201v6.027h-1.671V48.32L18.578,48.32L18.578,48.32z
			 M33.378,54.49c-0.919,0-1.71-0.18-2.36-0.52c-0.65-0.353-1.15-0.861-1.49-1.531c-0.339-0.67-0.51-1.469-0.51-2.41V48.91
			c0-0.98,0.16-1.82,0.49-2.52c0.33-0.701,0.81-1.23,1.43-1.593c0.63-0.358,1.38-0.55,2.261-0.55c0.84,0,1.54,0.2,2.129,0.58
			c0.59,0.393,1.04,0.947,1.35,1.68c0.31,0.74,0.46,1.633,0.46,2.66v0.893h-6.94v-1.41h5.37V48.6c-0.02-0.89-0.24-1.58-0.649-2.08
			c-0.42-0.49-0.99-0.74-1.72-0.74c-0.83,0-1.471,0.263-1.921,0.791c-0.46,0.529-0.69,1.271-0.69,2.24v1.26
			c0,0.91,0.24,1.609,0.73,2.102c0.48,0.5,1.17,0.75,2.06,0.75c0.431,0,0.851-0.09,1.27-0.271c0.42-0.17,0.801-0.42,1.121-0.738l0,0
			l1.11,1.09l0,0c-0.48,0.473-1.03,0.84-1.64,1.102C34.619,54.359,33.999,54.49,33.378,54.49L33.378,54.49L33.378,54.49z
			 M44.277,54.49c-0.709,0-1.31-0.141-1.811-0.42c-0.5-0.28-0.869-0.711-1.109-1.291l0.141-2.079c0,0.43,0.08,0.819,0.26,1.17
			c0.18,0.36,0.441,0.63,0.781,0.84c0.34,0.2,0.738,0.3,1.199,0.3c0.74,0,1.311-0.22,1.711-0.66c0.408-0.449,0.6-1.07,0.6-1.879
			v-2.15c0-0.828-0.191-1.471-0.6-1.908c-0.4-0.46-0.971-0.682-1.711-0.682c-0.461,0-0.859,0.102-1.199,0.299
			c-0.34,0.201-0.602,0.473-0.781,0.813c-0.18,0.352-0.26,0.729-0.26,1.15l-0.209-1.91c0.331-0.62,0.76-1.07,1.279-1.37
			c0.529-0.3,1.131-0.46,1.811-0.46c0.699,0,1.299,0.16,1.809,0.479c0.5,0.319,0.881,0.779,1.143,1.379
			c0.26,0.611,0.393,1.343,0.393,2.201v2.16c0,0.85-0.133,1.569-0.4,2.17c-0.271,0.602-0.66,1.062-1.18,1.369
			C45.619,54.33,45.008,54.49,44.277,54.49L44.277,54.49L44.277,54.49z M39.829,40.41h1.669v13.93h-1.669V40.41z M54.579,54.49
			c-0.92,0-1.71-0.18-2.358-0.52c-0.65-0.353-1.152-0.861-1.492-1.531s-0.51-1.469-0.51-2.41V48.91c0-0.98,0.16-1.82,0.49-2.52
			c0.33-0.701,0.799-1.23,1.432-1.593c0.629-0.358,1.379-0.55,2.26-0.55c0.83,0,1.539,0.2,2.129,0.58
			c0.593,0.393,1.031,0.947,1.353,1.68c0.31,0.74,0.459,1.633,0.459,2.66v0.893h-6.948v-1.41h5.379V48.6
			c-0.028-0.89-0.25-1.58-0.66-2.08c-0.408-0.49-0.979-0.74-1.709-0.74c-0.83,0-1.471,0.263-1.93,0.791
			c-0.461,0.529-0.681,1.271-0.681,2.24v1.26c0,0.91,0.237,1.609,0.729,2.102c0.479,0.5,1.17,0.75,2.062,0.75
			c0.42,0,0.849-0.09,1.269-0.271c0.422-0.17,0.803-0.42,1.123-0.738l0,0L58.079,53l0,0c-0.479,0.471-1.03,0.84-1.649,1.1
			C55.818,54.359,55.2,54.49,54.579,54.49L54.579,54.49L54.579,54.49z M62.688,51.75c0,0.33,0.08,0.59,0.24,0.77
			c0.149,0.183,0.371,0.271,0.65,0.271h0.92v1.568h-1.15c-0.74,0-1.31-0.219-1.719-0.688c-0.4-0.46-0.602-1.101-0.602-1.938V40.41
			h1.66V51.75L62.688,51.75L62.688,51.75z"/>
		<rect x="0.499" y="0.5" fill="#FFFFFF" width="76" height="3"/>
		<rect x="0.499" y="73.5" fill="#FFFFFF" width="76" height="3"/>
		<rect x="0.472" y="0.996" fill="#FFFFFF" width="2.999" height="75.004"/>
		<rect x="73.527" y="0.996" fill="#FFFFFF" width="2.998" height="75.004"/>
	</g>
</g>
</svg>
