<?xml version="1.0" encoding="UTF-8"?>
<!DOCTYPE svg PUBLIC "-//W3C//DTD SVG 1.1//EN" "http://www.w3.org/Graphics/SVG/1.1/DTD/svg11.dtd">
<!-- Creator: CorelDRAW 2020 (64-Bit) -->
<svg xmlns="http://www.w3.org/2000/svg" xml:space="preserve" width="106px" height="106px" version="1.1" style="shape-rendering:geometricPrecision; text-rendering:geometricPrecision; image-rendering:optimizeQuality; fill-rule:evenodd; clip-rule:evenodd"
viewBox="0 0 106 106"
 xmlns:xlink="http://www.w3.org/1999/xlink"
 xmlns:xodm="http://www.corel.com/coreldraw/odm/2003">
 <defs>
  <style type="text/css">
   <![CDATA[
    .fil4 {fill:#643721}
    .fil2 {fill:#73432B}
    .fil3 {fill:#C2BFAD}
    .fil0 {fill:#E2E2DF}
    .fil1 {fill:#FBF7EB}
    .fil5 {fill:#FEFEFE}
   ]]>
  </style>
 </defs>
 <g id="Слой_x0020_1">
  <metadata id="CorelCorpID_0Corel-Layer"/>
  <g id="_2726224485520">
   <path class="fil0" d="M58.32 106c-3.03,-1.91 -5.12,1.39 -8.96,-2.33 -2.68,-2.6 -16.15,-15.71 -17.16,-17.73 -1.67,-2.18 -1.92,-0.69 -4.41,-3.19 -6.11,-6.15 -9.21,-8.4 -12.35,-19.94 -3.05,-11.17 -0.31,-23.45 5.4,-31.58 2.43,-3.47 6.21,-7.75 9.62,-9.88 4.73,-2.95 7.82,-4.87 13.86,-6.25 5.96,-1.37 12.34,-1.18 18.14,0.01 6.26,1.29 9.3,4.3 13.71,6.3l7.59 -7.52c2.77,-2.76 0.49,-0.26 1.47,-2.36 -1.43,-2.12 -2.49,-2.44 -4.88,-3.92 -28.51,-17.51 -66.93,-3.57 -77.7,29.18 -6.18,18.8 -0.98,35.93 9.74,50.4 1.38,1.87 2.73,2.52 4.25,4.27 2.09,2.4 2.03,2.04 4.22,3.69 14.15,10.64 21.54,10.11 37.46,10.85z"/>
   <path class="fil1" d="M73.14 30.03c13.98,9.28 13.81,33.29 1.81,44.99 -5.28,5.16 -12.79,9.34 -23.05,9.01 -8.51,-0.28 -18.89,-5.63 -21.46,-10.03 -4.51,-3.92 -8.49,-13.17 -8.2,-22.04 0.52,-15.99 13.53,-29.26 29.64,-29.76 7.61,-0.23 20.81,4.57 21.26,7.83zm-40.94 55.91c10.01,7.18 27.27,8.24 39.3,1.44 16.18,-9.15 24.49,-27.35 18.77,-45.86 -1.47,-4.75 -3.92,-7.85 -5.66,-11.46l8.83 -8.79c0.83,-1.14 0.41,-0.13 1,-1.92 -0.1,-8.29 -3.04,-6.89 -9.21,-7.82 -0.98,2.1 1.3,-0.4 -1.47,2.36l-7.59 7.52c-4.41,-2 -7.45,-5.01 -13.71,-6.3 -5.8,-1.19 -12.18,-1.38 -18.14,-0.01 -6.04,1.38 -9.13,3.3 -13.86,6.25 -3.41,2.13 -7.19,6.41 -9.62,9.88 -5.71,8.13 -8.45,20.41 -5.4,31.58 3.14,11.54 6.24,13.79 12.35,19.94 2.49,2.5 2.74,1.01 4.41,3.19z"/>
   <path class="fil2" d="M69.49 51.92c1.6,1.2 6.36,8.64 6.43,10.81 -0.24,0.77 -11.86,8.97 -15.02,9.1 -1.77,-1.82 -2.53,-3.71 -4.11,-5.96 -3.86,-5.49 -3.2,-5 5.32,-10.38 2.61,-1.64 4.31,-3.67 7.38,-3.57zm-9.43 -19.69c1.95,1.83 2.86,0.21 4.76,2.62 0.51,1.7 -1.83,10.36 -2.87,11.95 -2.63,0.62 -7.12,-0.98 -9.93,-1.66 -3.88,-0.95 -7.23,-0.75 -7.37,-4.4 -2.23,1.73 0.02,-0.15 -1.05,1.7 -0.95,1.65 0.04,0.39 -1.24,1.79 -1.41,1.54 -2.37,1.53 -2.75,4.17 2.43,0.83 2.72,2.97 5.16,6.98 1.41,2.31 4.05,5.83 3.88,8.6 -1.34,1.42 -8.32,5.62 -10.74,5.87 -3.19,-1.9 -2.75,-5.3 -5.78,-7.36l-1.69 11.51c2.57,4.4 12.95,9.75 21.46,10.03 10.26,0.33 17.77,-3.85 23.05,-9.01 12,-11.7 12.17,-35.71 -1.81,-44.99 0,1.25 -4.73,0.97 -6.09,1.18 -2.46,0.39 -4.99,0.58 -6.99,1.02z"/>
   <path class="fil3" d="M32.2 85.94c1.01,2.02 14.48,15.13 17.16,17.73 3.84,3.72 5.93,0.42 8.96,2.33 5.91,-0.2 14.06,-2.62 19.13,-5.28 9.79,-5.13 18.75,-13.93 23.57,-24.02 2.54,-5.3 4.77,-12.38 4.98,-18.68 -1.01,-1.74 -0.29,-2.9 -0.58,-5.5 -0.57,-4.99 -15.81,-15.75 -18.41,-20.64 0.97,-1.45 9.48,-8.43 6.43,-10.61l-8.83 8.79c1.74,3.61 4.19,6.71 5.66,11.46 5.72,18.51 -2.59,36.71 -18.77,45.86 -12.03,6.8 -29.29,5.74 -39.3,-1.44z"/>
   <path class="fil4" d="M30.44 74l1.69 -11.51c-0.32,-3.31 -3.11,-4.46 -3.03,-7.91 1.41,-1.93 2.64,-1.99 5.08,-3.34 2.19,-1.2 2.88,-2.47 5.43,-2.84 0.38,-2.64 1.34,-2.63 2.75,-4.17 1.28,-1.4 0.29,-0.14 1.24,-1.79 1.07,-1.85 -1.18,0.03 1.05,-1.7 0.66,-2.79 1.79,-8.5 3.26,-10.38 3.72,-0.7 7.93,2.13 12.15,1.87 2,-0.44 4.53,-0.63 6.99,-1.02 1.36,-0.21 6.09,0.07 6.09,-1.18 -0.45,-3.26 -13.65,-8.06 -21.26,-7.83 -16.11,0.5 -29.12,13.77 -29.64,29.76 -0.29,8.87 3.69,18.12 8.2,22.04z"/>
   <path class="fil5" d="M32.13 62.49c3.03,2.06 2.59,5.46 5.78,7.36 2.42,-0.25 9.4,-4.45 10.74,-5.87 0.17,-2.77 -2.47,-6.29 -3.88,-8.6 -2.44,-4.01 -2.73,-6.15 -5.16,-6.98 -2.55,0.37 -3.24,1.64 -5.43,2.84 -2.44,1.35 -3.67,1.41 -5.08,3.34 -0.08,3.45 2.71,4.6 3.03,7.91z"/>
   <path class="fil5" d="M44.65 40.74c0.14,3.65 3.49,3.45 7.37,4.4 2.81,0.68 7.3,2.28 9.93,1.66 1.04,-1.59 3.38,-10.25 2.87,-11.95 -1.9,-2.41 -2.81,-0.79 -4.76,-2.62 -4.22,0.26 -8.43,-2.57 -12.15,-1.87 -1.47,1.88 -2.6,7.59 -3.26,10.38z"/>
   <path class="fil5" d="M69.49 51.92c-3.07,-0.1 -4.77,1.93 -7.38,3.57 -8.52,5.38 -9.18,4.89 -5.32,10.38 1.58,2.25 2.34,4.14 4.11,5.96 3.16,-0.13 14.78,-8.33 15.02,-9.1 -0.07,-2.17 -4.83,-9.61 -6.43,-10.81z"/>
   <path class="fil0" d="M93.44 21.27c3.05,2.18 -5.46,9.16 -6.43,10.61 2.6,4.89 17.84,15.65 18.41,20.64 0.29,2.6 -0.43,3.76 0.58,5.5 -0.54,-9.47 0.4,-13.03 -2.75,-22.2 -1.08,-3.15 -2.35,-6.13 -3.95,-8.79 -1.65,-2.74 -3.62,-5.21 -4.86,-7.68 -0.59,1.79 -0.17,0.78 -1,1.92z"/>
  </g>
 </g>
</svg>
