<?xml version="1.0" encoding="UTF-8"?>
<!DOCTYPE svg PUBLIC "-//W3C//DTD SVG 1.1//EN" "http://www.w3.org/Graphics/SVG/1.1/DTD/svg11.dtd">
<!-- Creator: CorelDRAW 2020 (64-Bit) -->
<svg xmlns="http://www.w3.org/2000/svg" xml:space="preserve" width="106px" height="106px" version="1.1" style="shape-rendering:geometricPrecision; text-rendering:geometricPrecision; image-rendering:optimizeQuality; fill-rule:evenodd; clip-rule:evenodd"
viewBox="0 0 106 106"
 xmlns:xlink="http://www.w3.org/1999/xlink"
 xmlns:xodm="http://www.corel.com/coreldraw/odm/2003">
 <defs>
  <style type="text/css">
   <![CDATA[
    .fil4 {fill:#341409}
    .fil2 {fill:#3C180C}
    .fil6 {fill:#683D27}
    .fil3 {fill:#C2BFAD}
    .fil5 {fill:#E2E1DD}
    .fil0 {fill:#E2E2DF}
    .fil1 {fill:#FBF7EB}
   ]]>
  </style>
 </defs>
 <g id="Слой_x0020_1">
  <metadata id="CorelCorpID_0Corel-Layer"/>
  <g id="_2726231642880">
   <path class="fil0" d="M65.87 104.74l-0.85 -0.27c-0.86,-0.1 0.12,-0.17 -1.38,-0.07 -8.76,0.6 -10.36,4.17 -17.83,-4.03 -2.92,-3.21 -12.53,-10.89 -13.21,-14.08 -1.07,-1.99 0.49,-0.01 -1.39,-1.24 -8.15,-5.32 -12.55,-10.84 -15.73,-21.35 -4.24,-14.02 0.33,-28.06 9.5,-37.6 3.46,-3.61 7.13,-6.5 11.67,-8.44 11.88,-5.08 20.96,-4.79 32.74,0.02 3.01,1.23 4.08,2.31 6.75,3.66 3.01,-2.66 7.01,-6.7 9.57,-9.38 -2.07,-4.45 -16.31,-9.9 -23.1,-11.11 -27.25,-4.88 -53.96,11.68 -60.83,38.55 -7.32,28.67 8.62,55.1 34.35,64.07 12.03,4.19 18.33,2.1 29.74,1.27z"/>
   <path class="fil1" d="M30.13 73.23c-4.37,-1.54 -8.19,-13.99 -8.03,-20.89 0.58,-26.32 30.71,-38.25 48.81,-24.53l1.91 1.96c11.94,4.95 19.32,39.52 -6.75,51.43 -14.13,6.45 -31.8,0.46 -35.94,-7.97zm2.47 13.06c34.53,20.55 76.75,-18.27 51.9,-55.84 1.17,-2.26 7.09,-7.45 9.14,-9.78l0.39 -0.43c1.08,-6.7 -1.82,-9.12 -8.32,-8.28 -2.56,2.68 -6.56,6.72 -9.57,9.38 -2.67,-1.35 -3.74,-2.43 -6.75,-3.66 -11.78,-4.81 -20.86,-5.1 -32.74,-0.02 -4.54,1.94 -8.21,4.83 -11.67,8.44 -9.17,9.54 -13.74,23.58 -9.5,37.6 3.18,10.51 7.58,16.03 15.73,21.35 1.88,1.23 0.32,-0.75 1.39,1.24z"/>
   <path class="fil2" d="M41.5 49.71c8.97,-5.55 14.53,13.7 5.72,17.54 -9.08,3.96 -15.2,-11.68 -5.72,-17.54zm21.77 0.4c9.27,-2.54 9.51,13.31 0.55,15.53 -10.64,2.64 -9.43,-13.1 -0.55,-15.53zm-12.64 -15.12c4.41,-0.05 6.74,1.46 8.58,3.93 1.75,2.37 2.22,6.74 0.06,8.71 -5.08,4.61 -12.47,-2.23 -12.13,-7.64 -7.32,3.26 -16.12,19.88 -16.21,29.37 -0.03,3.84 0.04,3.1 -0.8,3.87 4.14,8.43 21.81,14.42 35.94,7.97 26.07,-11.91 18.69,-46.48 6.75,-51.43 0.05,0.84 1.27,0.94 -3.67,1.09 -3.69,0.12 -8.84,1.86 -11.99,3.02 -3.33,1.23 -4.35,-0.18 -6.53,1.11z"/>
   <path class="fil3" d="M32.6 86.29c0.68,3.19 10.29,10.87 13.21,14.08 7.47,8.2 9.07,4.63 17.83,4.03 1.5,-0.1 0.52,-0.03 1.38,0.07l0.85 0.27c8.96,-0.77 21.61,-9.58 27.53,-16.9 7.12,-8.82 12.56,-19.3 12.6,-31.17 -0.08,-0.13 -0.14,-0.33 -0.17,-0.44l-0.26 -0.96c-0.02,-0.09 0.52,-3.64 -2.77,-7.12 -1.96,-2.07 -3.21,-3.15 -5.4,-5.5 -1.77,-1.9 -9.35,-8.98 -10.32,-10.74 1.85,-4.16 7.72,-4.84 6.56,-11.24 -2.05,2.33 -7.97,7.52 -9.14,9.78 24.85,37.57 -17.37,76.39 -51.9,55.84z"/>
   <path class="fil4" d="M30.13 73.23c0.84,-0.77 0.77,-0.03 0.8,-3.87 0.09,-9.49 8.89,-26.11 16.21,-29.37 0.63,-3.89 0.85,-3.17 3.49,-5 2.18,-1.29 3.2,0.12 6.53,-1.11 3.15,-1.16 8.3,-2.9 11.99,-3.02 4.94,-0.15 3.72,-0.25 3.67,-1.09l-1.91 -1.96c-18.1,-13.72 -48.23,-1.79 -48.81,24.53 -0.16,6.9 3.66,19.35 8.03,20.89z"/>
   <path class="fil5" d="M93.64 20.67c1.16,6.4 -4.71,7.08 -6.56,11.24 0.97,1.76 8.55,8.84 10.32,10.74 2.19,2.35 3.44,3.43 5.4,5.5 3.29,3.48 2.75,7.03 2.77,7.12l0.26 0.96c0.03,0.11 0.09,0.31 0.17,0.44 -0.6,-9.32 0.05,-12.5 -3.04,-21.34 -1.58,-4.51 -5.62,-13.51 -8.93,-15.09l-0.39 0.43z"/>
   <path class="fil6" d="M41.5 49.71c-9.48,5.86 -3.36,21.5 5.72,17.54 8.81,-3.84 3.25,-23.09 -5.72,-17.54z"/>
   <path class="fil6" d="M63.27 50.11c-8.88,2.43 -10.09,18.17 0.55,15.53 8.96,-2.22 8.72,-18.07 -0.55,-15.53z"/>
   <path class="fil6" d="M47.14 39.99c-0.34,5.41 7.05,12.25 12.13,7.64 2.16,-1.97 1.69,-6.34 -0.06,-8.71 -1.84,-2.47 -4.17,-3.98 -8.58,-3.93 -2.64,1.83 -2.86,1.11 -3.49,5z"/>
  </g>
 </g>
</svg>
