<?xml version="1.0" encoding="UTF-8"?>
<!DOCTYPE svg PUBLIC "-//W3C//DTD SVG 1.1//EN" "http://www.w3.org/Graphics/SVG/1.1/DTD/svg11.dtd">
<!-- Creator: CorelDRAW 2020 (64-Bit) -->
<svg xmlns="http://www.w3.org/2000/svg" xml:space="preserve" width="106px" height="106px" version="1.1" style="shape-rendering:geometricPrecision; text-rendering:geometricPrecision; image-rendering:optimizeQuality; fill-rule:evenodd; clip-rule:evenodd"
viewBox="0 0 106 106"
 xmlns:xlink="http://www.w3.org/1999/xlink"
 xmlns:xodm="http://www.corel.com/coreldraw/odm/2003">
 <defs>
  <style type="text/css">
   <![CDATA[
    .fil4 {fill:#341409}
    .fil2 {fill:#3C180C}
    .fil5 {fill:#9E662C}
    .fil6 {fill:#AC7338}
    .fil7 {fill:#BD7B3B}
    .fil3 {fill:#C2BFAD}
    .fil0 {fill:#E2E2DF}
    .fil1 {fill:#FBF7EB}
   ]]>
  </style>
 </defs>
 <g id="Слой_x0020_1">
  <metadata id="CorelCorpID_0Corel-Layer"/>
  <g id="_2726217578640">
   <path class="fil0" d="M58.25 106c-3.03,-1.86 -5.34,1.36 -9.05,-2.25 -2.04,-2 -3.73,-3.79 -5.72,-5.81 -2.67,-2.72 -10.3,-9.33 -11.37,-11.96l-0.84 -0.69c-3.9,-2.84 -6.56,-4.61 -9.84,-9.09 -9.71,-13.27 -9.58,-32.59 -0.55,-45.51 8.76,-12.53 25.95,-19.78 41.9,-15.45 6.71,1.82 8.69,3.96 13.36,6.16 1.76,-1.67 3.32,-3.35 5.09,-5.18 1.04,-1.08 1.85,-1.64 2.83,-2.7 2.43,-2.63 -0.11,0.28 1.11,-2.06 -2.32,-4.41 -15.9,-9.44 -22.52,-10.61 -26.35,-4.67 -51.84,10.3 -60.13,35.86 -6.31,19.47 0.07,38.33 9.72,50.51 1.8,2.27 6.22,6.28 8.48,7.96 14.13,10.49 21.41,10.14 37.53,10.82z"/>
   <path class="fil1" d="M73.52 29.72c1.43,1.98 2.31,2.18 3.74,4.01 1.01,1.29 2.21,3.19 3.1,4.83 6.7,12.35 3.49,27.31 -5.03,36.25 -10,10.51 -28.08,12.46 -40.59,3.29 -2.17,-1.59 -3.33,-2.06 -4.46,-4.41 -6.66,-3 -15.85,-31.52 4.45,-45.59 12.77,-8.85 27.56,-7.56 38.79,1.62zm-41.41 56.26c17.22,11.11 37.83,5.8 48.98,-6.03 9.77,-10.37 13.44,-24.6 9.1,-38.44 -1.72,-5.46 -3.9,-7.54 -5.67,-11.51l8.81 -8.96c0.09,-0.18 0.29,-0.75 0.35,-0.89 0.04,-0.1 0.13,-0.31 0.18,-0.41 0.3,-0.69 0.22,-0.61 0.54,-1.07 0.01,-7.74 -4.01,-6.38 -9.23,-7.21 -1.22,2.34 1.32,-0.57 -1.11,2.06 -0.98,1.06 -1.79,1.62 -2.83,2.7 -1.77,1.83 -3.33,3.51 -5.09,5.18 -4.67,-2.2 -6.65,-4.34 -13.36,-6.16 -15.95,-4.33 -33.14,2.92 -41.9,15.45 -9.03,12.92 -9.16,32.24 0.55,45.51 3.28,4.48 5.94,6.25 9.84,9.09l0.84 0.69z"/>
   <path class="fil2" d="M41.48 65.08c5.33,-1.51 2.98,6.51 9.52,7.77 -3.23,0.58 -9.89,2 -12.26,0.63 -5.24,-3.04 0.77,-5.8 0.78,-5.81 1.13,-1.11 -0.57,-0.89 1.96,-2.59zm11.88 12.03c-0.68,-3.53 0.55,-2.52 0.38,-4.36 -0.19,-2.08 -1.76,-1.58 0.3,-4.06 3.9,-1.99 4.61,2.06 11.16,0.25l-4.35 5.97c-1.92,2.49 -3.79,3.33 -7.49,2.2zm15.97 -7.95c-1.75,-1.43 0.48,-1.01 -2.86,-3.28 -1.84,-1.25 -2.57,-2.45 -0.76,-4.29 2.93,-2.98 3.81,-0.04 7.25,-6.13 0.25,2.53 3.78,15.43 -3.63,13.7zm7.71 -16.42c-3,0.6 -2.45,-0.58 -4.36,-0.37 -1.27,0.13 -3.16,1.77 -4.34,-0.68 -1.35,-2.82 2.18,-4.75 0.57,-10.78l5.98 4.32c2.49,1.92 3.35,3.82 2.15,7.51zm-9.6 -20.51c3.77,5.79 2.42,2.9 -1.9,7.97 -1.68,1.96 -3.68,1.54 -5.38,-2.14 -1.42,-3.06 -1.37,-3.49 -4.69,-4.58 -0.07,1.64 0.4,0.82 -0.71,1.69l-1.77 -0.07c-0.02,2.12 0.02,1.67 -0.86,3.12l-3.96 -0.31c-0.09,1.68 -1.22,2.57 -4.43,4.67 -5.25,3.42 -1.68,5.16 -5.3,3.58 1.54,1.52 -1.49,-1.41 0.81,0.73 0.08,0.08 0.36,0.55 0.43,0.41 0.08,-0.15 0.32,0.32 0.48,0.48l-4.9 4.93c-0.08,-0.12 -0.31,0.27 -0.46,0.39 7,0.86 0.55,5.08 2.43,12.24 -2.52,-1.29 -2.67,-2.61 -5.78,-3.84 0.83,3.05 -0.07,3.1 -0.46,6.72 -0.22,1.93 0.06,4.56 -0.71,5.47 1.13,2.35 2.29,2.82 4.46,4.41 12.51,9.17 30.59,7.22 40.59,-3.29 8.52,-8.94 11.73,-23.9 5.03,-36.25 -0.89,-1.64 -2.09,-3.54 -3.1,-4.83 -1.43,-1.83 -2.31,-2.03 -3.74,-4.01 -0.95,1.19 -0.23,1.25 -5.26,1.08l-0.82 1.43z"/>
   <path class="fil3" d="M32.11 85.98c1.07,2.63 8.7,9.24 11.37,11.96 1.99,2.02 3.68,3.81 5.72,5.81 3.71,3.61 6.02,0.39 9.05,2.25 13.16,-0.83 24.03,-6.61 32.78,-15.5 8.31,-8.45 14.98,-20.76 14.97,-33.04 -0.41,-0.67 -0.13,0.43 -0.52,-1.41 -0.46,-2.22 0.08,1.34 -0.15,-1.12 -0.1,-1.01 0.06,-1.94 -0.08,-2.99 -0.59,-4.52 -15.04,-14.16 -18.33,-20.12 1.31,-2.09 9.34,-7.72 6.41,-10.78l-8.81 8.96c1.77,3.97 3.95,6.05 5.67,11.51 4.34,13.84 0.67,28.07 -9.1,38.44 -11.15,11.83 -31.76,17.14 -48.98,6.03z"/>
   <path class="fil4" d="M33.48 37.78c3.32,-3.06 3.69,-0.22 4.66,1.1 1.08,1.5 0.83,0.67 1.99,1.65 3.29,2.81 -0.31,4.45 -2.99,5.8 -2.08,1.04 -2.01,1.2 -3.27,2.89l-0.89 1.2c-0.19,-4.23 -2.47,-9.9 0.5,-12.64zm-3.2 35.91c0.77,-0.91 0.49,-3.54 0.71,-5.47 0.39,-3.62 1.29,-3.67 0.46,-6.72 -0.17,-0.35 -0.09,-0.25 -0.6,-0.88 -0.57,-0.7 -0.17,-0.13 -0.82,-0.9 -1.87,-2.2 -2.19,-3.66 -0.41,-6.31 3.93,-0.59 1.68,1.83 5.18,-0.31 0.15,-0.12 0.38,-0.51 0.46,-0.39l4.9 -4.93c-0.16,-0.16 -0.4,-0.63 -0.48,-0.48 -0.07,0.14 -0.35,-0.33 -0.43,-0.41 -2.3,-2.14 0.73,0.79 -0.81,-0.73 3.62,1.58 0.05,-0.16 5.3,-3.58 3.21,-2.1 4.34,-2.99 4.43,-4.67 -2.13,-1.72 -4.67,-1.5 -7.36,-0.68 0.4,-0.77 3.82,-5.48 4.88,-6.67 2.01,-2.28 4.48,-2.85 7.07,-0.92 1.36,2.27 -1.6,1.1 0.23,5.46l1.77 0.07c1.11,-0.87 0.64,-0.05 0.71,-1.69 2.43,-1.28 9.34,-1.37 11.97,-1.25l0.82 -1.43c5.03,0.17 4.31,0.11 5.26,-1.08 -11.23,-9.18 -26.02,-10.47 -38.79,-1.62 -20.3,14.07 -11.11,42.59 -4.45,45.59z"/>
   <path class="fil0" d="M93.33 21.04c2.93,3.06 -5.1,8.69 -6.41,10.78 3.29,5.96 17.74,15.6 18.33,20.12 0.14,1.05 -0.02,1.98 0.08,2.99 0.23,2.46 -0.31,-1.1 0.15,1.12 0.39,1.84 0.11,0.74 0.52,1.41 -0.63,-9.67 0.22,-13.29 -3.1,-22.55 -1.14,-3.18 -2.4,-5.81 -4.08,-8.72 -1.26,-2.18 -4.17,-5.61 -4.42,-7.52 -0.32,0.46 -0.24,0.38 -0.54,1.07 -0.05,0.1 -0.14,0.31 -0.18,0.41 -0.06,0.14 -0.26,0.71 -0.35,0.89z"/>
   <path class="fil5" d="M48.17 37.91l3.96 0.31c0.88,-1.45 0.84,-1 0.86,-3.12 -1.83,-4.36 1.13,-3.19 -0.23,-5.46 -2.59,-1.93 -5.06,-1.36 -7.07,0.92 -1.06,1.19 -4.48,5.9 -4.88,6.67 2.69,-0.82 5.23,-1.04 7.36,0.68z"/>
   <path class="fil6" d="M31.45 61.5c3.11,1.23 3.26,2.55 5.78,3.84 -1.88,-7.16 4.57,-11.38 -2.43,-12.24 -3.5,2.14 -1.25,-0.28 -5.18,0.31 -1.78,2.65 -1.46,4.11 0.41,6.31 0.65,0.77 0.25,0.2 0.82,0.9 0.51,0.63 0.43,0.53 0.6,0.88z"/>
   <path class="fil7" d="M69.33 69.16c7.41,1.73 3.88,-11.17 3.63,-13.7 -3.44,6.09 -4.32,3.15 -7.25,6.13 -1.81,1.84 -1.08,3.04 0.76,4.29 3.34,2.27 1.11,1.85 2.86,3.28z"/>
   <path class="fil5" d="M32.98 50.42l0.89 -1.2c1.26,-1.69 1.19,-1.85 3.27,-2.89 2.68,-1.35 6.28,-2.99 2.99,-5.8 -1.16,-0.98 -0.91,-0.15 -1.99,-1.65 -0.97,-1.32 -1.34,-4.16 -4.66,-1.1 -2.97,2.74 -0.69,8.41 -0.5,12.64z"/>
   <path class="fil7" d="M55.47 33.48c3.32,1.09 3.27,1.52 4.69,4.58 1.7,3.68 3.7,4.1 5.38,2.14 4.32,-5.07 5.67,-2.18 1.9,-7.97 -2.63,-0.12 -9.54,-0.03 -11.97,1.25z"/>
   <path class="fil7" d="M77.04 52.74c1.2,-3.69 0.34,-5.59 -2.15,-7.51l-5.98 -4.32c1.61,6.03 -1.92,7.96 -0.57,10.78 1.18,2.45 3.07,0.81 4.34,0.68 1.91,-0.21 1.36,0.97 4.36,0.37z"/>
   <path class="fil7" d="M41.48 65.08c-2.53,1.7 -0.83,1.48 -1.96,2.59 -0.01,0.01 -6.02,2.77 -0.78,5.81 2.37,1.37 9.03,-0.05 12.26,-0.63 -6.54,-1.26 -4.19,-9.28 -9.52,-7.77z"/>
   <path class="fil7" d="M53.36 77.11c3.7,1.13 5.57,0.29 7.49,-2.2l4.35 -5.97c-6.55,1.81 -7.26,-2.24 -11.16,-0.25 -2.06,2.48 -0.49,1.98 -0.3,4.06 0.17,1.84 -1.06,0.83 -0.38,4.36z"/>
  </g>
 </g>
</svg>
