<?xml version="1.0" encoding="UTF-8"?>
<!DOCTYPE svg PUBLIC "-//W3C//DTD SVG 1.1//EN" "http://www.w3.org/Graphics/SVG/1.1/DTD/svg11.dtd">
<!-- Creator: CorelDRAW 2020 (64-Bit) -->
<svg xmlns="http://www.w3.org/2000/svg" xml:space="preserve" width="106px" height="106px" version="1.1" style="shape-rendering:geometricPrecision; text-rendering:geometricPrecision; image-rendering:optimizeQuality; fill-rule:evenodd; clip-rule:evenodd"
viewBox="0 0 106 106"
 xmlns:xlink="http://www.w3.org/1999/xlink"
 xmlns:xodm="http://www.corel.com/coreldraw/odm/2003">
 <defs>
  <style type="text/css">
   <![CDATA[
    .fil6 {fill:#3A190A}
    .fil5 {fill:#3D190A}
    .fil7 {fill:#492814}
    .fil2 {fill:#C2BFAD}
    .fil4 {fill:#DBC494}
    .fil0 {fill:#E2E2DF}
    .fil10 {fill:#FBE5BB}
    .fil1 {fill:#FBF7EB}
    .fil3 {fill:#FDEABE}
    .fil8 {fill:#FEE5C2}
    .fil9 {fill:#FEE6BD}
   ]]>
  </style>
 </defs>
 <g id="Слой_x0020_1">
  <metadata id="CorelCorpID_0Corel-Layer"/>
  <g id="_2726224475248">
   <path class="fil0" d="M75.19 101.16c-2.89,-0.35 -20.55,8.05 -26.46,2.04 -1.72,-1.75 -15.53,-14.66 -16.18,-17.05 -1.03,-1.94 0.33,-0.16 -1.37,-1.3 -0.33,-0.22 -1.14,-0.58 -1.54,-0.83 -3.63,-2.24 -4.86,-4.05 -7.42,-7.14 -11.85,-14.32 -11.12,-37.1 2.7,-50.82 5.66,-5.62 9.43,-8.64 19.41,-11.12 12.15,-3 22.88,0.96 31.74,6.36l9.63 -9.38c-2.38,-4.71 -17.3,-10.19 -24.83,-11.33 -10.4,-1.58 -21.18,0.1 -29.89,4.18 -49.08,22.99 -36.53,93.34 14.35,100.62 14.75,2.11 20.26,-1.75 29.86,-4.23z"/>
   <path class="fil1" d="M73.74 30.2l0.74 0.55c17.91,15.13 9.65,54.45 -23.36,53.07 -5.39,-0.23 -8.31,-1.6 -12.22,-3.49 -2.69,-1.29 -7.39,-4.32 -9.23,-6.87 -10.67,-13.99 -10.24,-31.17 1.71,-42.76 4.46,-4.32 12.02,-8.45 20.98,-8.6 8.55,-0.15 17.55,3.68 21.38,8.1zm-41.19 55.95c36.59,20.44 71.72,-17.91 55.25,-50.44 -1.25,-2.48 -2.4,-3.33 -3.29,-5.3 1.91,-3.44 6.96,-6.3 9.04,-9.87l0.42 -0.38c1.26,-6.63 -1.98,-8.91 -8.27,-8.24l-9.63 9.38c-8.86,-5.4 -19.59,-9.36 -31.74,-6.36 -9.98,2.48 -13.75,5.5 -19.41,11.12 -13.82,13.72 -14.55,36.5 -2.7,50.82 2.56,3.09 3.79,4.9 7.42,7.14 0.4,0.25 1.21,0.61 1.54,0.83 1.7,1.14 0.34,-0.64 1.37,1.3z"/>
   <path class="fil2" d="M32.55 86.15c0.65,2.39 14.46,15.3 16.18,17.05 5.91,6.01 23.57,-2.39 26.46,-2.04 4.06,-1.42 6.59,-3.08 9.76,-5.38l7.37 -6.68c6.69,-8.5 14.13,-19.23 13.66,-32.32 -1.22,-2.03 -0.41,-2.34 -0.9,-5.04 -0.83,-4.6 -15.34,-15.22 -18.14,-20.12 2.6,-3.2 7.75,-5.46 6.61,-11.08 -2.08,3.57 -7.13,6.43 -9.04,9.87 0.89,1.97 2.04,2.82 3.29,5.3 16.47,32.53 -18.66,70.88 -55.25,50.44z"/>
   <path class="fil3" d="M65.3 31.74l0.22 4.09c10.21,-2.74 4.59,6.13 14.12,8.59 -2.49,3.97 -2.58,2.7 -1.72,8.52 0.67,4.61 -0.92,5.8 -4.75,6.79 2.47,2.1 2.72,5.27 0.13,7.96 -3.08,3.2 -3.65,2.27 -3.9,8.06 -5.1,-1.65 -4.67,-0.8 -8.73,1.19 -4.17,2.05 -5.62,-0.26 -7.7,-2.22 -6.94,7.87 -6.9,-2.02 -16.39,1.05 -0.12,-6.65 -2.02,-5.68 -4.87,-8.82 -1.1,1.08 -0.82,1.11 -1.03,2.99 -0.28,2.47 -0.06,2.55 -1.01,3.52 1.84,2.55 6.54,5.58 9.23,6.87 3.91,1.89 6.83,3.26 12.22,3.49 33.01,1.38 41.27,-37.94 23.36,-53.07l-0.74 -0.55c-2.67,0.72 -6.26,0.08 -8.44,1.54z"/>
   <path class="fil3" d="M53.91 36.39c2.31,3.5 5.88,-0.2 6.51,6.11 5.33,-0.68 4.44,0.65 6.71,3.53 1.23,1.56 2.44,-0.21 1.07,8.92l-2.96 2.06c2.63,3.54 -1.42,8.01 -2.42,8.85 -0.86,0.71 -3.73,1.51 -5.09,1.69 -2.87,0.38 -2.93,-0.32 -4.69,-1.81 -3.4,4.29 -4.8,0.59 -9.71,0.88 -1.4,-4.59 -4.99,-4.16 -2.62,-9.51 -1.02,-0.72 -2.19,-1.54 -2.93,-2.84 -0.12,-0.14 -0.23,-0.58 -0.27,-0.49 -0.04,0.1 -0.2,-0.36 -0.25,-0.48l-0.62 -1.99c-0.03,-0.11 -0.03,-0.34 -0.09,-0.49l-3.05 7.2 4.2 -0.09c-1.56,1.82 -6.55,3.51 -3.65,7.08 1.77,2.17 4.01,2.47 3.9,8.9 6.79,-2.95 8.59,2.05 11.92,0.91 2.66,-1.47 1.68,-2.46 3.1,-5.35 1.65,2.81 0.41,3.34 3.18,5.62 4.94,-0.09 5.71,-3.93 11.88,-1.2 0.05,-7.64 2.94,-6.37 4.84,-10.71 -1.2,-4.42 -2.17,-2.53 -4.59,-5.27 2.53,0.28 4.7,0 6.63,-0.74 0.97,-4 -1.59,-8.85 2.48,-11.44l-2.95 -1.6c-0.59,-0.34 -1.93,-1.46 -2.3,-1.9 -3.42,-4.03 -1.42,-7.55 -9.46,-2.35 1.24,-4.75 2.22,-6.74 -0.84,-6.76 -3.96,-0.34 -4.83,0.89 -8.26,2.21 0.03,-0.06 -0.5,-1.06 -0.03,0.2 0.03,0.08 0.27,0.68 0.36,0.86z"/>
   <path class="fil4" d="M29.67 73.46c0.95,-0.97 0.73,-1.05 1.01,-3.52 0.21,-1.88 -0.07,-1.91 1.03,-2.99 -1.13,-3.28 -1.57,-4.99 1.16,-6.91 -2.93,-1.76 -5.38,-1.54 -4.88,-6.49 0.57,-5.62 1.46,-4.91 -1.62,-9.06 10.53,-3.24 2.99,-11.45 14.07,-8.72 0,-3.94 1.16,-5.74 4.79,-6.32 5.85,-0.94 4.35,-0.67 7.74,-3.99 5.08,5.76 6.57,2.32 12.33,6.28 2.18,-1.46 5.77,-0.82 8.44,-1.54 -3.83,-4.42 -12.83,-8.25 -21.38,-8.1 -8.96,0.15 -16.52,4.28 -20.98,8.6 -11.95,11.59 -12.38,28.77 -1.71,42.76z"/>
   <path class="fil5" d="M33.5 58.02l-2.38 -0.94c-1.2,-4.94 1.91,-7.22 -2.5,-11.42l1.26 -0.68c0.7,-0.35 0.85,-0.32 1.65,-0.8 0.94,-0.56 1.82,-1.47 2.25,-1.98 1.93,-2.22 1.48,-3.1 3.53,-4.89 2.95,0.1 5.31,1.6 6.19,3.06 -0.16,-2.79 -1.59,-2.47 -0.92,-7.11 6.63,-2.52 5.23,-0.17 10.39,-5.38 1.4,1.26 1.76,2.35 3.51,3.28 2.44,1.3 3.78,0.43 5.36,1.96 3.06,0.02 2.08,2.01 0.84,6.76 8.04,-5.2 6.04,-1.68 9.46,2.35 0.37,0.44 1.71,1.56 2.3,1.9l2.95 1.6c-4.07,2.59 -1.51,7.44 -2.48,11.44 -1.93,0.74 -4.1,1.02 -6.63,0.74 2.42,2.74 3.39,0.85 4.59,5.27 -1.9,4.34 -4.79,3.07 -4.84,10.71 -6.17,-2.73 -6.94,1.11 -11.88,1.2 -2.77,-2.28 -1.53,-2.81 -3.18,-5.62 -1.42,2.89 -0.44,3.88 -3.1,5.35 -3.33,1.14 -5.13,-3.86 -11.92,-0.91 0.11,-6.43 -2.13,-6.73 -3.9,-8.9 -2.9,-3.57 2.09,-5.26 3.65,-7.08l-4.2 0.09zm-1.79 8.93c2.85,3.14 4.75,2.17 4.87,8.82 9.49,-3.07 9.45,6.82 16.39,-1.05 2.08,1.96 3.53,4.27 7.7,2.22 4.06,-1.99 3.63,-2.84 8.73,-1.19 0.25,-5.79 0.82,-4.86 3.9,-8.06 2.59,-2.69 2.34,-5.86 -0.13,-7.96 3.83,-0.99 5.42,-2.18 4.75,-6.79 -0.86,-5.82 -0.77,-4.55 1.72,-8.52 -9.53,-2.46 -3.91,-11.33 -14.12,-8.59l-0.22 -4.09c-5.76,-3.96 -7.25,-0.52 -12.33,-6.28 -3.39,3.32 -1.89,3.05 -7.74,3.99 -3.63,0.58 -4.79,2.38 -4.79,6.32 -11.08,-2.73 -3.54,5.48 -14.07,8.72 3.08,4.15 2.19,3.44 1.62,9.06 -0.5,4.95 1.95,4.73 4.88,6.49 -2.73,1.92 -2.29,3.63 -1.16,6.91z"/>
   <path class="fil3" d="M52.97 45.59c0.58,0.38 1.19,0.6 1.82,1.22 1.35,1.31 0.52,1.04 1.22,1.67l4.36 2c-2.86,8.93 -0.86,-2.79 -2.69,8.9l-4.3 -0.76c-0.1,-0.01 -0.28,-0.03 -0.38,-0.02 -0.5,0 -2.82,0.66 -4.68,0.73l-0.39 -4.12c-0.32,-1.55 -0.71,-0.12 -2.3,-4.71 1.2,-0.49 1.12,-0.54 2.24,-1 4.48,-1.84 0.15,-0.2 5.1,-3.91zm-4.88 0.54c-1.54,-0.82 -2.15,-1.46 -4.3,-1.62 -2.16,2.55 -1.62,1.9 -4.41,4.1l1.44 6.21 4.18 0.75c-5.04,5.51 -2.18,0.94 -0.39,9.22l6.77 0.21 1.68 -3.51c0.6,0.91 1.35,2.48 1.86,3.34l6.9 -0.45c0.58,-6.63 4.9,-3.33 -0.74,-8.9l4.25 -0.62c1.15,-6.12 2.36,-6.33 -2.3,-9.68 -2.27,-1.63 -3.18,0.07 -5.11,0.94l0.64 -4.15 -5.59 -3.41c-4.96,3.32 -6.19,1.6 -4.88,7.57z"/>
   <path class="fil6" d="M61.82 64.38l-6.9 0.45c-0.51,-0.86 -1.26,-2.43 -1.86,-3.34l-1.68 3.51 -6.77 -0.21c-1.79,-8.28 -4.65,-3.71 0.39,-9.22l-4.18 -0.75 -1.44 -6.21c2.79,-2.2 2.25,-1.55 4.41,-4.1 2.15,0.16 2.76,0.8 4.3,1.62 -1.31,-5.97 -0.08,-4.25 4.88,-7.57l5.59 3.41 -0.64 4.15c1.93,-0.87 2.84,-2.57 5.11,-0.94 4.66,3.35 3.45,3.56 2.3,9.68l-4.25 0.62c5.64,5.57 1.32,2.27 0.74,8.9zm-24.04 -10.11c0.74,1.3 1.91,2.12 2.93,2.84 -2.37,5.35 1.22,4.92 2.62,9.51 4.91,-0.29 6.31,3.41 9.71,-0.88 1.76,1.49 1.82,2.19 4.69,1.81 1.36,-0.18 4.23,-0.98 5.09,-1.69 1,-0.84 5.05,-5.31 2.42,-8.85l2.96 -2.06c1.37,-9.13 0.16,-7.36 -1.07,-8.92 -2.27,-2.88 -1.38,-4.21 -6.71,-3.53 -0.63,-6.31 -4.2,-2.61 -6.51,-6.11 -7.77,1.91 -8.02,2.56 -8.21,6.37 -3.18,-0.54 -3.99,-0.33 -5.48,1.62 -3.57,4.66 -2.92,1.95 -2.44,9.89z"/>
   <path class="fil4" d="M33.5 58.02l3.05 -7.2c0.06,0.15 0.06,0.38 0.09,0.49l0.62 1.99c0.05,0.12 0.21,0.58 0.25,0.48 0.04,-0.09 0.15,0.35 0.27,0.49 -0.48,-7.94 -1.13,-5.23 2.44,-9.89 1.49,-1.95 2.3,-2.16 5.48,-1.62 0.19,-3.81 0.44,-4.46 8.21,-6.37 -0.09,-0.18 -0.33,-0.78 -0.36,-0.86 -0.47,-1.26 0.06,-0.26 0.03,-0.2 3.43,-1.32 4.3,-2.55 8.26,-2.21 -1.58,-1.53 -2.92,-0.66 -5.36,-1.96 -1.75,-0.93 -2.11,-2.02 -3.51,-3.28 -5.16,5.21 -3.76,2.86 -10.39,5.38 -0.67,4.64 0.76,4.32 0.92,7.11 -0.88,-1.46 -3.24,-2.96 -6.19,-3.06 -2.05,1.79 -1.6,2.67 -3.53,4.89 -0.43,0.51 -1.31,1.42 -2.25,1.98 -0.8,0.48 -0.95,0.45 -1.65,0.8l-1.26 0.68c4.41,4.2 1.3,6.48 2.5,11.42l2.38 0.94z"/>
   <path class="fil0" d="M93.55 20.54c1.14,5.62 -4.01,7.88 -6.61,11.08 2.8,4.9 17.31,15.52 18.14,20.12 0.49,2.7 -0.32,3.01 0.9,5.04 -0.98,-12.94 -0.6,-21.18 -9.16,-33.7l-2.85 -2.92 -0.42 0.38z"/>
   <path class="fil7" d="M49.51 57.65c-0.25,-2.53 0.85,-2.81 3.02,-3.72 -0.56,3.22 -0.21,3.83 -3.02,3.72zm3.98 -3.76c2.35,1.01 3.28,1.06 3,3.84 -3,-0.08 -2.49,-0.53 -3,-3.84zm0.46 -0.8c0.7,-1.24 0.01,-0.5 0.88,-1.39 0.04,-0.04 1,-0.8 1.08,-0.84 2.06,-0.93 5.38,2.62 -1.96,2.23zm-1.9 0.01c-6.12,0.45 -4.53,-2.55 -2.87,-2.52 2.38,0.04 2.86,2.52 2.87,2.52zm0.92 -1.19c-2.11,-2.8 -1.19,-5.79 1.49,-3.11 -0.1,0.38 -0.2,1.04 -0.4,1.49 -0.67,1.54 -0.78,1.26 -1.09,1.62zm-7.34 -1.41c1.59,4.59 1.98,3.16 2.3,4.71l0.39 4.12c1.86,-0.07 4.18,-0.73 4.68,-0.73 0.1,-0.01 0.28,0.01 0.38,0.02l4.3 0.76c1.83,-11.69 -0.17,0.03 2.69,-8.9l-4.36 -2c-0.7,-0.63 0.13,-0.36 -1.22,-1.67 -0.63,-0.62 -1.24,-0.84 -1.82,-1.22 -4.95,3.71 -0.62,2.07 -5.1,3.91 -1.12,0.46 -1.04,0.51 -2.24,1z"/>
   <path class="fil8" d="M49.18 50.58c-1.66,-0.03 -3.25,2.97 2.87,2.52 -0.01,0 -0.49,-2.48 -2.87,-2.52z"/>
   <path class="fil9" d="M56.49 57.73c0.28,-2.78 -0.65,-2.83 -3,-3.84 0.51,3.31 0,3.76 3,3.84z"/>
   <path class="fil8" d="M53.95 53.09c7.34,0.39 4.02,-3.16 1.96,-2.23 -0.08,0.04 -1.04,0.8 -1.08,0.84 -0.87,0.89 -0.18,0.15 -0.88,1.39z"/>
   <path class="fil10" d="M49.51 57.65c2.81,0.11 2.46,-0.5 3.02,-3.72 -2.17,0.91 -3.27,1.19 -3.02,3.72z"/>
   <path class="fil8" d="M52.97 51.91c0.31,-0.36 0.42,-0.08 1.09,-1.62 0.2,-0.45 0.3,-1.11 0.4,-1.49 -2.68,-2.68 -3.6,0.31 -1.49,3.11z"/>
  </g>
 </g>
</svg>
