<?xml version="1.0" encoding="UTF-8"?>
<!DOCTYPE svg PUBLIC "-//W3C//DTD SVG 1.1//EN" "http://www.w3.org/Graphics/SVG/1.1/DTD/svg11.dtd">
<!-- Creator: CorelDRAW 2020 (64-Bit) -->
<svg xmlns="http://www.w3.org/2000/svg" xml:space="preserve" width="106px" height="106px" version="1.1" style="shape-rendering:geometricPrecision; text-rendering:geometricPrecision; image-rendering:optimizeQuality; fill-rule:evenodd; clip-rule:evenodd"
viewBox="0 0 106 106"
 xmlns:xlink="http://www.w3.org/1999/xlink"
 xmlns:xodm="http://www.corel.com/coreldraw/odm/2003">
 <defs>
  <style type="text/css">
   <![CDATA[
    .fil9 {fill:#6A4527}
    .fil8 {fill:#705434}
    .fil10 {fill:#734832}
    .fil4 {fill:#754229}
    .fil7 {fill:#774529}
    .fil5 {fill:#AC7338}
    .fil3 {fill:#C2BFAD}
    .fil0 {fill:#E2E2DF}
    .fil6 {fill:#FBF6EB}
    .fil2 {fill:#FBF7EB}
    .fil1 {fill:#FDEABE}
   ]]>
  </style>
 </defs>
 <g id="Слой_x0020_1">
  <metadata id="CorelCorpID_0Corel-Layer"/>
  <g id="_2726230001136">
   <path class="fil0" d="M65.27 104.8c-1.69,-0.98 -6.58,0.79 -11.56,0.63 -5.02,-0.17 -14.14,-11.38 -18.11,-15.35 -0.51,-0.51 -1.55,-1.44 -1.9,-1.85 -2.08,-2.44 -1.1,-1.03 -0.51,-1.67 -1.77,-2.9 -3.76,-0.86 -9.1,-7.45l-1.71 -1.99c-0.95,-1.12 -1.88,-2.64 -2.96,-4.33 -8.14,-12.72 -6.52,-30.89 2.03,-42.77 3.09,-4.3 11.09,-11.62 16.13,-12.25 -0.3,-2.34 -0.68,-2.95 -0.18,-5.18 2.66,-1.01 4.1,-1.08 6.79,-0.53 0.95,1.58 0.63,3.28 0.55,5.27 -0.07,1.88 -0.02,3.6 0.08,5.47 1.93,1.37 0.64,0.21 1.1,-0.19l-0.09 -7.66c1.77,-0.36 3.31,-0.88 4.66,-0.13 3.71,-5.57 -3.17,-12.67 9.71,-9.12l-2.42 9.03c8.15,-0.42 13.44,5 18.44,6.64 2.69,-2.68 6.6,-7.25 9.76,-9.36 -3.89,-5.09 -14.83,-9.45 -23.25,-11.02 -55.75,-10.42 -87.86,64.05 -38,96.93 3.23,2.13 6.97,3.97 11.09,5.34 13.91,4.63 18.02,2.13 29.45,1.54z"/>
   <path class="fil1" d="M47.17 70.31c0.69,0.97 0.68,-0.96 0.41,1.01 -0.26,1.96 0.06,0.31 -0.53,1.12 -2.49,-1.18 -1.59,-1.55 0.12,-2.13zm8.56 1.59c-1.71,-0.57 -2.69,0.02 -0.78,-2.12 1.55,0.74 1.48,0.26 0.78,2.12zm10.5 -4.18c-1.15,1.49 0.19,1.12 -1.6,0.75l-0.08 -1.57c2.06,-0.31 0.63,-0.73 1.68,0.82zm-9.38 -7.11c2.2,-1.09 0.81,0.09 1.37,0.43 -0.31,0.56 -1.11,3.09 -1.82,0.46 -0.48,-1.76 -0.07,-0.64 0.45,-0.89zm-6.69 -1.28c-1.85,0.73 -2.15,0.38 -2.22,-1.5 0.69,-0.43 0.86,-1.85 2.27,-0.54 1.42,1.33 0,1.95 -0.05,2.04zm21.05 -3.36c-0.49,1.83 0.01,0.31 -1.06,0.8 -1.31,-1.49 -1.25,-1.37 0.52,-2.17 0.86,0.95 1.14,-0.88 0.54,1.37zm-18.03 -2.13c2.11,-0.3 0.01,-0.29 1.02,0.37 -0.58,1.83 -0.96,2.89 -2.15,0.15 0.92,-0.64 -0.93,-0.23 1.13,-0.52zm-9.88 -0.78c-0.66,1.76 -0.01,2.51 -2.07,0.7 0.32,-2.07 0.87,-1.2 2.07,-0.7zm-6.88 -1.44c-1.71,0.27 -0.66,0.5 -2.11,-0.56l1.64 -1.31c0.87,1.21 0.67,0.06 0.47,1.87zm35.98 -2.81c0.28,2.98 0.57,-0.6 -0.65,1.03l-1.46 -0.94c0.14,-1.6 1.93,-2.18 2.11,-0.09zm-9.42 -0.99c0.51,-0.56 0.76,-3.62 2.2,0.04 -1.66,0.82 -0.85,0.69 -2.2,-0.04zm-2.92 -1.99c-1.73,-0.53 -2.68,-0.05 -0.86,-2.13 1.57,0.71 1.52,0.13 0.86,2.13zm-24.39 -2.04c-0.85,-1.22 -0.7,-0.16 -0.34,-1.74 1.56,-0.46 3.1,0.86 0.34,1.74zm26.42 -5.81c-2.41,1.71 -1.63,1.04 -2.16,-0.8 1.78,-1.33 1.53,-0.77 2.16,0.8zm-22.67 -7.04c-1.23,-1.55 -0.3,-1.63 -2.32,-2.2 -3.45,7.87 -4.56,2.06 -6.37,6.88 -1.45,3.85 0.26,1.48 -2.58,4.16 -2.32,2.19 -0.95,1.74 -1.5,4.84 -0.61,3.48 -1.94,1.98 -1.96,4.85 -0.01,2.4 1.21,1.77 0.5,4.94 -0.82,3.68 -1.21,1.73 0.56,4.85 2.04,3.56 0.26,2.84 1.22,5.57 0.66,1.88 2.1,1.64 3.06,3.5 1.26,2.41 -0.3,2.83 2.31,4.38 2.77,1.65 1.76,-0.28 3.77,2.89 1.94,3.05 0.4,1.52 4.21,2.41 3.6,0.83 1.77,1.57 4.18,2.56 2.25,0.91 2.37,-0.6 5.31,0.14 2.97,0.75 1.24,1.96 5.28,0.57 4.14,-1.43 2.07,-0.31 5.39,-0.46 2.76,-0.13 1.89,-1.44 3.97,-2.42 2.46,-1.14 3.17,0.29 4.94,-1.73 1.73,-1.99 -0.04,-1.95 3.23,-3.44 3.37,-1.54 2.01,0.08 3.16,-3.56 1.24,-3.94 1.17,-1.42 2.9,-3.79 1.9,-2.61 0.06,-2.61 1.2,-5.49 0.91,-2.31 2.13,-1.22 1.58,-4.55 -0.59,-3.54 -1.11,-0.84 -0.14,-4.93 0.87,-3.65 0.1,-2.14 -1.2,-4.66 -1.4,-2.7 0.18,-3.02 -1.11,-5.51 -1.13,-2.18 -1.9,-0.52 -3.08,-3.65 -1.14,-3.02 0.35,-2.37 -2.82,-3.91 -3.33,-1.61 -1.43,-0.42 -3.5,-3.18 -1.83,-2.43 -1.71,-0.79 -4.69,-1.91 -2.52,-0.94 -1.46,-2.15 -4.02,-2.54 -2.15,-0.32 -2.34,0.89 -5.23,-0.02 -1.34,3.81 -0.95,14.65 -4.64,15.93 -6.41,2.22 -2.07,-11.67 -1.88,-15.62l-4.13 -0.67c-0.27,6.08 3.09,21.72 -0.4,25.06 -4.84,0.35 -4.09,-3.64 -4.47,-7.94 -0.34,-3.71 -1.13,-7.62 -0.73,-11.35z"/>
   <path class="fil2" d="M57.78 14.73l-1.84 7.52c36.23,5.05 36.88,53.27 4.16,60.95 -17.41,4.08 -31.07,-6.84 -35.88,-18.81 -6.96,-17.27 3.53,-33.17 14.38,-38.6l-1.02 -8.02c-5.04,0.63 -13.04,7.95 -16.13,12.25 -8.55,11.88 -10.17,30.05 -2.03,42.77 1.08,1.69 2.01,3.21 2.96,4.33l1.71 1.99c5.34,6.59 7.33,4.55 9.1,7.45 12.84,6.72 25.63,7.7 39.12,0.34 15.17,-8.27 23.49,-27.85 17.97,-45.31 -0.68,-2.17 -1.48,-4.08 -2.46,-6.05 -1.55,-3.11 -2.18,-2.75 -3.25,-5.45l8.77 -9.02c0.1,-0.17 0.29,-0.72 0.35,-0.86 0.05,-0.12 0.13,-0.33 0.18,-0.45 0.33,-0.79 0.04,-0.38 0.61,-1.34 -0.17,-5.42 -2.99,-6.91 -8.5,-6.41 -3.16,2.11 -7.07,6.68 -9.76,9.36 -5,-1.64 -10.29,-7.06 -18.44,-6.64z"/>
   <path class="fil3" d="M33.19 86.56c-0.59,0.64 -1.57,-0.77 0.51,1.67 0.35,0.41 1.39,1.34 1.9,1.85 3.97,3.97 13.09,15.18 18.11,15.35 4.98,0.16 9.87,-1.61 11.56,-0.63 13.23,-2.73 25.17,-11.27 32.46,-22.31 4.08,-6.17 8.09,-16.53 8.27,-24.77 -1.79,-3.29 1.4,-4.96 -2.4,-8.86l-14.04 -13.89c-1.5,-1.43 -1.64,-1.26 -2.56,-3.06 1.33,-2.11 9.28,-7.81 6.34,-10.84l-8.77 9.02c1.07,2.7 1.7,2.34 3.25,5.45 0.98,1.97 1.78,3.88 2.46,6.05 5.52,17.46 -2.8,37.04 -17.97,45.31 -13.49,7.36 -26.28,6.38 -39.12,-0.34z"/>
   <path class="fil4" d="M50.49 14.82c0.3,2.35 -0.07,5.54 -0.99,7.66l-3.58 0.13c-0.46,0.4 0.83,1.56 -1.1,0.19 -0.1,-1.87 -0.15,-3.59 -0.08,-5.47 0.08,-1.99 0.4,-3.69 -0.55,-5.27 -2.69,-0.55 -4.13,-0.48 -6.79,0.53 -0.5,2.23 -0.12,2.84 0.18,5.18l1.02 8.02c-0.2,3.8 1.23,1.83 0.82,5.15 -0.4,3.73 0.39,7.64 0.73,11.35 0.38,4.3 -0.37,8.29 4.47,7.94 3.49,-3.34 0.13,-18.98 0.4,-25.06l4.13 0.67c-0.19,3.95 -4.53,17.84 1.88,15.62 3.69,-1.28 3.3,-12.12 4.64,-15.93l0.27 -3.28 1.84 -7.52 2.42 -9.03c-12.88,-3.55 -6,3.55 -9.71,9.12z"/>
   <path class="fil5" d="M55.67 25.53c2.89,0.91 3.08,-0.3 5.23,0.02 2.56,0.39 1.5,1.6 4.02,2.54 2.98,1.12 2.86,-0.52 4.69,1.91 2.07,2.76 0.17,1.57 3.5,3.18 3.17,1.54 1.68,0.89 2.82,3.91 1.18,3.13 1.95,1.47 3.08,3.65 1.29,2.49 -0.29,2.81 1.11,5.51 1.3,2.52 2.07,1.01 1.2,4.66 -0.97,4.09 -0.45,1.39 0.14,4.93 0.55,3.33 -0.67,2.24 -1.58,4.55 -1.14,2.88 0.7,2.88 -1.2,5.49 -1.73,2.37 -1.66,-0.15 -2.9,3.79 -1.15,3.64 0.21,2.02 -3.16,3.56 -3.27,1.49 -1.5,1.45 -3.23,3.44 -1.77,2.02 -2.48,0.59 -4.94,1.73 -2.08,0.98 -1.21,2.29 -3.97,2.42 -3.32,0.15 -1.25,-0.97 -5.39,0.46 -4.04,1.39 -2.31,0.18 -5.28,-0.57 -2.94,-0.74 -3.06,0.77 -5.31,-0.14 -2.41,-0.99 -0.58,-1.73 -4.18,-2.56 -3.81,-0.89 -2.27,0.64 -4.21,-2.41 -2.01,-3.17 -1,-1.24 -3.77,-2.89 -2.61,-1.55 -1.05,-1.97 -2.31,-4.38 -0.96,-1.86 -2.4,-1.62 -3.06,-3.5 -0.96,-2.73 0.82,-2.01 -1.22,-5.57 -1.77,-3.12 -1.38,-1.17 -0.56,-4.85 0.71,-3.17 -0.51,-2.54 -0.5,-4.94 0.02,-2.87 1.35,-1.37 1.96,-4.85 0.55,-3.1 -0.82,-2.65 1.5,-4.84 2.84,-2.68 1.13,-0.31 2.58,-4.16 1.81,-4.82 2.92,0.99 6.37,-6.88 2.02,0.57 1.09,0.65 2.32,2.2 0.41,-3.32 -1.02,-1.35 -0.82,-5.15 -10.85,5.43 -21.34,21.33 -14.38,38.6 4.81,11.97 18.47,22.89 35.88,18.81 32.72,-7.68 32.07,-55.9 -4.16,-60.95l-0.27 3.28z"/>
   <path class="fil0" d="M93.34 21.07c2.94,3.03 -5.01,8.73 -6.34,10.84 0.92,1.8 1.06,1.63 2.56,3.06l14.04 13.89c3.8,3.9 0.61,5.57 2.4,8.86 -0.65,-9.79 0.28,-12.56 -2.92,-22.24 -1.08,-3.27 -2.4,-5.85 -4,-8.76 -1.44,-2.63 -4.44,-5.71 -4.6,-8.3 -0.57,0.96 -0.28,0.55 -0.61,1.34 -0.05,0.12 -0.13,0.33 -0.18,0.45 -0.06,0.14 -0.25,0.69 -0.35,0.86z"/>
   <path class="fil6" d="M45.92 22.61l3.58 -0.13c0.92,-2.12 1.29,-5.31 0.99,-7.66 -1.35,-0.75 -2.89,-0.23 -4.66,0.13l0.09 7.66z"/>
   <path class="fil7" d="M47.94 57.83c0.07,1.88 0.37,2.23 2.22,1.5 0.05,-0.09 1.47,-0.71 0.05,-2.04 -1.41,-1.31 -1.58,0.11 -2.27,0.54z"/>
   <path class="fil8" d="M59.93 37.18c0.53,1.84 -0.25,2.51 2.16,0.8 -0.63,-1.57 -0.38,-2.13 -2.16,-0.8z"/>
   <path class="fil7" d="M70.29 48.9l1.46 0.94c1.22,-1.63 0.93,1.95 0.65,-1.03 -0.18,-2.09 -1.97,-1.51 -2.11,0.09z"/>
   <path class="fil8" d="M70.15 56.77c1.07,-0.49 0.57,1.03 1.06,-0.8 0.6,-2.25 0.32,-0.42 -0.54,-1.37 -1.77,0.8 -1.83,0.68 -0.52,2.17z"/>
   <path class="fil9" d="M58.22 61.04c-0.56,-0.34 0.83,-1.52 -1.37,-0.43 -0.52,0.25 -0.93,-0.87 -0.45,0.89 0.71,2.63 1.51,0.1 1.82,-0.46z"/>
   <path class="fil7" d="M60.06 45.83c0.66,-2 0.71,-1.42 -0.86,-2.13 -1.82,2.08 -0.87,1.6 0.86,2.13z"/>
   <path class="fil10" d="M52.05 54.36c1.19,2.74 1.57,1.68 2.15,-0.15 -1.01,-0.66 1.09,-0.67 -1.02,-0.37 -2.06,0.29 -0.21,-0.12 -1.13,0.52z"/>
   <path class="fil8" d="M41.23 53.76c2.06,1.81 1.41,1.06 2.07,-0.7 -1.2,-0.5 -1.75,-1.37 -2.07,0.7z"/>
   <path class="fil7" d="M55.73 71.9c0.7,-1.86 0.77,-1.38 -0.78,-2.12 -1.91,2.14 -0.93,1.55 0.78,2.12z"/>
   <path class="fil9" d="M62.98 47.82c1.35,0.73 0.54,0.86 2.2,0.04 -1.44,-3.66 -1.69,-0.6 -2.2,-0.04z"/>
   <path class="fil9" d="M47.58 71.32c0.27,-1.97 0.28,-0.04 -0.41,-1.01 -1.71,0.58 -2.61,0.95 -0.12,2.13 0.59,-0.81 0.27,0.84 0.53,-1.12z"/>
   <path class="fil10" d="M34.31 51.06c1.45,1.06 0.4,0.83 2.11,0.56 0.2,-1.81 0.4,-0.66 -0.47,-1.87l-1.64 1.31z"/>
   <path class="fil8" d="M35.33 42.05c-0.36,1.58 -0.51,0.52 0.34,1.74 2.76,-0.88 1.22,-2.2 -0.34,-1.74z"/>
   <path class="fil8" d="M64.55 66.9l0.08 1.57c1.79,0.37 0.45,0.74 1.6,-0.75 -1.05,-1.55 0.38,-1.13 -1.68,-0.82z"/>
  </g>
 </g>
</svg>
