<?xml version="1.0" encoding="utf-8"?>
<!-- Generator: Adobe Illustrator 15.1.0, SVG Export Plug-In . SVG Version: 6.00 Build 0)  -->
<!DOCTYPE svg PUBLIC "-//W3C//DTD SVG 1.1//EN" "http://www.w3.org/Graphics/SVG/1.1/DTD/svg11.dtd">
<svg version="1.1" id="Слой_1" xmlns:xodm="http://www.corel.com/coreldraw/odm/2003"
	 xmlns="http://www.w3.org/2000/svg" xmlns:xlink="http://www.w3.org/1999/xlink" x="0px" y="0px" width="196px" height="162px"
	 viewBox="0 -11.5 196 162" enable-background="new 0 -11.5 196 162" xml:space="preserve">
<g id="Слой_x0020_1">
	<g id="_2726388552992">
		<path fill="#A47B52" d="M150.141,109.811c-0.281-0.48-0.351-0.09-0.721-1.5c-0.59-2.281-0.16-4.371,0.37-6.681
			c0.61-2.69,1.45-5.55,2.069-7.84C152.66,94.99,158.689,111.68,150.141,109.811z M155.48,92.3c1.319,0.86,15.52,7.979,11.26,12.13
			c-3.631,1.57-5.23-1.6-6.73-3.84L155.48,92.3z M136.189,103.02c0.15-4.619,8.681-9.399,12.551-10.59
			C148.25,93.87,141.99,107.09,136.189,103.02z M150.41,86.51c4.449-2.83,6.72,3.17,3.54,5.23c-1.47,0.949-3.24,0.699-4.29-0.67
			C147.66,88.471,149.34,87.189,150.41,86.51z M156.891,89.029c2.539-0.84,6.619-1.889,9.31-2.199c4.71-0.54,7.149-0.1,7.079,4.359
			C168.91,92.859,161,91.41,156.891,89.029z M130.76,88.2c1.84-4.32,13.5-0.46,16.6,0.899c-1.909,0.84-6.449,1.82-8.76,2.131
			C134.45,91.79,132.05,91.73,130.76,88.2L130.76,88.2z M155.52,85.83c1.101-2.65,8.121-15.051,12.061-11.061
			C170.971,78.189,158.52,84.66,155.52,85.83z M137.63,73.391c2.341-0.201,0.89-0.65,3.04,0.399c2.53,1.239,7.25,9.66,8.23,12.08
			C143.43,83.09,135.13,79.07,137.63,73.391L137.63,73.391z M152.141,84.41c-0.861-2.25-1.961-6.65-2.271-9.061
			c-0.54-4.209-0.511-6.629,3.409-7.28C156.99,71.21,154.21,80.609,152.141,84.41z M148.391,79.48
			c-0.15-0.141-0.351-0.58-0.42-0.461l-0.791-0.89c-6.369-7.75-14.369-17.22-26.449-19.32c2.41,9.18,14.16,22.48,22.34,26.299
			c-7.141-0.299-25.92-3.279-34.521,4.5c3.091,2.641,10.681,3.801,15.431,4.261c7.869,0.76,12.039-0.591,19.049-1.17
			c-8.26,4.03-18.85,17.02-21.639,27.19c5.26-0.281,12.189-6.15,15.25-8.621c3.92-3.14,8.289-8.17,11.51-13.1
			c-1.34,10.74-2.24,26.18,4.42,33.98c1.67-1.78,2.3-4.83,2.92-7.15c3.539-13.33,0.51-17.48,0.359-27.18
			c1.44,5.8,16.92,19.64,27.78,21.619c-2.95-9.09-10.72-18-18.271-23.41c-0.619-0.449-1.18-0.84-1.639-1.209l-2.07-1.801
			c12.06,1.931,24.939,1.551,34.35-4.25c-6.62-6.06-25.09-4.42-34.26-3.35c10.619-9.439,14.81-10.1,21.15-27.2
			c-6.631,0.25-16.66,9.91-21.021,14.49c-2.47,2.601-3.66,4.71-5.681,7.069C157.75,62.97,157.99,60.45,152.07,45.8
			c-0.94,0.79-0.41,0.15-1.131,1.25c-0.479,0.73-0.609,1.1-0.939,1.96C146.12,59.46,146.84,68.98,148.391,79.48L148.391,79.48z"/>
		<path fill="#A7AD0A" d="M1.19,39.35c1.58,4.28,2.82,10.88,5.75,13.61c1.39-0.8,4.43-0.47,6.13-0.34l8.62,10.17
			c-4.21,0.62-8.29-1.21-10.93,0.22l1.61,3.59c1.65-1.81-0.67-0.76,2.84-0.83c2.57-0.06,2.37,0.82,9.28,0.08
			c2.7,3.32,6.77,7.49,9.81,10.97c-4.37,2.24-11.36,2.39-16.37,2.5l2.14,4.17c0-1.85,6.51-1.51,8.31-1.801
			c2.33-0.369,7.1-2.09,8.18-1.859c1.9,0.43,8.56,8.26,9.74,9.99c-3.03,0.97-7.25,1.99-10.5,2.65c-5.67,1.159-7.96,0.01-9.87,1.829
			c0.65,2.38-0.38,1.15,1.69,2.62c2.94-0.71,7.46-1.08,10.81-1.71c14.38-2.71,7.54-5.22,15.28,1.771c1.9,1.709,3.3,3.22,4.06,4.68
			c-7.43,2.25-12.84,3.54-20.84,5.369l0.29,0.441c-0.78-0.891-1.17,0.439-1.77,0.939l1.7,1.52c1.1-0.119,3.41-0.3,3.63-0.34
			c7.95-1.199,14.69-4.39,20.37-5.74c1.35,2.57,7.88,8.291,10.49,9.25c1.05-4.55,0.71-2.05-0.85-4.07l-7.64-7.219
			c0.31-0.971,0.59-1.851,1.13-2.971c0.42-0.88,0.22-0.59,0.79-1.42c0.66-0.949,0.33-0.59,1.13-1.32l-2.21-3.039l-3.2,5.789
			c-2.68-1.32-6.6-6.42-9.64-8.97c0.59-4.06,2.17-7.3,2.99-11.601l1.56-9.77c1.13-5.16,0.01-2.82,1.32-2.21
			c-1.17-2.39-1.57-2.02-3.94-3.26c-0.44,6.04-1.69,19.04-5,23.26c-0.22-0.21-1.53-1.35-2.21-2.05c-11.82-11.98-5.43-4.83-4-23.38
			c0.35-4.55-0.42-3.35,1.04-4.63c-1.41-1.97-1.32-1.56-3.85-2.42c-1.56,3.98,0.47,12.57-3.12,19.55
			c-1.66-0.761-8.05-8.41-9.42-10.37c0.76-2,1.6-4.01,2.25-6.52c0.48-1.84,0.57-2.39,0.83-4.14c0.4-2.6-0.11-1.69,0.69-3.21
			c-1.57-1.76-0.35-0.91-2.92-1.67c-1.43,3.57-1.25,8.9-3.53,12.95c-0.05-1.25-8.2-9.27-9-9.67l2.02-8.07
			c-0.15-0.13-0.38-0.5-0.46-0.36l-7.36-3.55C6.1,37.49,3.06,36.06,0,35.22L1.19,39.35z"/>
		<path fill="#B7B929" d="M60.81,48.78c3.72,3.01,4.58,0.56,5.83,4.81c0.72,2.47,1.31,6.51,2.19,7.52
			c-3.44,0.37-1.71-1.65-7.81-3.04c0.72,8.76,5.39,3.67,8.77,8.31c0.21,0.29,2.91,9.979,3.02,10.979
			c-2.67-0.729-4.59-2.639-6.28-3.739l-5.5-3.24c-0.07-0.239-0.33-0.21-0.49-0.319l0.4,4.01c2.47,2.959,8.3,5.449,11.48,7.369
			c3.46,2.09,5.19,11.84,4.94,12.66c-0.66-0.77-12.6-6.02-15.23-9.189l1.76,5.619c1.16,0.721,2.12,1.361,3,1.99
			c0.38,0.26,0.01,0.141,1.2,0.82c0.47,0.27,0.96,0.45,1.43,0.67c7.84,3.711,12.91,5.27,12.13,11.67l3.57-0.57
			c0.92-2.379,1.87-0.319-0.03-1.879c0.45-1.03,0.42-1.07,0.4-1.17l-2.52-5.19c3.23-1.72,0.93-0.97,3.96-3.12
			c3.75-2.66-3.24,2.04,0.89-0.561c4.01-2.52,5.41-4.25,8.22-7.6l-1.09-2.32l-0.6,1.601c0.39-0.3,2.44,1-0.7-2.81
			c-1.6,3.68-8.69,9.229-12.1,10.85l-4.04-12.23c7.79-4.109,5.78-3.17,9.67-7.289l2.34-1.73c0.66-0.5,0.41-0.391,1.44-1.15
			c-0.16-0.279-0.94-1.69-0.99-1.76l-1.44-1.76c-2.41,2.38-1.2,2.359-5.35,5.31l-6.69,4.771c-2.34-12.521-5.48-9.98,0.16-14.57
			l4.47-4.2c0.1-0.14,0.21-0.32,0.3-0.45l0.91-1.39c-0.85-2.14-0.33-1.43-2.49-2.67c-1.89,1.68-4.41,5.93-7.56,7.09L69.37,50.3
			c2.92-1.74,0.61-0.4,2.36-1.96c1.54-1.38,0.14-0.77,2.92-1.94l-5.84-6.71c-1.11-1.32-5.77-5.83-7.05-6.57L60.81,48.78L60.81,48.78
			z"/>
		<path fill="#603714" d="M75.37,111.471l-4.32,3.829c7.15,6.89,7.75,8.15,17.16,14.62c1.14,0.78,5.14,2.82,5.58,4.24
			c10.94,4.38,8.01,14.01,16.739,11.65c0.891-3.211,0.681-3.601-1.27-5.641c-9.289-9.74-16.43-21.91-22.06-34.57l-1.98-0.49
			l-3.57,0.57l-0.75-0.05c2.05,5.61,6.61,12.64,7.87,17.091C84.22,120.25,79.09,114.609,75.37,111.471L75.37,111.471z"/>
		<path fill="#99A40A" d="M37.15,109.93c3.09,2.85,8.66,6.07,14.47,7.43c10.27,2.42,11.44,0.16,19.43-2.06l4.32-3.829
			c0.19-3.08,1.66-2.591,1.74-6.061c-0.5-1.08-4.44-3.18-6.02-4.439c-2.67-2.15-3.25-3.23-4.89-4.871
			c-0.8,0.73-0.47,0.371-1.13,1.32c-0.57,0.83-0.37,0.54-0.79,1.42c-0.54,1.12-0.82,2-1.13,2.971l7.64,7.219
			c1.56,2.021,1.9-0.479,0.85,4.07c-2.61-0.959-9.14-6.68-10.49-9.25c-5.68,1.351-12.42,4.541-20.37,5.74
			C40.56,109.63,38.25,109.811,37.15,109.93L37.15,109.93z"/>
		<path fill="#99A40A" d="M53.08,63.04c-0.51-1.39-0.35-0.73-1.75-1.79c-2.42-1.83-5.51-4.52-8.42-5.01
			c-1.46,1.28-0.69,0.08-1.04,4.63c-1.43,18.55-7.82,11.399,4,23.38c0.68,0.7,1.99,1.84,2.21,2.05
			C51.39,82.08,52.64,69.08,53.08,63.04z"/>
		<path fill="#99A40A" d="M27.62,96.92c0.46,3.141,6,9.74,7.83,11.49c0.6-0.5,0.99-1.83,1.77-0.939l-0.29-0.441
			c8-1.829,13.41-3.119,20.84-5.369c-0.76-1.46-2.16-2.971-4.06-4.68c-7.74-6.99-0.9-4.48-15.28-1.771
			C35.08,95.84,30.56,96.21,27.62,96.92z"/>
		<path fill="#99A40A" d="M63.99,93.061l-0.1-2.531l-1.76-5.619l-1.19-10.84l-0.4-4.01c-0.15-1.531,0.19,0.149-0.32-0.931
			c-0.04-0.09-0.28-0.25-0.31-0.53c-0.05-0.33-0.27-0.4-0.4-0.6c-1.11-1.88-0.88-1.21-2.49-1.7c-1.31-0.61-0.19-2.95-1.32,2.21
			l-1.56,9.77c-0.82,4.301-2.4,7.541-2.99,11.601c3.04,2.55,6.96,7.649,9.64,8.97L63.99,93.061L63.99,93.061z"/>
		<path fill="#99A40A" d="M20.07,83.49c1.06,3.029,3.88,9.32,5.86,10.81c1.91-1.819,4.2-0.67,9.87-1.829
			c3.25-0.66,7.47-1.681,10.5-2.65c-1.18-1.73-7.84-9.561-9.74-9.99c-1.08-0.23-5.85,1.49-8.18,1.859
			C26.58,81.98,20.07,81.641,20.07,83.49L20.07,83.49z"/>
		<path fill="#AEB325" d="M95.05,83.27c0.63-4.27-2.35-9.01-3.99-12.76c-1.03,0.76-0.78,0.65-1.44,1.15l-2.34,1.73
			c-3.89,4.119-1.88,3.18-9.67,7.289l4.04,12.23c3.41-1.62,10.5-7.17,12.1-10.85c3.14,3.81,1.09,2.51,0.7,2.81L95.05,83.27z"/>
		<path fill="#99A40A" d="M17.93,79.32c5.01-0.11,12-0.26,16.37-2.5c-3.04-3.48-7.11-7.65-9.81-10.97
			c-6.91,0.74-6.71-0.14-9.28-0.08c-3.51,0.07-1.19-0.98-2.84,0.83L17.93,79.32L17.93,79.32z"/>
		<path fill="#99A40A" d="M39.06,53.82c-1.16-1.72-6.25-4.42-8.77-4.69c-0.8,1.52-0.29,0.61-0.69,3.21
			c-0.26,1.75-0.35,2.3-0.83,4.14C28.12,58.99,27.28,61,26.52,63c1.37,1.96,7.76,9.609,9.42,10.37
			C39.53,66.39,37.5,57.8,39.06,53.82z"/>
		<path fill="#AEB325" d="M88.63,66.99c-0.12-2.46-4.31-8.58-6.2-10.53l-0.91,1.39c-0.09,0.13-0.2,0.31-0.3,0.45l-4.47,4.2
			c-5.64,4.59-2.5,2.05-0.16,14.57l6.69-4.771C87.43,69.35,86.22,69.37,88.63,66.99L88.63,66.99z"/>
		<path fill="#AEB325" d="M59.51,68c0.13,0.2,0.35,0.27,0.4,0.6c0.03,0.28,0.27,0.44,0.31,0.53c0.51,1.08,0.17-0.6,0.32,0.931
			c0.16,0.109,0.42,0.08,0.49,0.319l5.5,3.24c1.69,1.101,3.61,3.01,6.28,3.739c-0.11-1-2.81-10.689-3.02-10.979
			c-3.38-4.64-8.05,0.45-8.77-8.31c6.1,1.39,4.37,3.41,7.81,3.04c-0.88-1.01-1.47-5.05-2.19-7.52c-1.25-4.25-2.11-1.8-5.83-4.81
			L60.56,65.8C60.05,68.2,61.14,66.63,59.51,68z"/>
		<path fill="#AEB325" d="M62.13,84.91c2.63,3.17,14.57,8.42,15.23,9.189c0.25-0.82-1.48-10.57-4.94-12.66
			c-3.18-1.92-9.01-4.41-11.48-7.369L62.13,84.91z"/>
		<path fill="#F8EBE2" d="M29.52,15.91L30,17.43l-7.31-0.82c2.05,4.53,6.32,4.45,4.7,7.16c-0.5,3.18-1.11,3.29-1.54,6.28
			c3.58-1.52,3.26-3.56,6.52-5.18c2.43,1.84,3.33,4.28,5.62,5.71c-0.54-3.67-1.81-5.12-1.95-9.06l6.46-2.14
			c-0.77-0.59-0.27-0.37-1.61-0.84c-0.74-0.25-0.98-0.3-1.74-0.42c-1.09-0.17-2.83-0.19-3.97-0.25c-0.68-2.15-1.04-4.93-2.81-6.37
			C30.85,14.02,31.73,13.79,29.52,15.91L29.52,15.91z"/>
		<path fill="#99A40A" d="M27.37,47.46c-1.23-1.57-8.4-4.64-10.51-4.79l-2.02,8.07c0.8,0.4,8.95,8.42,9,9.67
			C26.12,56.36,25.94,51.03,27.37,47.46z"/>
		<path fill="#AEB325" d="M85.22,105.109l1.98,0.49c2.47-3.33,10.02-4.55,8.94-20.01c-2.81,3.35-4.21,5.08-8.22,7.6
			c-4.13,2.601,2.86-2.1-0.89,0.561c-3.03,2.15-0.73,1.4-3.96,3.12l2.52,5.19c0.02,0.1,0.05,0.14-0.4,1.17
			C87.09,104.79,86.14,102.73,85.22,105.109z"/>
		<path fill="#F5ECE4" d="M135.37,136.74l-6.83-0.08c1.58,1.84,3.86,1.79,6.42,3.609l-2.351,9.49c2.291-1.289,3.24-4.07,5.42-5.63
			l5.441,6.37c0.129-2.78-1.73-6.05-2.141-9.71l6.3-1.66c-0.26-0.39-0.54-0.729-0.64-0.56l-5.78-1.37
			c-1.899-1.261-0.569-0.431-1.51-2.73l-2.011-3.069L135.37,136.74z"/>
		<path fill="#AEB325" d="M63.99,93.061L66.2,96.1c1.64,1.641,2.22,2.721,4.89,4.871c1.58,1.26,5.52,3.359,6.02,4.439l3.79,0.22
			l0.75,0.05c0.78-6.4-4.29-7.959-12.13-11.67c-0.47-0.22-0.96-0.4-1.43-0.67c-1.19-0.68-0.82-0.56-1.2-0.82
			c-0.88-0.629-1.84-1.27-3-1.989L63.99,93.061z"/>
		<path fill="#99A40A" d="M10.76,63.01c2.64-1.43,6.72,0.4,10.93-0.22l-8.62-10.17c-1.7-0.13-4.74-0.46-6.13,0.34
			C6.97,55.13,9.5,62.14,10.76,63.01z"/>
		<path fill="#AEB325" d="M79.94,53.79c-0.31-1.79,0.2-0.17-0.73-1.78c-0.03-0.04-1.37-1.86-1.5-2.03
			c-1.34-1.57-1.81-1.79-3.06-3.58c-2.78,1.17-1.38,0.56-2.92,1.94c-1.75,1.56,0.56,0.22-2.36,1.96l3.01,10.58
			C75.53,59.72,78.05,55.47,79.94,53.79z"/>
		<path fill="#603714" d="M152.141,84.41c2.069-3.801,4.85-13.2,1.139-16.34c-3.92,0.65-3.949,3.071-3.409,7.28
			C150.18,77.76,151.279,82.16,152.141,84.41z"/>
		<path fill="#603714" d="M156.891,89.029c4.109,2.381,12.02,3.83,16.389,2.16c0.07-4.459-2.369-4.899-7.079-4.359
			C163.51,87.141,159.43,88.189,156.891,89.029z"/>
		<path fill="#623A16" d="M150.141,109.811c8.549,1.869,2.52-14.82,1.719-16.021c-0.619,2.29-1.459,5.149-2.069,7.84
			c-0.53,2.31-0.96,4.399-0.37,6.681C149.79,109.721,149.859,109.33,150.141,109.811z"/>
		<path fill="#603714" d="M148.9,85.87c-0.98-2.42-5.7-10.841-8.23-12.08c-2.15-1.05-0.699-0.601-3.04-0.399
			C135.13,79.07,143.43,83.09,148.9,85.87L148.9,85.87z"/>
		<path fill="#633A13" d="M130.76,88.2c1.29,3.53,3.69,3.59,7.84,3.03c2.311-0.311,6.851-1.291,8.76-2.131
			C144.26,87.74,132.6,83.88,130.76,88.2L130.76,88.2z"/>
		<path fill="#603714" d="M155.52,85.83c3-1.17,15.451-7.641,12.061-11.061C163.641,70.779,156.62,83.18,155.52,85.83z"/>
		<path fill="#603714" d="M136.189,103.02c5.801,4.07,12.061-9.149,12.551-10.59C144.87,93.62,136.34,98.4,136.189,103.02z"/>
		<path fill="#603714" d="M155.48,92.3l4.529,8.29c1.5,2.24,3.1,5.41,6.73,3.84C171,100.279,156.8,93.16,155.48,92.3z"/>
		<path fill="#633A13" d="M150.02,88.9c1.541-2.891,5.371-2.75,3.631,1.709C149.859,91.98,151.65,90.38,150.02,88.9z M150.41,86.51
			c-1.07,0.68-2.75,1.961-0.75,4.561c1.05,1.369,2.82,1.619,4.29,0.67C157.13,89.68,154.859,83.68,150.41,86.51z"/>
		<path fill="#A47B52" d="M150.02,88.9c1.631,1.479-0.16,3.08,3.631,1.709C155.391,86.15,151.561,86.01,150.02,88.9z"/>
	</g>
</g>
</svg>
