<?xml version="1.0" encoding="utf-8"?>
<!-- Generator: Adobe Illustrator 15.1.0, SVG Export Plug-In . SVG Version: 6.00 Build 0)  -->
<!DOCTYPE svg PUBLIC "-//W3C//DTD SVG 1.1//EN" "http://www.w3.org/Graphics/SVG/1.1/DTD/svg11.dtd">
<svg version="1.1" id="Слой_1" xmlns:xodm="http://www.corel.com/coreldraw/odm/2003"
	 xmlns="http://www.w3.org/2000/svg" xmlns:xlink="http://www.w3.org/1999/xlink" x="0px" y="0px" width="168px" height="162px"
	 viewBox="0 -18.5 168 162" enable-background="new 0 -18.5 168 162" xml:space="preserve">
<g id="Слой_x0020_1">
	<g id="_2726423437280">
		<path fill="#603714" d="M31.3,94.16c1.25,0.5,0.52-0.311,0.67,2.199l0.64,21.23c0.43,7.891,1.02,17.33,0.9,25.12
			c2.92,0.74,6.14,0.62,9.15,0.38c0.64-10.38,0.52-32.35,0.54-44.449c0.01-13.551-1.01-12.32,2.68-13.091l-0.68,57.83
			c4.31-0.04,8.63-0.08,12.93-0.17c2.06-0.05,4.12-0.069,6.18-0.09c4.7-0.05,4.24,0.26,5.54-0.96c-5.67,0-10.01,0.17-15.55,0.561
			c1.68-4.871,1.85-27.951,2.14-35.721l0.23-9.529c0.31-3.07-0.77-1.441,1.02-2.591c-3.26-5.2-3.55-7.34-9.65-9.56l-3.91-0.08
			C37.21,86.03,33.24,88.939,31.3,94.16z"/>
		<path fill="#FEDB74" d="M118.529,68.471l-2.739,1.459c1.37,5.1,9.13,17.65,11.67,24.19c-3.17,0.42-14.399-0.53-18.92-0.71
			c-0.69-0.03-2.55-0.15-3.13-0.1c-1.61,0.14-0.41-0.391-1.87,0.609l0.03,4.141l23.24,1.739c-4.051,3.521-15.221,9.75-19.131,12.761
			c0.24,1.789,0.891,2.52,2.11,3.899c3.97-1.319,15.05-9.89,17.51-10.75c-0.87,3.729-5.521,13.931-6.64,17.44
			c-0.71,2.229-1.1,1.529,0.23,3.199l2.26,0.59l1.649-0.14c0.16-2.29,2.66-7.61,3.61-10.18c0.689-1.87,1.32-3.28,1.939-5.16
			l2.07-4.681c0.051-0.069,0.16-0.229,0.25-0.34c1.9,3.07,3.891,7.301,5.689,10.561l4.271,8.05c1.11,1.96,0.591,1.66,3.229,1.73
			l2.361-1.33c-0.511-2.37-4.871-9.65-6.041-11.64c-1.359-2.33-5.58-9.721-6.27-12.5l26.83,4.199l0.039-3.05l-0.399-1.76l-23.979-4
			c0.529-1.25,13.189-10.03,16.07-12.04c4.049-2.85,4.649-2.01,4.909-4.1c-0.37-1.761-0.51-2.221-2.021-3.381
			c-3.1,1.34-12.83,8.541-16.449,11.301c-1.24,0.939-3.99,3.119-5.189,3.27c0.25-8.391,5.239-17.08,7.02-24.55L137.6,66.02
			c0.101,2.301,0.271,1.041-0.64,3.381c-3.01,7.689-5.46,19.029-5.97,20.14l-5.53-10.44c-1.16-2.289-4.8-8.57-4.97-10.859
			L118.529,68.471L118.529,68.471z"/>
		<path fill="#FBC509" d="M103.54,93.92c0.71-5.34,1.88-10.23,3.86-14.25c2.379-4.84,4.77-6.199,8.39-9.74l2.739-1.459
			c4.49-3.051,13.32-3.451,19.07-2.451l5.141,1.181c5.97,2,12.43,5.55,14.619,9.979c1.511,1.16,1.65,1.62,2.021,3.381
			c2.96,2.629,5.86,17.719,3.399,21.899l-0.039,3.05c-2.19,5.34-2.23,7.52-5.25,11.75c-2.59,3.631-4.82,5.43-9.27,8.19l-2.361,1.329
			c-5.719,2.441-16.709,3.641-22.709,0.16l-2.26-0.59c-2.17-1.42-4.631-2.89-6.211-4.129c-1.5-1.19-4.25-4.121-4.89-5.761
			c-1.22-1.38-1.87-2.11-2.11-3.899c-2.959-2.84-3.869-9.971-4.109-14.5L103.54,93.92L103.54,93.92z M98.85,102.59
			c6.131,44.54,73.93,41.65,68.881-9.97c-2.16-22.08-19.25-32.82-39.561-31.34C105.54,62.92,96.32,84.21,98.85,102.59z"/>
		<path fill="#F7D8BC" d="M8.26,83.16c-0.6-1.23-0.87-5.23,2.06-5.48c0.5,1.811,0.43,1.32-0.12,3.37
			C9.4,83.971,10.03,82.77,8.26,83.16z M14.46,68.59c-2.18,0.02-4.9-0.32-5.49-2.33c1.38-1.05,1.36-0.789,3.31-0.16
			C14.8,66.92,14.24,66.529,14.46,68.59z M19.51,58.45c2.44,0.04,4.9,1.36,4.89,3.83c-2.26,0.19-1.3,0.2-3.18-1.14
			C19.88,60.19,19.63,60.47,19.51,58.45z M28.07,53.92c0.52-1.56,0.6-1.51,2.71-2.15c2.18-0.66,2.06-0.76,2.97,0.54
			C32.92,54.09,29.81,54.96,28.07,53.92z M37.38,43.66c-1.33,2.18-4.52,3.65-7.17,4.8c-2.53,1.11-5.52,2.13-8.25,3.01
			C-6.91,60.79-1.41,87.26,5.59,91.88c1.11-1.479,1.36-2.42,3.34-3.75c1.58-1.069,3.6-1.58,5.81-2.021l1.83-0.119
			c-0.96-2.16-0.95-2.211-0.12-4.87c0.32-1.04,0.82-2.29,1.2-3.229c2.24-5.621,7.87-12.16,12.39-16.17l2.52-2.58
			c1.14-1.44,0.94-1.22,2.11-2.3c1.51-1.4,3.22-3.66,4.28-5.17c4.41-6.25,3.73-7.29,3.54-13.89c-0.89,1.13-1.34,2.12-2.25,3.43
			c-0.51,0.72-0.77,1.11-1.24,1.53C37.59,43.98,38.71,43.29,37.38,43.66z"/>
		<path fill="#5C3513" d="M21.71,143.5l8.97-0.029c1-4.291-0.1-19.301-0.39-24.75c-0.22-4.211-0.13-8.111-0.34-12.281
			c-0.11-2.14-1.18-11.489-0.04-12.279c-1.64-5.33-5.32-7.83-12.12-8.16l-1.22-0.01l-1.83,0.119l6.24,49.65
			C21.29,138.061,22.1,141.23,21.71,143.5L21.71,143.5z"/>
		<path fill="#F6D6BA" d="M29.79,85.641c-0.08-1.681,0.36-1.681,1.99-2.031c3.42-0.719,3.27,0.25,3.61,0.511
			c-0.8,1.39,0.15,1.101-2.55,1.54C31.08,85.95,31.47,85.96,29.79,85.641z M29.92,72.971c0.18-1.4,0.12-0.551,0.75-1.361
			c1.54,0.98,1.15,0.211,1.57,2.58C32.56,76,32.56,75.57,32.3,77.29C30.13,77.16,29.63,75.13,29.92,72.971z M41.61,65.3
			c-0.79,2.15-4.93,1.57-5.82-0.159c0.7-0.67-1.12-0.461,1.6-0.871C39.05,64.02,40.64,64.6,41.61,65.3z M45.81,57.44
			c-1.77-0.53-2.27-1.07-1.73-5.75C47.62,52.22,46.44,56.38,45.81,57.44z M17.79,86c6.8,0.33,10.48,2.83,12.12,8.16
			c1.18,0.79,0.16,0.64,1.39,0c1.94-5.221,5.91-8.131,12.83-8.92c0.78-2.461,0.35-0.02,0.16-2.98c-0.07-1.09-0.17-2.02-0.16-3.16
			c0.03-1.97,0.24-3.689,0.57-5.6c0.84-4.83,8.57-24.44,0.71-30.52c-0.39,5.09-3.26,9.34-5.77,12.09L27.19,68.92
			c-1.46,1.33-0.92,0.4-2.3,2.24c-5.02,6.699-6.8,14.5-6.89,14.311C17.96,85.391,17.86,85.82,17.79,86L17.79,86z"/>
		<path fill="#F6D6BA" d="M56.03,84.52c-2.69-1.299-1.53-0.24-1.94-2.08c1.63-0.859,1.81-0.529,3.6,0.4
			c2.03,1.07,1.98,0.24,1.35,2.68C57.66,85.4,57.25,85.109,56.03,84.52z M51.97,70.33c0.69,0.29,4.66,3.3,2.24,5.21
			C53.71,75.27,49.91,72.5,51.97,70.33z M57.08,68.5c-0.14-2.529,1.81-4.59,4.33-4.41C61.44,66.359,59.42,68.45,57.08,68.5
			L57.08,68.5z M55.32,58.27c-0.73-1.5-0.53-1.17,0.07-3.05c0.88-2.82,0.51-2.14,2.18-2.37c0.72,1.48,0.48,1.4-0.15,3.22
			C56.64,58.29,57.26,57.92,55.32,58.27z M48.04,85.32c6.1,2.22,6.39,4.359,9.65,9.56c0.44,0.74-0.12,1.32,0.83,0.19
			c1.02-1.24,1.61-2.35,2.53-3.59c0.75-1.021,2.35-2.701,3.42-3.391c-1.68-9.15,4.55-17.55,0.19-27.77
			c-2.24-5.26-11.51-15.95-15.23-17.24c1.06,5.62,4.54,9,0.76,20.71C47.64,71.71,45.27,76.27,48.04,85.32z"/>
		<path fill="#F5D8BB" d="M73.56,71.59c-2-0.779-2.21-0.58-2.53-2.66c0.7-0.3,4.38,0.08,5.52,2.35
			C75.52,72.52,75.83,72.48,73.56,71.59z M71.47,61.79c0.23-2.45,4.04-1.68,5.75-1.31c-0.32,1.79,0.46,1.75-2.23,1.91
			C73.24,62.49,72.69,62.42,71.47,61.79z M62.98,48.22c1.12-0.01,4.55,1.33,3.87,4.4c-1.89,0.12-1.72-0.38-2.91-1.64
			C62.51,49.45,62.29,50.1,62.98,48.22z M66.2,87.16l5.95-0.93l2.79,0.39c1.04,0.771,2.18,1.25,2.94,1.8
			c1.52,1.1,1.79,1.721,3.19,2.67c7.581-12.89,3.47-25.949-5.89-36.25l-1.16-1.78c-2.08-1.05-1.23-0.71-3.03-2.41
			c-4.4-4.14-17.74-11.49-22.83-12.21c1.26,0.76,4.26,3.06,5.38,3.91c0.79,0.59,1.53,1.33,2.32,2.17
			c6.1,6.47,15.09,13.55,12.87,27.33L66.2,87.16z"/>
		<path fill="#603714" d="M5.59,91.88c-1.08,7.479,2.57,18.56,4.45,26.149c0.63,2.58,5.14,23.111,6.62,25.451l5.05,0.02
			c0.39-2.27-0.42-5.439-0.73-7.74l-6.24-49.65c-2.21,0.44-4.23,0.951-5.81,2.021C6.95,89.46,6.7,90.4,5.59,91.88z"/>
		<path fill="#603714" d="M69.76,141.811c0.1-0.121,0.22-0.291,0.28-0.391l3.88-10.92c2.92-9.6,9.93-27.9,8.88-36.34l-1.73-3.07
			c-1.4-0.949-1.67-1.57-3.19-2.67c-0.76-0.55-1.9-1.029-2.94-1.8c-2.4,9.38-3.98,17.92-6.09,27.68
			c-1.31,6.03-3.53,23.771-5.15,27.7c2.32,0.83,3.44,0.57,5.98,0.311L69.76,141.811L69.76,141.811z"/>
		<path fill="#EBCBB2" d="M42.49,37.78c0.19,6.6,0.87,7.64-3.54,13.89c-1.06,1.51-2.77,3.77-4.28,5.17
			c-1.17,1.08-0.97,0.86-2.11,2.3l-2.52,2.58c-4.52,4.01-10.15,10.549-12.39,16.17c-0.38,0.939-0.88,2.189-1.2,3.229
			c-0.83,2.659-0.84,2.71,0.12,4.87L17.79,86c0.07-0.18,0.17-0.609,0.21-0.529c0.09,0.189,1.87-7.611,6.89-14.311
			c1.38-1.84,0.84-0.91,2.3-2.24l12.45-13.85c2.51-2.75,5.38-7,5.77-12.09c7.86,6.08,0.13,25.69-0.71,30.52
			c-0.33,1.91-0.54,3.63-0.57,5.6c-0.01,1.141,0.09,2.07,0.16,3.16c0.19,2.961,0.62,0.52-0.16,2.98l3.91,0.08
			c-2.77-9.051-0.4-13.61,2.15-21.53c3.78-11.71,0.3-15.09-0.76-20.71c3.72,1.29,12.99,11.98,15.23,17.24
			c4.36,10.22-1.87,18.62-0.19,27.77l1.73-0.93l2.53-15.311c2.22-13.78-6.77-20.859-12.87-27.33c-0.79-0.84-1.53-1.58-2.32-2.17
			c-1.12-0.85-4.12-3.15-5.38-3.91c-0.74-0.74-0.72-0.41-1.7-1.45l-3.45-0.58L42.49,37.78z"/>
		<path fill="#603714" d="M66.2,87.16l-1.73,0.93c-1.07,0.689-2.67,2.37-3.42,3.391c-0.92,1.24-1.51,2.35-2.53,3.59
			c1.05,1.34,0.57,0,0.69,2.42l-0.33,9.39c-0.07,3.96-0.2,7.841-0.39,11.841c-0.38,8.079-0.69,15.84-1.34,23.93
			c4.78-0.021,4.28,0.229,4.88-4.4c1.61-12.34,5.08-25.85,6.98-37.17c0.82-4.88,2.41-9.609,3.14-14.85L66.2,87.16z"/>
		<path fill="#FFD243" d="M148.221,125.45c4.449-2.761,6.68-4.56,9.27-8.19c3.02-4.23,3.06-6.41,5.25-11.75l-26.83-4.199
			c0.689,2.779,4.91,10.17,6.27,12.5C143.35,115.8,147.71,123.08,148.221,125.45z"/>
		<path fill="#FFD243" d="M103.54,93.92c1.46-1,0.26-0.47,1.87-0.609c0.58-0.051,2.439,0.069,3.13,0.1
			c4.521,0.18,15.75,1.13,18.92,0.71c-2.54-6.54-10.3-19.091-11.67-24.19c-3.62,3.541-6.011,4.9-8.39,9.74
			C105.42,83.689,104.25,88.58,103.54,93.92z"/>
		<path fill="#FED141" d="M162.779,102.46c2.461-4.181-0.439-19.271-3.399-21.899c-0.26,2.09-0.86,1.25-4.909,4.1
			c-2.881,2.01-15.541,10.79-16.07,12.04l23.979,4L162.779,102.46L162.779,102.46z"/>
		<path fill="#4C290C" d="M31.3,94.16c-1.23,0.64-0.21,0.79-1.39,0c-1.14,0.79-0.07,10.14,0.04,12.279
			c0.21,4.17,0.12,8.07,0.34,12.281c0.29,5.449,1.39,20.459,0.39,24.75l14.52-0.091l0.68-57.83c-3.69,0.771-2.67-0.46-2.68,13.091
			c-0.02,12.1,0.1,34.069-0.54,44.449c-3.01,0.24-6.23,0.36-9.15-0.38c0.12-7.79-0.47-17.229-0.9-25.12l-0.64-21.23
			C31.82,93.85,32.55,94.66,31.3,94.16z"/>
		<path fill="#4C290C" d="M58.52,95.07c-0.95,1.13-0.39,0.55-0.83-0.19c-1.79,1.149-0.71-0.479-1.02,2.591L56.44,107
			c-0.29,7.77-0.46,30.85-2.14,35.721c5.54-0.391,9.88-0.561,15.55-0.561l-0.09-0.35l-0.08,0.5c-2.54,0.26-3.66,0.52-5.98-0.311
			c1.62-3.93,3.84-21.67,5.15-27.7c2.11-9.76,3.69-18.3,6.09-27.68l-2.79-0.39c-0.73,5.24-2.32,9.97-3.14,14.85
			c-1.9,11.32-5.37,24.83-6.98,37.17c-0.6,4.63-0.1,4.38-4.88,4.4c0.65-8.09,0.96-15.851,1.34-23.93c0.19-4,0.32-7.881,0.39-11.841
			l0.33-9.39C59.09,95.07,59.57,96.41,58.52,95.07z"/>
		<path fill="#FFD243" d="M157.359,77.18c-2.189-4.43-8.649-7.979-14.619-9.979c-1.78,7.47-6.77,16.159-7.02,24.55
			c1.199-0.15,3.949-2.33,5.189-3.27C144.529,85.721,154.26,78.52,157.359,77.18z"/>
		<path fill="#FFD243" d="M123.15,126.939c6,3.48,16.99,2.281,22.709-0.16c-2.639-0.069-2.119,0.23-3.229-1.729l-4.271-8.05
			c-1.799-3.26-3.789-7.49-5.689-10.561c-0.09,0.11-0.199,0.271-0.25,0.34l-2.07,4.681c-0.619,1.88-1.25,3.29-1.939,5.16
			c-0.95,2.569-3.45,7.89-3.61,10.18L123.15,126.939L123.15,126.939z"/>
		<path fill="#FFD243" d="M118.529,68.471l1.961-0.23c0.17,2.289,3.81,8.57,4.97,10.859l5.53,10.44c0.51-1.11,2.96-12.45,5.97-20.14
			c0.91-2.34,0.74-1.08,0.64-3.381C131.85,65.02,123.02,65.42,118.529,68.471z"/>
		<path fill="#FFD243" d="M107.68,112.561c3.91-3.011,15.08-9.24,19.131-12.761l-23.24-1.739
			C103.811,102.59,104.721,109.721,107.68,112.561z"/>
		<path fill="#FFD243" d="M109.79,116.46c0.64,1.64,3.39,4.569,4.89,5.761c1.58,1.239,4.041,2.709,6.211,4.129
			c-1.33-1.67-0.94-0.97-0.23-3.199c1.119-3.51,5.77-13.711,6.64-17.44C124.84,106.57,113.76,115.141,109.79,116.46L109.79,116.46z"
			/>
		<path fill="#F8EBE2" d="M64.9,23.11l-2.49,0.5c1.08,0.2,5.24,2.75,6.15,3.58l-0.95,3.91c0.49,0.79-1.09,4.49,3.46-2.69
			c3.15,2.42,1.52,2.61,4.66,3.98c-0.46-2.29-1.59-3.84-1.68-5.57l4.87-1.81c-1.64-1.05-2.97-0.66-5.35-0.99
			c-0.95-1.32-0.49-0.92-1.05-2.63l-1.5-2.89c-1.96,2.29-0.88,3.03-2.8,5.45C66.15,23.86,66.32,24.11,64.9,23.11z"/>
		<path fill="#BADBDD" d="M45.81,57.44c0.63-1.06,1.81-5.22-1.73-5.75C43.54,56.37,44.04,56.91,45.81,57.44z"/>
		<path fill="#B5DADD" d="M54.09,82.439c0.41,1.84-0.75,0.781,1.94,2.08c1.22,0.59,1.63,0.881,3.01,1
			c0.63-2.439,0.68-1.609-1.35-2.68C55.9,81.91,55.72,81.58,54.09,82.439z"/>
		<path fill="#F06524" d="M28.07,53.92c1.74,1.04,4.85,0.17,5.68-1.61c-0.91-1.3-0.79-1.2-2.97-0.54
			C28.67,52.41,28.59,52.36,28.07,53.92z"/>
		<path fill="#F26423" d="M57.08,68.5c2.34-0.05,4.36-2.141,4.33-4.41C58.89,63.91,56.94,65.971,57.08,68.5z"/>
		<path fill="#A7AD0A" d="M71.47,61.79c1.22,0.63,1.77,0.7,3.52,0.6c2.69-0.16,1.91-0.12,2.23-1.91
			C75.51,60.11,71.7,59.34,71.47,61.79z"/>
		<path fill="#FAC609" d="M71.03,68.93c0.32,2.08,0.53,1.881,2.53,2.66c2.27,0.891,1.96,0.93,2.99-0.311
			C75.41,69.01,71.73,68.63,71.03,68.93z"/>
		<path fill="#FBC509" d="M55.32,58.27c1.94-0.35,1.32,0.02,2.1-2.2c0.63-1.82,0.87-1.74,0.15-3.22c-1.67,0.23-1.3-0.45-2.18,2.37
			C54.79,57.1,54.59,56.77,55.32,58.27z"/>
		<path fill="#F06524" d="M32.3,77.29c0.26-1.72,0.26-1.29-0.06-3.101c-0.42-2.369-0.03-1.6-1.57-2.58
			c-0.63,0.811-0.57-0.039-0.75,1.361C29.63,75.13,30.13,77.16,32.3,77.29z"/>
		<path fill="#FBC509" d="M8.97,66.26c0.59,2.01,3.31,2.35,5.49,2.33c-0.22-2.061,0.34-1.67-2.18-2.49
			C10.33,65.471,10.35,65.21,8.97,66.26z"/>
		<path fill="#A7AD0A" d="M8.26,83.16c1.77-0.391,1.14,0.811,1.94-2.11c0.55-2.05,0.62-1.56,0.12-3.37
			C7.39,77.93,7.66,81.93,8.26,83.16z"/>
		<path fill="#ED6423" d="M66.85,52.62c0.68-3.07-2.75-4.41-3.87-4.4c-0.69,1.88-0.47,1.23,0.96,2.76
			C65.13,52.24,64.96,52.74,66.85,52.62z"/>
		<path fill="#B5DADD" d="M24.4,62.28c0.01-2.47-2.45-3.79-4.89-3.83c0.12,2.02,0.37,1.74,1.71,2.69
			C23.1,62.48,22.14,62.47,24.4,62.28z"/>
		<path fill="#FAC609" d="M29.79,85.641c1.68,0.319,1.29,0.31,3.05,0.02c2.7-0.439,1.75-0.15,2.55-1.54
			c-0.34-0.261-0.19-1.229-3.61-0.511C30.15,83.96,29.71,83.96,29.79,85.641L29.79,85.641z"/>
		<path fill="#A7AD0A" d="M54.21,75.54c2.42-1.91-1.55-4.92-2.24-5.21C49.91,72.5,53.71,75.27,54.21,75.54z"/>
		<path fill="#ABB10B" d="M35.79,65.141c0.89,1.729,5.03,2.31,5.82,0.159c-0.97-0.7-2.56-1.28-4.22-1.03
			C34.67,64.68,36.49,64.471,35.79,65.141z"/>
	</g>
</g>
</svg>
