<?xml version="1.0" encoding="utf-8"?>
<!-- Generator: Adobe Illustrator 15.1.0, SVG Export Plug-In . SVG Version: 6.00 Build 0)  -->
<!DOCTYPE svg PUBLIC "-//W3C//DTD SVG 1.1//EN" "http://www.w3.org/Graphics/SVG/1.1/DTD/svg11.dtd">
<svg version="1.1" id="Слой_1" xmlns:xodm="http://www.corel.com/coreldraw/odm/2003"
	 xmlns="http://www.w3.org/2000/svg" xmlns:xlink="http://www.w3.org/1999/xlink" x="0px" y="0px" width="165px" height="162px"
	 viewBox="0 -8.5 165 162" enable-background="new 0 -8.5 165 162" xml:space="preserve">
<g id="Слой_x0020_1">
	<g id="_2726382730352">
		<path fill="#FBC509" d="M116.3,106.69c-0.021-1.529,1.05-20.35,1.05-20.35c1.061-2.369,6.211-2.279,8.83-1.67
			c2.811,0.67,5.381,2.551,6.62,4.16C138.08,95.711,134.92,113.36,116.3,106.69z M103,54.321c-9.891,5.08-25.55,8.51-38.21,8.49
			c-9.64-0.02-30.63-3.34-37.19-8.2c-2.63-0.64-4.17-1.5-6.37-2.76c-2.8-1.59-3.53-2.56-5.5-1.69c0.57,5.73-1.41,20.66-1.76,27.77
			c-1.28,26.561-1.23,51.471,21.87,66.711c12.73,8.399,31.92,11.459,48.881,6.409c8.989-2.68,13.34-6.37,18.539-11.62
			c2.17-2.199,4.051-5.51,5.811-8.959c1.89-3.69,2.75-7.671,4.51-10.861c19.859,2.371,11.76-0.35,20.199-0.439
			c1.921-2,21.641-11.68,13.74-31.68c-2.27-5.74-6.459-9.87-11.74-12.41c-8.93-4.27-10.479-2.601-19.449-1.05
			c-0.26-4.59-0.83-9.05-1.42-13.56c-0.49-3.85-0.6-11.55-2.551-11.19C109.37,51.591,106.59,52.571,103,54.321z"/>
		<path fill="#632D11" d="M27.6,54.611c6.56,4.86,27.55,8.18,37.19,8.2c12.66,0.02,28.319-3.41,38.21-8.49
			c-5.07-4.68-29.56-7.44-38.21-7.58C53.51,46.571,36.26,49.351,27.6,54.611z"/>
		<path fill="#DCE2DB" d="M47.07,41.261c-5.85,0.97-28.66,7.27-30.41,7.13c-1.25,1.14-0.54-0.01-0.93,1.77
			c1.97-0.87,2.7,0.1,5.5,1.69c2.2,1.26,3.74,2.12,6.37,2.76c8.66-5.26,25.91-8.04,37.19-7.87c8.65,0.14,33.14,2.9,38.21,7.58
			c3.59-1.75,6.37-2.73,9.359-5.04c-3.139-2.87-9.77-3.64-14.279-4.9c-4.79-1.33-10.68-2.7-15.75-3.55
			C68.98,38.601,60.09,39.461,47.07,41.261L47.07,41.261z"/>
		<path fill="#F8EBE2" d="M-0.5,17.551c0.7,1.15,5.18,3.25,7.01,4.98l-1.25,6.69c2.74-1.33,3.14-2.92,5.99-4.34
			c1.94,0.87,1.75,0.86,3.07,1.92l3.37,2.27c-0.58-3.15-1.64-4.61-2.1-7.51l6.27-4l-7.48-0.35l-2.18-8.71
			C5.96,17.291,13.88,16.711-0.5,17.551z"/>
		<path fill="#F8EBE2" d="M155.689,136.392c-1.5-1.211-4.76-8.341-8.739-4.73c-3.271,4.96,4.51,9.39,8.739,10.27
			c3.761-1.91,10.25-5.9,8.531-11.67C158.529,129.081,157.84,132.921,155.689,136.392z"/>
	</g>
</g>
</svg>
