<?xml version="1.0" encoding="UTF-8"?>
<!DOCTYPE svg PUBLIC "-//W3C//DTD SVG 1.1//EN" "http://www.w3.org/Graphics/SVG/1.1/DTD/svg11.dtd">
<!-- Creator: CorelDRAW 2020 (64-Bit) -->
<svg xmlns="http://www.w3.org/2000/svg" xml:space="preserve" width="209px" height="162px" version="1.1" style="shape-rendering:geometricPrecision; text-rendering:geometricPrecision; image-rendering:optimizeQuality; fill-rule:evenodd; clip-rule:evenodd"
viewBox="0 0 209 162"
 xmlns:xlink="http://www.w3.org/1999/xlink"
 xmlns:xodm="http://www.corel.com/coreldraw/odm/2003">
 <defs>
  <style type="text/css">
   <![CDATA[
    .fil8 {fill:#5E3612}
    .fil4 {fill:#603714}
    .fil5 {fill:#8B6237}
    .fil2 {fill:#A67C52}
    .fil3 {fill:#B5DADD}
    .fil11 {fill:#B5DBDE}
    .fil1 {fill:#C59B6B}
    .fil0 {fill:#E6EBEC}
    .fil6 {fill:#E8ECED}
    .fil9 {fill:#F06524}
    .fil7 {fill:#F5ECDB}
    .fil10 {fill:#F8EBE2}
   ]]>
  </style>
 </defs>
 <g id="Слой_x0020_1">
  <metadata id="CorelCorpID_0Corel-Layer"/>
  <g id="_2726418261664">
   <path class="fil0" d="M48.36 108.49c2.36,-3.3 2.73,-10.8 7.33,-12.09 6.11,-1.72 8.64,4.83 6.69,10.7 -0.46,1.41 -10.92,20.16 -13.21,22.97l-0.81 0.85c-3.03,-3.32 -5.56,-7.57 -8.24,-11.22 -14.09,-19.18 -3.39,-24.84 1.04,-22.95 2.88,1.24 5.08,8.38 7.2,11.74zm-39.01 -15.81l4 22.04c0.61,3.43 1.17,6.49 1.76,9.69 0.29,1.63 0.73,3.39 0.96,4.86l0.99 5.64 -0.21 -2.74c10.08,-0.09 6.9,-0.76 10.15,2.25l9.08 5.87c13.3,5.81 26.94,1.84 36.4,-8.28 2.12,-2.28 4.94,-1.38 8.98,-1.81l-0.4 2.75c1.37,-1.48 6.58,-38.23 7.03,-43.05l-16.95 0.75c-1.82,-3.93 -8.44,-7.32 -12.78,-8.69 -5.7,-1.79 -12.53,-2 -18.57,-0.22 -5.89,1.74 -9.93,4.49 -13.33,8.01 -2.86,2.96 -2.32,2.85 -7.53,2.96 -2.78,0.07 -7.08,0.61 -9.58,-0.03z"/>
   <path class="fil1" d="M120.7 64.23l2.68 0.77c0.28,8.24 2.08,15.53 3.23,23.3 0.26,0.72 0.19,0.98 0.41,1.78 0.57,1.99 -0.18,0.79 0.86,2.15l0.23 -1.25c11.2,0.92 24.64,0.5 35.92,0.52 12.04,0.03 24.36,0.16 36.37,-0.31l0.69 1.4c1.56,-4.08 4.1,-24.13 4.22,-29.56 -28.14,0.32 -56.45,1.02 -84.61,1.2z"/>
   <path class="fil2" d="M158 113.53c-1.06,-6.2 -0.59,-16.14 4.49,-18.75 3.25,-1.67 7.29,-0.46 9.22,1.38 1.97,1.89 2.92,5.2 3.35,8.77 2.56,20.87 -13.89,27.13 -17.06,8.6zm-30.12 -21.3c-0.36,3.95 5.62,32.14 7.05,36.77l61.05 -0.48 5.11 -35.93 -0.69 -1.4c-12.01,0.47 -24.33,0.34 -36.37,0.31 -11.28,-0.02 -24.72,0.4 -35.92,-0.52l-0.23 1.25z"/>
   <path class="fil3" d="M4.36 64.81c-0.12,4.71 3.5,23.03 4.99,27.87 2.5,0.64 6.8,0.1 9.58,0.03 5.21,-0.11 4.67,0 7.53,-2.96 3.4,-3.52 7.44,-6.27 13.33,-8.01 6.04,-1.78 12.87,-1.57 18.57,0.22 4.34,1.37 10.96,4.76 12.78,8.69l16.95 -0.75c1.32,-3.98 3.33,-20.8 3.07,-25.68l-86.8 0.59z"/>
   <path class="fil4" d="M18.37 45.64c-5.28,0.05 -12.9,-0.09 -17.63,0.81 -0.86,3.42 -0.79,7.04 -1.02,11.16 -0.33,5.96 -1.04,6.58 4.64,7.2l86.8 -0.59 3.45 -0.69c1.29,-6.15 0.29,-12.37 -0.85,-17.6 -1.88,-0.64 -3.5,-1.4 -6.28,-1.41l-69.11 1.12z"/>
   <path class="fil1" d="M134.93 129c0.78,4.72 4.38,19.89 6.43,23.11 5.19,8.16 44.3,6.35 48.96,0.14 3.51,-4.67 4.5,-16.81 5.66,-23.73l-61.05 0.48z"/>
   <path class="fil5" d="M122.83 48.21c-3.75,0.91 -4.23,2.56 -4.21,6.82 0.01,1.79 0.03,3.95 0.13,5.73 0.13,2.44 0.07,2.73 1.95,3.47 28.16,-0.18 56.47,-0.88 84.61,-1.2 4.22,-1.36 3.21,-1.86 2.73,-7.06 -0.38,-4 0.18,-5.62 -1.87,-8.49l-83.34 0.73z"/>
   <path class="fil3" d="M17.06 134.91c5.42,24.64 2.91,27.71 32.45,27 8.33,-0.19 19.55,-0.12 24.9,-5.03 3.17,-2.91 6.36,-18.39 6.65,-23.93l0.4 -2.75c-4.04,0.43 -6.86,-0.47 -8.98,1.81 -9.46,10.12 -23.1,14.09 -36.4,8.28l-9.08 -5.87c-3.25,-3.01 -0.07,-2.34 -10.15,-2.25l0.21 2.74z"/>
   <path class="fil6" d="M32.23 27.87l-12.46 0.62c-2.92,0.88 -5.93,-0.21 -8.77,5.76 -1.55,3.28 -3.63,7.47 -4.66,11l12.03 0.39 69.11 -1.12c-0.61,-3.99 -3.25,-9.35 -5.45,-12.31 -3.49,-4.7 -6.54,-5.08 -13.47,-5.01 -6.3,0.06 -32.6,1.31 -36.33,0.67z"/>
   <path class="fil7" d="M181.85 29.83l-0.72 0.8c-0.07,0.09 -0.3,0.37 -0.36,0.6l-19.62 0.19c-23.55,1.28 -26.86,-4.48 -33.48,12.73 -0.05,0.13 -0.45,1.03 -0.51,1.14 -0.45,0.83 -0.44,0.71 -0.61,0.89 -0.56,1.71 0.72,-0.05 -1.24,0.93 -0.17,0.08 -0.77,0.3 -0.96,0.38l-1.52 0.72 83.34 -0.73c-0.92,-0.66 0.06,-0.61 -1.68,-0.91 -0.74,-0.13 -1.27,0.11 -1.52,0.17l-0.12 -1.22c-5.87,-5.11 -1.63,-12.89 -13.85,-14.29l-0.14 -1.73 -1.16 1.79c-7.13,0.05 -5.16,0.44 -5.85,-1.46z"/>
   <path class="fil4" d="M48.36 108.49c-2.12,-3.36 -4.32,-10.5 -7.2,-11.74 -4.43,-1.89 -15.13,3.77 -1.04,22.95 2.68,3.65 5.21,7.9 8.24,11.22l0.81 -0.85c2.29,-2.81 12.75,-21.56 13.21,-22.97 1.95,-5.87 -0.58,-12.42 -6.69,-10.7 -4.6,1.29 -4.97,8.79 -7.33,12.09z"/>
   <path class="fil8" d="M158 113.53c3.17,18.53 19.62,12.27 17.06,-8.6 -0.43,-3.57 -1.38,-6.88 -3.35,-8.77 -1.93,-1.84 -5.97,-3.05 -9.22,-1.38 -5.08,2.61 -5.55,12.55 -4.49,18.75z"/>
   <path class="fil9" d="M181.85 29.83c0.69,1.9 -1.28,1.51 5.85,1.46l1.16 -1.79c-0.67,-4.92 2.94,-18.06 3.36,-24.25 -2.15,-0.3 -4.56,-0.98 -6.48,-0.31l-3.89 24.89z"/>
   <path class="fil10" d="M158.98 6.33l-7.3 0.28c0.53,1.43 4.52,3.21 5.82,3.93l-0.79 5.73c3.1,-1.31 2.26,-1.97 5.01,-3.34 1.67,0.66 4.28,2.74 5.59,4.05 0.15,-2.92 -1.33,-3.67 -1.7,-6.93 0.99,-0.59 4.57,-2.6 5.22,-3.63l-6.22 -0.14c-0.99,-1.67 -1,-3.81 -1.52,-5.4 -0.14,-0.43 0.05,0.07 -0.35,-0.88l-2.25 2.83c-0.53,1.37 -0.87,2.12 -1.51,3.5z"/>
   <path class="fil11" d="M19.77 28.49l12.46 -0.62 -0.36 -1.85 -5.45 -0.07c-1.46,-2.29 -1.33,-6.46 -5.14,-4.52 -1.53,1.17 -0.93,4.23 -1.51,7.06z"/>
  </g>
 </g>
</svg>
