<?xml version="1.0" encoding="utf-8"?>
<!-- Generator: Adobe Illustrator 15.1.0, SVG Export Plug-In . SVG Version: 6.00 Build 0)  -->
<!DOCTYPE svg PUBLIC "-//W3C//DTD SVG 1.1//EN" "http://www.w3.org/Graphics/SVG/1.1/DTD/svg11.dtd">
<svg version="1.1" id="Слой_1" xmlns:xodm="http://www.corel.com/coreldraw/odm/2003"
	 xmlns="http://www.w3.org/2000/svg" xmlns:xlink="http://www.w3.org/1999/xlink" x="0px" y="0px" width="201px" height="162px"
	 viewBox="0 -26.5 201 162" enable-background="new 0 -26.5 201 162" xml:space="preserve">
<g id="Слой_x0020_1">
	<g id="_2726231477552">
		<path fill="#F6D6BA" d="M92.69,127.023C82.29,124.714,89.87,114.254,92.69,127.023z M109.96,119.954
			c1.49-0.591,2.04-0.29,3.2,0.239l-0.11,6.08c-1.649-0.56-0.7,0.23-1.72-0.729C109.77,124.074,109.05,121.874,109.96,119.954
			L109.96,119.954z M122.51,118.504c3.551-2.2,4.77-2.189,6.95-0.57l-0.04,2.09C126.891,121.684,123.92,120.314,122.51,118.504z
			 M70.62,121.744l-1.34-0.461c-1.57-3.389,0.94-5.479,3.92-6.139C73.32,119.783,73.31,120.475,70.62,121.744z M98.91,119.434
			c-3.89-8.51,6.311-8.869,2.49-2.51L98.91,119.434z M78.79,110.404c10.29-1.641,7.54,6.029,2.63,2.959
			C78.76,111.704,78.99,110.693,78.79,110.404z M137.971,106.454c0.85,2.7,0.359,4.819-1.201,6.51
			C135.38,111.283,131.65,104.283,137.971,106.454z M115.02,104.404c1.451,0.01,1.84-0.061,3.28,0.34
			c2.82,0.789,1.9,0.529,3.011,2.1C119.35,112.544,115.93,107.145,115.02,104.404z M95.23,98.334c2.71,1.689,3.64,5.21,2.36,6.52
			C92.6,107.454,94.69,100.984,95.23,98.334z M69.05,100.124c4,1,5.65,2.729,4.08,5.87c-0.12,0.22-0.4,0.22-0.55,0.24
			c-1.61,0.279-0.47,0.18-2.27,0.129L69.05,100.124z M128.55,93.783c2.71-0.289,1.771-0.489,3.96,0.791
			c2.631,1.55,1.52,0.51,2.58,2.789c-1.18,0.111-2.6,0.41-3.75,0.4c-0.619-0.01-1.199-0.039-1.75-0.21
			c-0.97-0.319-0.92-0.56-1.32-0.85L128.55,93.783z M107.01,90.154c1.891,0.81,1.83,0.51,2.891,2.97
			c0.74,1.729,0.49,2.58-0.101,3.79C104.779,97.533,106.55,94.104,107.01,90.154z M84.06,96.693c-7.05-0.59-1.48-5.299,1.49-6.239
			C85.62,93.104,84.78,94.984,84.06,96.693z M74.39,80.204c2.62,1,3.36,0.979,4.38,3.29c1.2,2.72,0.36,3.279-2.63,3.1
			C74.47,84.475,74.64,83.033,74.39,80.204z M121,86.225c-1.76-0.58-1.779-0.73-2.52-2.23c0.789-2.131,2.74-2.98,5.149-3.971
			C123.721,83.324,122.87,84.773,121,86.225z M93.87,86.164c-0.21-3.65-0.4-6.15,2.97-6.65l1.81,1.58
			C97.55,83.634,96,85.374,93.87,86.164z M67.24,77.634l1.04,1.511c-4.72,7.409-7.84,31.729-6.84,42.289
			c0.34,3.65,1.19,4.311-0.19,5.66c5.74,4.4,1.64,7.17,16.24,8.11c11.63,0.75,47.23,0.1,58.55-2.24c4.66-0.96,6.101-3.62,7.47-3.95
			c0.91-2.47,0.67-1.949,2.211-3.72c-0.74-1.2,0.469-2.54,0.579-5.399c0.08-2.07-0.29-4.641-0.61-6.65
			c-1.59-10.02-7.189-25.84-11.229-34.96c-9.72-6.13-20.319-4.25-33.47-4.341c-6.18-0.039-12.49-0.17-18.65-0.129
			C69.13,73.904,72.75,78.693,67.24,77.634L67.24,77.634z"/>
		<path fill="#E5B992" d="M134.46,78.283c4.04,9.121,9.64,24.941,11.229,34.961c0.32,2.01,0.69,4.58,0.61,6.65
			c-0.11,2.859-1.319,4.199-0.579,5.399c4.539-0.34,13.649-5.54,17.059-7.649c4.23-2.631,10.33-6.83,9.73-13.57
			c-0.109-0.2-0.189-0.461-0.26-0.631c-2.65-6.84-4.23-8.539-8.68-15.1c-7.53-11.109-2.721-5.369-10.561-13.561
			C142.95,72.725,142.439,76.104,134.46,78.283z"/>
		<path fill="#E5B992" d="M50.66,76.954c-1.47,2.22-3.2,3.96-4.81,6.43l-12.64,19.931c-1.1,9.41,4.37,11.619,10.13,15.739
			c4.24,3.03,12.07,6.55,17.91,8.04c1.38-1.35,0.53-2.01,0.19-5.66c-1-10.56,2.12-34.88,6.84-42.289l-1.04-1.511
			c-3.22-0.54-5-2.17-8.46-2.54C54.75,74.674,53.69,76.023,50.66,76.954L50.66,76.954z"/>
		<path fill="#F6D6BA" d="M153.01,74.783c7.84,8.191,3.03,2.451,10.561,13.561c4.449,6.561,6.029,8.26,8.68,15.1
			c0.07,0.17,0.15,0.431,0.26,0.631l0.061-2.93c3.709-1.75,10.529-10.621,13.06-15.311c7.05-13.051,6.61-36.12-17.46-23.07
			C159.061,67.714,155.221,73.863,153.01,74.783L153.01,74.783z"/>
		<path fill="#F7D8BC" d="M19.18,64.594l-1.05,2.03c-0.44,0.819-0.86,1.53-1.11,2.38c-3.72,12.48,15.44,30.891,16.19,34.311
			l12.64-19.931c1.61-2.47,3.34-4.21,4.81-6.43c-2.06-3.57-9.29-8.53-13.27-10.841c-2.28-1.319-4.98-2.959-8.31-3.479
			C24.29,61.884,22.39,63.584,19.18,64.594z"/>
		<path fill="#F8EBE2" d="M5.83,44.794c1.8,1.04,1.8,2.25,3.39,3.89c1.93-0.96,0.57,0.25,2.23-2.11l4.51-7.91
			c2.36-3.75,5.58-9.42,0.61-12.15c-4.37-0.16-5.19,3.07-6.66,7.25c-2.33-1.2-1.91-4.94-5.52-7.26
			C-6.86,27.724,4.67,42.034,5.83,44.794z"/>
		<path fill="#F8EBE2" d="M188.141,113.064c-3.211,0.109-5.861-1.061-7.5,0.02c2.289,1.91,4.479,3.3,5.84,5.54l-2.371,7.149
			l6.42-5.18l5.361,5.631l-1.701-8.281l6.311-2.75c-0.75-0.569-0.26-0.35-1.54-0.799l-5.64-1.16c-0.771-2.15-1.09-4.721-2.6-6.181
			L188.141,113.064z"/>
		<path fill="#5E3612" d="M70.62,121.744c2.69-1.27,2.7-1.961,2.58-6.6c-2.98,0.659-5.49,2.75-3.92,6.139L70.62,121.744z"/>
		<path fill="#603714" d="M76.14,86.594c2.99,0.18,3.83-0.38,2.63-3.1c-1.02-2.311-1.76-2.29-4.38-3.29
			C74.64,83.033,74.47,84.475,76.14,86.594z"/>
		<path fill="#5E3612" d="M132.51,94.574c-2.189-1.28-1.25-1.08-3.96-0.791l-0.28,2.921c0.4,0.29,0.351,0.53,1.32,0.85
			c0.551,0.171,1.131,0.2,1.75,0.21c1.15,0.01,2.57-0.289,3.75-0.4C134.029,95.084,135.141,96.124,132.51,94.574z"/>
		<path fill="#5E3612" d="M107.01,90.154c-0.46,3.949-2.23,7.379,2.79,6.76c0.591-1.21,0.841-2.061,0.101-3.79
			C108.84,90.664,108.9,90.964,107.01,90.154z"/>
		<path fill="#5E3612" d="M129.42,120.023l0.04-2.09c-2.181-1.619-3.399-1.63-6.95,0.57
			C123.92,120.314,126.891,121.684,129.42,120.023z"/>
		<path fill="#603714" d="M93.87,86.164c2.13-0.79,3.68-2.53,4.78-5.07l-1.81-1.58C93.47,80.014,93.66,82.514,93.87,86.164z"/>
		<path fill="#5E3612" d="M73.13,105.994c1.57-3.141-0.08-4.87-4.08-5.87l1.26,6.239c1.8,0.051,0.66,0.15,2.27-0.129
			C72.73,106.214,73.01,106.214,73.13,105.994z"/>
		<path fill="#5E3612" d="M101.4,116.924c3.82-6.359-6.38-6-2.49,2.51L101.4,116.924z"/>
		<path fill="#603714" d="M115.02,104.404c0.91,2.74,4.33,8.14,6.291,2.439c-1.11-1.57-0.19-1.311-3.011-2.1
			C116.859,104.344,116.471,104.414,115.02,104.404L115.02,104.404z"/>
		<path fill="#603714" d="M136.77,112.964c1.561-1.69,2.051-3.81,1.201-6.51C131.65,104.283,135.38,111.283,136.77,112.964z"/>
		<path fill="#5E3612" d="M95.23,98.334c-0.54,2.65-2.63,9.12,2.36,6.52C98.87,103.544,97.94,100.023,95.23,98.334z"/>
		<path fill="#5E3612" d="M78.79,110.404c0.2,0.289-0.03,1.3,2.63,2.959C86.33,116.434,89.08,108.764,78.79,110.404z"/>
		<path fill="#603714" d="M121,86.225c1.87-1.451,2.721-2.9,2.63-6.201c-2.409,0.99-4.36,1.84-5.149,3.971
			C119.221,85.494,119.24,85.645,121,86.225z"/>
		<path fill="#5E3612" d="M92.69,127.023C89.87,114.254,82.29,124.714,92.69,127.023z"/>
		<path fill="#603714" d="M84.06,96.693c0.72-1.709,1.56-3.59,1.49-6.239C82.58,91.395,77.01,96.104,84.06,96.693z"/>
		<path fill="#5E3612" d="M111.33,125.544c1.02,0.96,0.07,0.17,1.72,0.729l0.11-6.08c-1.16-0.529-1.71-0.83-3.2-0.239
			C109.05,121.874,109.77,124.074,111.33,125.544L111.33,125.544z"/>
	</g>
</g>
</svg>
