<?xml version="1.0" encoding="utf-8"?>
<!-- Generator: Adobe Illustrator 15.1.0, SVG Export Plug-In . SVG Version: 6.00 Build 0)  -->
<!DOCTYPE svg PUBLIC "-//W3C//DTD SVG 1.1//EN" "http://www.w3.org/Graphics/SVG/1.1/DTD/svg11.dtd">
<svg version="1.1" id="Слой_1" xmlns:xodm="http://www.corel.com/coreldraw/odm/2003"
	 xmlns="http://www.w3.org/2000/svg" xmlns:xlink="http://www.w3.org/1999/xlink" x="0px" y="0px" width="149px" height="162px"
	 viewBox="0 -12.5 149 162" enable-background="new 0 -12.5 149 162" xml:space="preserve">
<g id="Слой_x0020_1">
	<g id="_2726422980480">
		<path fill="#B5DBDE" d="M59.22,128.143c-1.67-9.811,12.57-11.311,13.39-2.561C73.58,135.922,60.54,135.932,59.22,128.143z
			 M28.05,126.822c-1.83-9.85,12.41-10.971,13.41-2.59C42.64,134.002,29.58,135.102,28.05,126.822z M75.08,107.063
			c-3.19-10.121,11.17-12.44,12.97-4.351C90.25,112.602,77.37,114.342,75.08,107.063z M12.34,105.752
			c-1.3-9.05,12.97-10.79,13.58-1.96C26.59,113.531,13.52,113.922,12.34,105.752z M55.62,104.432
			c-3.55,9.021-15.36,4.061-13.15-4.449C44.57,91.842,59.19,95.342,55.62,104.432z M93.15,112.672c0.08-3.24,2.34-10.99,3.02-15.29
			c0.95-6.06,1.13-11.84,2.03-17.76c12.59-1.58,13.55,10.18,11.7,18.569C108.029,106.643,102.77,113.492,93.15,112.672z
			 M60.87,83.352c-3-9.289,11.31-12.64,13.17-3.789C75.91,88.422,63.44,91.322,60.87,83.352z M34.95,83.352
			c-2.85,8.66-15.34,5.15-13.27-3.85c0.74-3.221,4.63-5.8,9.03-4.66C33.77,75.632,36.14,79.742,34.95,83.352z M46.96,57.462
			c8.9-3.19,11.74,10.5,4.21,13.011C43.59,73.002,36.95,61.042,46.96,57.462z M12.76,56.132c8.67-2.37,11.49,10.84,3.59,13.13
			C8.02,71.682,2.59,58.912,12.76,56.132z M88.971,64.912c-2.971,8.63-16.321,4-12.791-5.04
			C78.82,53.142,92.21,55.472,88.971,64.912z M0.6,43.992c-1.67,9.48,0.6,40.66,1.48,51.74c1.32,16.59,4.45,29.779,12.84,39.439
			c7.09,8.17,22.69,14.9,38.53,14.29c13.46-0.51,28.06-9.229,32.1-20.101c19.41,1.98,31.25-10.479,34.8-27.17
			c1.971-9.299,1.521-19.6-2.24-27.479c-5.469-11.5-13.5-9.51-19.539-10.89l-1.291-19.95L0.6,43.992L0.6,43.992z"/>
		<path fill="#F06524" d="M46.98,33.972c1.3-1.09,4.66-7.41,5.86-9.51c2.42-4.23,4.49-6.74,2.08-11.57
			c-6.32-1.71-5.32,3.08-8.05,6.9c-1.26-3.76-2.37-7.24-6.67-7.29C34.55,19.162,40.44,24.852,46.98,33.972z"/>
		<path fill="#CBEBED" d="M55.62,104.432c3.57-9.09-11.05-12.59-13.15-4.449C40.26,108.492,52.07,113.452,55.62,104.432z"/>
		<path fill="#CBEBED" d="M59.22,128.143c1.32,7.789,14.36,7.779,13.39-2.561C71.79,116.832,57.55,118.332,59.22,128.143z"/>
		<path fill="#CBEBED" d="M34.95,83.352c1.19-3.609-1.18-7.72-4.24-8.51c-4.4-1.14-8.29,1.439-9.03,4.66
			C19.61,88.502,32.1,92.012,34.95,83.352z"/>
		<path fill="#CBEBED" d="M28.05,126.822c1.53,8.279,14.59,7.18,13.41-2.59C40.46,115.852,26.22,116.973,28.05,126.822z"/>
		<path fill="#CBEBED" d="M75.08,107.063c2.29,7.279,15.17,5.539,12.97-4.351C86.25,94.622,71.89,96.941,75.08,107.063z"/>
		<path fill="#CBEBED" d="M60.87,83.352c2.57,7.971,15.04,5.07,13.17-3.789C72.18,70.712,57.87,74.063,60.87,83.352z"/>
		<path fill="#CBEBED" d="M12.76,56.132c-10.17,2.78-4.74,15.55,3.59,13.13C24.25,66.972,21.43,53.762,12.76,56.132z"/>
		<path fill="#CBEBED" d="M88.971,64.912c3.239-9.44-10.15-11.77-12.791-5.04C72.65,68.912,86,73.542,88.971,64.912z"/>
		<path fill="#CBEBED" d="M12.34,105.752c1.18,8.17,14.25,7.779,13.58-1.96C25.31,94.962,11.04,96.702,12.34,105.752z"/>
		<path fill="#CBEBED" d="M46.96,57.462c-10.01,3.58-3.37,15.54,4.21,13.011C58.7,67.962,55.86,54.272,46.96,57.462z"/>
		<path fill="#F8EBE2" d="M143.33,36.982l-3.28,0.07c-0.17-2.77,1.74-5.39,2.421-8.45c-1.58,0.85-3.271,3.86-5.091,5.86l-5-5.44
			l1.41,8.47l-7.58,1.02c2.21,1.35,5.319,1.4,8.021,1.94l-1.59,5.72l4.539-4.96c3.11,1.67,3.08,3.65,5.75,5.83
			c-0.42-2.63-2.27-4.84-2.06-7.46l7.13-0.94L143.33,36.982L143.33,36.982z"/>
	</g>
</g>
</svg>
