<svg xmlns="http://www.w3.org/2000/svg" xmlns:xlink="http://www.w3.org/1999/xlink">
  <symbol id="logo-header-mobile" viewBox="0 0 158 158" width="155" height="158">
<g id="Слой_x0020_1">
  <path fill="#FFFFFF" d="M158,158H0.25V0.25H158V158z M3.733,154.517h150.783V3.733H3.733V154.517z"/>
  <path fill="#FFFFFF" d="M56.283,62.046c0-1.671-0.408-2.966-1.244-3.891c-0.826-0.916-1.991-1.374-3.484-1.374
    c-1.462,0-2.597,0.448-3.394,1.334c-0.806,0.896-1.204,2.149-1.204,3.772l-1.035-3.554c0.677-1.562,1.583-2.767,2.717-3.612
    c1.154-0.836,2.458-1.264,3.961-1.264c1.533,0,2.827,0.329,3.911,1.005c1.085,0.667,1.901,1.642,2.458,2.926
    c0.567,1.284,0.846,2.826,0.846,4.637v12.76h-3.534V62.046z M30.576,53.766h3.523v21.02h-3.523V53.766z M43.435,62.046
    c0-1.671-0.409-2.966-1.205-3.891c-0.806-0.916-1.951-1.374-3.434-1.374c-1.503,0-2.657,0.408-3.474,1.224
    c-0.816,0.816-1.224,1.97-1.224,3.474l-0.428-4.051c0.677-1.334,1.562-2.329,2.657-2.986c1.084-0.657,2.329-0.985,3.722-0.985
    c1.463,0,2.707,0.329,3.732,1.005c1.035,0.667,1.821,1.642,2.369,2.926c0.538,1.284,0.806,2.826,0.806,4.637v12.76h-3.523V62.046z
     M78.468,61.459c0-1.533-0.418-2.737-1.234-3.583c-0.826-0.846-1.99-1.274-3.503-1.274c-0.926,0-1.812,0.139-2.697,0.428
    c-0.876,0.289-1.662,0.697-2.349,1.224l-2.568-1.762c0.796-0.955,1.841-1.702,3.145-2.229c1.304-0.538,2.747-0.806,4.35-0.806
    c1.742,0,3.225,0.309,4.469,0.926c1.244,0.607,2.189,1.502,2.836,2.667c0.647,1.175,0.976,2.578,0.976,4.23v13.506h-3.424V61.459z
     M72.815,75.084c-2.528,0-4.449-0.547-5.762-1.652c-1.314-1.114-1.971-2.727-1.971-4.846c0-2.041,0.607-3.593,1.811-4.648
    c1.204-1.055,2.966-1.593,5.275-1.593h6.479l0.278,3.026h-6.738c-1.214,0-2.14,0.269-2.777,0.816s-0.945,1.344-0.945,2.399
    c0,1.125,0.408,1.97,1.224,2.558c0.816,0.587,2,0.886,3.573,0.886c1.702,0,2.996-0.179,3.882-0.528
    c0.876-0.348,1.323-0.875,1.323-1.563l0.418,2.857c-0.388,0.498-0.886,0.925-1.473,1.264c-0.587,0.329-1.274,0.587-2.04,0.767
    C74.597,74.995,73.75,75.084,72.815,75.084z M90.103,67.202l11.366-13.436h4.15L89.675,71.71L90.103,67.202z M88.162,45.335h3.523
    v29.45h-3.523V45.335z M95.507,63.021l2.2-2.757l8.947,14.521h-4.021L95.507,63.021L95.507,63.021z M118.696,75.084
    c-1.939,0-3.602-0.368-4.976-1.104c-1.384-0.737-2.429-1.801-3.146-3.225c-0.727-1.403-1.085-3.095-1.085-5.086V63.3
    c0-2.081,0.339-3.852,1.035-5.325c0.697-1.473,1.702-2.598,3.035-3.364c1.314-0.767,2.916-1.155,4.769-1.155
    c1.762,0,3.264,0.408,4.508,1.224c1.234,0.816,2.18,2.001,2.836,3.553c0.657,1.553,0.986,3.424,0.986,5.614v1.881h-14.681v-2.976
    h11.356v-0.099c-0.05-1.891-0.518-3.364-1.384-4.409c-0.875-1.035-2.08-1.562-3.622-1.562c-1.752,0-3.116,0.547-4.071,1.671
    c-0.965,1.115-1.453,2.688-1.453,4.728v2.667c0,1.921,0.518,3.404,1.544,4.439c1.024,1.055,2.468,1.573,4.348,1.573
    c0.906,0,1.813-0.18,2.698-0.548c0.885-0.378,1.682-0.896,2.368-1.572l0,0l2.349,2.309l0,0c-1.025,0.995-2.189,1.771-3.483,2.309
    C121.335,74.806,120.021,75.084,118.696,75.084L118.696,75.084z M49.884,99.866c0-1.672-0.408-2.967-1.244-3.882
    c-0.826-0.916-1.991-1.372-3.483-1.372c-1.463,0-2.598,0.437-3.394,1.333c-0.806,0.886-1.204,2.14-1.204,3.762l-1.035-3.543
    c0.677-1.563,1.582-2.767,2.717-3.612c1.155-0.846,2.458-1.264,3.961-1.264c1.533,0,2.826,0.327,3.911,0.995
    c1.085,0.677,1.901,1.651,2.458,2.926c0.567,1.283,0.846,2.836,0.846,4.638v12.76h-3.533V99.866z M24.176,91.585H27.7v21.021
    h-3.523V91.585z M37.035,99.866c0-1.672-0.408-2.967-1.204-3.882c-0.807-0.916-1.951-1.372-3.434-1.372
    c-1.502,0-2.657,0.408-3.473,1.224c-0.816,0.815-1.224,1.97-1.224,3.463l-0.428-4.05c0.677-1.335,1.563-2.33,2.657-2.986
    c1.085-0.657,2.339-0.975,3.723-0.975c1.463,0,2.707,0.327,3.732,0.995c1.035,0.677,1.822,1.651,2.369,2.926
    c0.538,1.283,0.807,2.836,0.807,4.638v12.76h-3.523V99.866z M68.296,112.914c-1.941,0-3.603-0.368-4.976-1.104
    c-1.384-0.737-2.428-1.812-3.145-3.225c-0.727-1.414-1.085-3.104-1.085-5.086v-2.369c0-2.08,0.338-3.86,1.045-5.334
    c0.687-1.474,1.692-2.588,3.025-3.354c1.314-0.767,2.917-1.153,4.778-1.153c1.751,0,3.254,0.407,4.498,1.224
    c1.234,0.815,2.18,2,2.837,3.553s0.985,3.424,0.985,5.604v1.881h-14.68v-2.965h11.355v-0.11c-0.049-1.881-0.517-3.354-1.383-4.4
    c-0.876-1.043-2.081-1.571-3.613-1.571c-1.762,0-3.125,0.557-4.081,1.672c-0.966,1.115-1.453,2.697-1.453,4.728v2.668
    c0,1.931,0.518,3.403,1.542,4.447c1.025,1.056,2.468,1.573,4.349,1.573c0.906,0,1.812-0.179,2.697-0.558
    c0.886-0.368,1.682-0.885,2.369-1.562l0,0l2.349,2.299l0,0c-1.025,0.995-2.189,1.771-3.483,2.319
    C70.934,112.636,69.621,112.914,68.296,112.914L68.296,112.914z M91.347,112.914c-1.503,0-2.776-0.298-3.842-0.896
    c-1.056-0.597-1.831-1.503-2.328-2.717l0.277-4.39c0,0.906,0.189,1.732,0.567,2.469c0.38,0.747,0.916,1.334,1.643,1.762
    c0.707,0.438,1.554,0.657,2.528,0.657c1.563,0,2.768-0.479,3.622-1.413c0.856-0.946,1.274-2.26,1.274-3.962v-4.559
    c0-1.741-0.418-3.085-1.274-4.03c-0.854-0.956-2.06-1.434-3.622-1.434c-0.975,0-1.821,0.21-2.528,0.628
    c-0.727,0.427-1.263,0.995-1.643,1.721c-0.378,0.737-0.567,1.543-0.567,2.438l-0.428-4.051c0.688-1.304,1.593-2.259,2.708-2.896
    c1.104-0.637,2.379-0.954,3.813-0.954c1.482,0,2.756,0.327,3.821,0.995c1.055,0.677,1.86,1.651,2.418,2.926
    c0.558,1.283,0.826,2.836,0.826,4.638v4.578c0,1.781-0.279,3.314-0.846,4.578c-0.567,1.264-1.394,2.239-2.498,2.905
    C94.174,112.575,92.87,112.914,91.347,112.914z M81.932,83.166h3.522v29.44h-3.522V83.166z M113.094,112.914
    c-1.941,0-3.604-0.368-4.977-1.104c-1.383-0.737-2.429-1.812-3.155-3.225c-0.716-1.414-1.085-3.104-1.085-5.086v-2.369
    c0-2.08,0.35-3.86,1.045-5.334c0.697-1.474,1.702-2.588,3.026-3.354c1.323-0.767,2.916-1.153,4.776-1.153
    c1.762,0,3.255,0.407,4.499,1.224c1.243,0.815,2.19,2,2.848,3.553c0.655,1.553,0.975,3.424,0.975,5.604v1.881h-14.681v-2.965
    h11.366v-0.11c-0.05-1.881-0.518-3.354-1.383-4.4c-0.877-1.043-2.08-1.571-3.624-1.571c-1.751,0-3.114,0.557-4.07,1.672
    c-0.976,1.115-1.453,2.697-1.453,4.728v2.668c0,1.931,0.519,3.403,1.543,4.447c1.015,1.056,2.469,1.573,4.35,1.573
    c0.905,0,1.801-0.179,2.697-0.558c0.886-0.368,1.681-0.885,2.369-1.562l0,0l2.349,2.299l0,0c-1.025,0.995-2.19,1.771-3.484,2.319
    C115.73,112.636,114.417,112.914,113.094,112.914L113.094,112.914z M130.252,107.122c0,0.706,0.158,1.244,0.487,1.632
    c0.328,0.379,0.797,0.567,1.394,0.567h1.94v3.324h-2.429c-1.572,0-2.775-0.478-3.632-1.452c-0.856-0.976-1.284-2.351-1.284-4.111
    V83.166h3.523V107.122z"/>
</g>
</symbol>
<symbol id="logo-header-desktop" viewBox="0 0 77 77"  width="77" height="77">
<g id="Слой_x0020_1">
  <g id="_2653717897472">
    <path fill="#FFFFFF" d="M27.689,30.42c0-0.79-0.19-1.41-0.59-1.84c-0.39-0.44-0.94-0.65-1.649-0.65c-0.69,0-1.22,0.21-1.601,0.63
      c-0.38,0.42-0.57,1.01-0.57,1.78l-0.49-1.68c0.32-0.74,0.75-1.31,1.291-1.71c0.54-0.4,1.16-0.6,1.87-0.6
      c0.72,0,1.34,0.16,1.85,0.48c0.51,0.32,0.9,0.78,1.17,1.38c0.26,0.61,0.39,1.34,0.39,2.2v6.03h-1.669v-6.02H27.689L27.689,30.42
      L27.689,30.42z M15.528,26.5h1.66v9.94h-1.66V26.5z M21.609,30.42c0-0.79-0.19-1.41-0.57-1.84c-0.38-0.44-0.92-0.65-1.63-0.65
      s-1.25,0.19-1.64,0.58c-0.38,0.38-0.58,0.93-0.58,1.64l-0.2-1.92c0.319-0.63,0.74-1.1,1.26-1.41c0.51-0.31,1.101-0.47,1.76-0.47
      c0.69,0,1.28,0.16,1.77,0.48c0.49,0.32,0.86,0.78,1.11,1.38c0.259,0.61,0.39,1.34,0.39,2.2v6.03h-1.67V30.42L21.609,30.42
      L21.609,30.42L21.609,30.42z M38.188,30.14c0-0.73-0.199-1.29-0.589-1.7c-0.391-0.4-0.94-0.6-1.65-0.6
      c-0.44,0-0.86,0.07-1.28,0.21c-0.41,0.13-0.79,0.33-1.11,0.57l-1.221-0.83c0.381-0.45,0.881-0.8,1.49-1.06
      c0.621-0.25,1.3-0.38,2.061-0.38c0.82,0,1.529,0.15,2.12,0.44c0.579,0.29,1.03,0.71,1.339,1.27c0.301,0.55,0.461,1.22,0.461,1.99
      v6.39h-1.621V30.14L38.188,30.14L38.188,30.14z M35.509,36.59c-1.19,0-2.1-0.26-2.721-0.79c-0.629-0.52-0.94-1.29-0.94-2.29
      c0-0.96,0.29-1.7,0.86-2.2s1.411-0.75,2.5-0.75h3.06l0.14,1.43h-3.189c-0.58,0-1.011,0.13-1.32,0.39
      c-0.3,0.25-0.44,0.63-0.44,1.13c0,0.53,0.19,0.94,0.581,1.21c0.38,0.28,0.94,0.42,1.69,0.42c0.799,0,1.41-0.08,1.83-0.25
      c0.42-0.16,0.629-0.41,0.629-0.73l0.2,1.35c-0.18,0.23-0.42,0.43-0.7,0.59c-0.28,0.16-0.6,0.28-0.97,0.36
      C36.359,36.55,35.959,36.59,35.509,36.59L35.509,36.59L35.509,36.59z M43.699,32.86l5.369-6.36h1.971l-7.551,8.49L43.699,32.86
      L43.699,32.86L43.699,32.86z M42.777,22.51h1.672v13.93h-1.672V22.51z M46.248,30.88l1.041-1.31l4.238,6.87h-1.898L46.248,30.88z
       M57.229,36.59c-0.92,0-1.709-0.18-2.356-0.52c-0.649-0.35-1.149-0.86-1.49-1.53c-0.34-0.67-0.511-1.47-0.511-2.41v-1.12
      c0-0.98,0.156-1.82,0.488-2.52c0.33-0.7,0.812-1.23,1.433-1.59c0.628-0.36,1.378-0.55,2.259-0.55c0.831,0,1.539,0.2,2.131,0.58
      c0.59,0.39,1.041,0.95,1.35,1.68c0.311,0.74,0.461,1.63,0.461,2.66v0.89h-6.939v-1.41h5.37V30.7
      c-0.021-0.89-0.241-1.58-0.659-2.08c-0.41-0.49-0.979-0.74-1.711-0.74c-0.828,0-1.471,0.26-1.93,0.79
      c-0.451,0.53-0.682,1.27-0.682,2.24v1.26c0,0.91,0.24,1.61,0.729,2.1c0.479,0.5,1.169,0.75,2.062,0.75
      c0.43,0,0.851-0.09,1.271-0.27c0.42-0.17,0.8-0.42,1.12-0.74l0,0l1.109,1.09l0,0c-0.479,0.48-1.028,0.84-1.649,1.1
      C58.471,36.46,57.85,36.59,57.229,36.59L57.229,36.59L57.229,36.59z M24.659,48.32c0-0.791-0.189-1.41-0.58-1.84
      c-0.4-0.44-0.95-0.65-1.661-0.65c-0.69,0-1.22,0.21-1.6,0.63s-0.57,1.011-0.57,1.78l-0.49-1.68c0.319-0.74,0.75-1.313,1.289-1.711
      c0.54-0.399,1.161-0.602,1.87-0.602c0.721,0,1.34,0.16,1.851,0.479c0.51,0.319,0.9,0.779,1.169,1.379
      c0.261,0.611,0.39,1.343,0.39,2.201v6.029h-1.67V48.32H24.659L24.659,48.32z M12.499,44.4h1.67v9.938h-1.67V44.4z M18.578,48.32
      c0-0.791-0.189-1.41-0.569-1.84c-0.38-0.44-0.921-0.65-1.62-0.65c-0.71,0-1.26,0.189-1.65,0.58c-0.38,0.38-0.57,0.93-0.57,1.64
      l-0.21-1.92c0.32-0.63,0.74-1.101,1.26-1.409c0.52-0.311,1.1-0.471,1.76-0.471c0.69,0,1.28,0.16,1.77,0.48
      c0.491,0.317,0.86,0.777,1.12,1.379c0.25,0.611,0.38,1.341,0.38,2.201v6.027h-1.671V48.32L18.578,48.32L18.578,48.32z
       M33.378,54.49c-0.919,0-1.71-0.18-2.36-0.52c-0.65-0.353-1.15-0.861-1.49-1.531c-0.339-0.67-0.51-1.469-0.51-2.41V48.91
      c0-0.98,0.16-1.82,0.49-2.52c0.33-0.701,0.81-1.23,1.43-1.593c0.63-0.358,1.38-0.55,2.261-0.55c0.84,0,1.54,0.2,2.129,0.58
      c0.59,0.393,1.04,0.947,1.35,1.68c0.31,0.74,0.46,1.633,0.46,2.66v0.893h-6.94v-1.41h5.37V48.6c-0.02-0.89-0.24-1.58-0.649-2.08
      c-0.42-0.49-0.99-0.74-1.72-0.74c-0.83,0-1.471,0.263-1.921,0.791c-0.46,0.529-0.69,1.271-0.69,2.24v1.26
      c0,0.91,0.24,1.609,0.73,2.102c0.48,0.5,1.17,0.75,2.06,0.75c0.431,0,0.851-0.09,1.27-0.271c0.42-0.17,0.801-0.42,1.121-0.738l0,0
      l1.11,1.09l0,0c-0.48,0.473-1.03,0.84-1.64,1.102C34.619,54.359,33.999,54.49,33.378,54.49L33.378,54.49L33.378,54.49z
       M44.277,54.49c-0.709,0-1.31-0.141-1.811-0.42c-0.5-0.28-0.869-0.711-1.109-1.291l0.141-2.079c0,0.43,0.08,0.819,0.26,1.17
      c0.18,0.36,0.441,0.63,0.781,0.84c0.34,0.2,0.738,0.3,1.199,0.3c0.74,0,1.311-0.22,1.711-0.66c0.408-0.449,0.6-1.07,0.6-1.879
      v-2.15c0-0.828-0.191-1.471-0.6-1.908c-0.4-0.46-0.971-0.682-1.711-0.682c-0.461,0-0.859,0.102-1.199,0.299
      c-0.34,0.201-0.602,0.473-0.781,0.813c-0.18,0.352-0.26,0.729-0.26,1.15l-0.209-1.91c0.331-0.62,0.76-1.07,1.279-1.37
      c0.529-0.3,1.131-0.46,1.811-0.46c0.699,0,1.299,0.16,1.809,0.479c0.5,0.319,0.881,0.779,1.143,1.379
      c0.26,0.611,0.393,1.343,0.393,2.201v2.16c0,0.85-0.133,1.569-0.4,2.17c-0.271,0.602-0.66,1.062-1.18,1.369
      C45.619,54.33,45.008,54.49,44.277,54.49L44.277,54.49L44.277,54.49z M39.829,40.41h1.669v13.93h-1.669V40.41z M54.579,54.49
      c-0.92,0-1.71-0.18-2.358-0.52c-0.65-0.353-1.152-0.861-1.492-1.531s-0.51-1.469-0.51-2.41V48.91c0-0.98,0.16-1.82,0.49-2.52
      c0.33-0.701,0.799-1.23,1.432-1.593c0.629-0.358,1.379-0.55,2.26-0.55c0.83,0,1.539,0.2,2.129,0.58
      c0.593,0.393,1.031,0.947,1.353,1.68c0.31,0.74,0.459,1.633,0.459,2.66v0.893h-6.948v-1.41h5.379V48.6
      c-0.028-0.89-0.25-1.58-0.66-2.08c-0.408-0.49-0.979-0.74-1.709-0.74c-0.83,0-1.471,0.263-1.93,0.791
      c-0.461,0.529-0.681,1.271-0.681,2.24v1.26c0,0.91,0.237,1.609,0.729,2.102c0.479,0.5,1.17,0.75,2.062,0.75
      c0.42,0,0.849-0.09,1.269-0.271c0.422-0.17,0.803-0.42,1.123-0.738l0,0L58.079,53l0,0c-0.479,0.471-1.03,0.84-1.649,1.1
      C55.818,54.359,55.2,54.49,54.579,54.49L54.579,54.49L54.579,54.49z M62.688,51.75c0,0.33,0.08,0.59,0.24,0.77
      c0.149,0.183,0.371,0.271,0.65,0.271h0.92v1.568h-1.15c-0.74,0-1.31-0.219-1.719-0.688c-0.4-0.46-0.602-1.101-0.602-1.938V40.41
      h1.66V51.75L62.688,51.75L62.688,51.75z"/>
    <rect x="0.499" y="0.5" fill="#FFFFFF" width="76" height="3"/>
    <rect x="0.499" y="73.5" fill="#FFFFFF" width="76" height="3"/>
    <rect x="0.472" y="0.996" fill="#FFFFFF" width="2.999" height="75.004"/>
    <rect x="73.527" y="0.996" fill="#FFFFFF" width="2.998" height="75.004"/>
  </g>
</g>
  </symbol>
</svg>
