<svg xmlns="http://www.w3.org/2000/svg" xmlns:xlink="http://www.w3.org/1999/xlink">
  <symbol id="logo-header-mobile" viewBox="0 0 155 155" width="155" height="155">
<g id="Слой_x0020_1">
  <rect fill="none" stroke="#FFFFFF" stroke-width="3.5" stroke-miterlimit="22.9256" width="155" height="155"/>
  <path fill="#FFFFFF" d="M54.55,60.34c0-1.68-0.41-2.98-1.25-3.91c-0.83-0.92-2-1.38-3.5-1.38c-1.47,0-2.61,0.45-3.41,1.34
    c-0.81,0.9-1.21,2.16-1.21,3.79l-1.04-3.57c0.68-1.57,1.59-2.78,2.73-3.63c1.16-0.84,2.47-1.27,3.98-1.27
    c1.54,0,2.84,0.33,3.93,1.01c1.09,0.67,1.91,1.65,2.47,2.94c0.57,1.29,0.85,2.84,0.85,4.66v12.82h-3.55V60.34L54.55,60.34z
     M28.72,52.02h3.54v21.12h-3.54V52.02z M41.64,60.34c0-1.68-0.41-2.98-1.21-3.91c-0.81-0.92-1.96-1.38-3.45-1.38
    c-1.51,0-2.67,0.41-3.49,1.23c-0.82,0.82-1.23,1.979-1.23,3.49l-0.43-4.07c0.68-1.34,1.57-2.34,2.67-3
    c1.09-0.66,2.34-0.99,3.74-0.99c1.47,0,2.72,0.33,3.75,1.01c1.04,0.67,1.83,1.65,2.38,2.94c0.54,1.29,0.81,2.84,0.81,4.66v12.82
    h-3.54V60.34L41.64,60.34z M76.84,59.75c0-1.54-0.42-2.75-1.24-3.6c-0.83-0.85-2-1.28-3.52-1.28c-0.93,0-1.82,0.14-2.71,0.43
    c-0.88,0.29-1.67,0.7-2.36,1.23l-2.58-1.771c0.8-0.96,1.85-1.71,3.16-2.24c1.31-0.54,2.76-0.81,4.37-0.81
    c1.75,0,3.24,0.31,4.49,0.93c1.25,0.61,2.2,1.51,2.85,2.68c0.65,1.18,0.979,2.59,0.979,4.25v13.57H76.84V59.75z M71.16,73.44
    c-2.54,0-4.47-0.55-5.79-1.66c-1.32-1.12-1.98-2.74-1.98-4.87c0-2.05,0.61-3.61,1.82-4.67c1.21-1.06,2.98-1.6,5.3-1.6h6.51
    l0.28,3.04h-6.77c-1.22,0-2.15,0.27-2.79,0.82c-0.64,0.55-0.95,1.35-0.95,2.41c0,1.13,0.41,1.98,1.23,2.57s2.01,0.89,3.59,0.89
    c1.71,0,3.01-0.18,3.9-0.53c0.88-0.35,1.33-0.88,1.33-1.57l0.42,2.87c-0.39,0.5-0.89,0.93-1.48,1.27
    c-0.59,0.33-1.28,0.59-2.05,0.77C72.95,73.35,72.1,73.44,71.16,73.44z M88.529,65.52l11.421-13.5h4.17L88.1,70.05L88.529,65.52z
     M86.58,43.55h3.54v29.59h-3.54V43.55z M93.96,61.32l2.21-2.77l8.99,14.59h-4.04L93.96,61.32z M117.26,73.44
    c-1.949,0-3.619-0.37-5-1.11c-1.39-0.74-2.439-1.81-3.16-3.24c-0.729-1.41-1.09-3.11-1.09-5.11V61.6c0-2.09,0.34-3.87,1.04-5.35
    s1.71-2.61,3.05-3.38c1.32-0.77,2.93-1.16,4.791-1.16c1.77,0,3.279,0.41,4.529,1.23c1.24,0.82,2.189,2.01,2.85,3.57
    c0.66,1.56,0.99,3.44,0.99,5.64v1.89h-14.75v-2.99h11.41v-0.1c-0.05-1.9-0.52-3.38-1.391-4.43c-0.879-1.04-2.09-1.57-3.639-1.57
    c-1.761,0-3.131,0.55-4.091,1.68c-0.97,1.12-1.46,2.7-1.46,4.75v2.68c0,1.93,0.52,3.42,1.551,4.46
    c1.029,1.06,2.479,1.58,4.369,1.58c0.91,0,1.82-0.18,2.711-0.55c0.889-0.38,1.689-0.9,2.379-1.58l0,0l2.36,2.32l0,0
    c-1.03,1-2.2,1.78-3.5,2.32C119.91,73.16,118.59,73.44,117.26,73.44L117.26,73.44z M48.12,98.34c0-1.68-0.41-2.98-1.25-3.9
    c-0.83-0.92-2-1.379-3.5-1.379c-1.47,0-2.61,0.439-3.41,1.34c-0.81,0.89-1.21,2.149-1.21,3.779l-1.04-3.56
    c0.68-1.57,1.59-2.78,2.73-3.63c1.16-0.85,2.47-1.27,3.98-1.27c1.54,0,2.84,0.329,3.93,1c1.09,0.68,1.91,1.659,2.47,2.939
    c0.57,1.29,0.85,2.85,0.85,4.66v12.82h-3.55V98.34z M22.29,90.02h3.54v21.121h-3.54V90.02z M35.21,98.34c0-1.68-0.41-2.98-1.21-3.9
    c-0.81-0.92-1.96-1.379-3.45-1.379c-1.51,0-2.67,0.41-3.49,1.229c-0.82,0.819-1.23,1.979-1.23,3.479L25.4,93.7
    c0.68-1.341,1.57-2.341,2.67-3c1.09-0.66,2.35-0.979,3.74-0.979c1.47,0,2.72,0.329,3.75,1c1.04,0.68,1.83,1.659,2.38,2.939
    c0.54,1.29,0.81,2.85,0.81,4.66v12.82h-3.54V98.34z M66.62,111.45c-1.95,0-3.62-0.37-5-1.11c-1.39-0.74-2.44-1.82-3.16-3.24
    c-0.73-1.42-1.09-3.119-1.09-5.109v-2.381c0-2.09,0.34-3.879,1.05-5.359c0.69-1.48,1.7-2.6,3.04-3.37
    c1.32-0.771,2.93-1.159,4.8-1.159c1.76,0,3.27,0.409,4.52,1.229c1.24,0.819,2.19,2.01,2.85,3.569c0.66,1.561,0.99,3.44,0.99,5.631
    v1.89H59.87v-2.979h11.41v-0.11c-0.05-1.89-0.52-3.37-1.39-4.421c-0.88-1.049-2.09-1.579-3.63-1.579c-1.77,0-3.14,0.56-4.1,1.68
    c-0.97,1.12-1.46,2.71-1.46,4.75v2.681c0,1.939,0.52,3.42,1.55,4.469c1.03,1.061,2.48,1.58,4.37,1.58c0.91,0,1.82-0.18,2.71-0.56
    c0.89-0.37,1.69-0.89,2.38-1.569l0,0l2.36,2.31l0,0c-1.03,1-2.2,1.78-3.5,2.33C69.27,111.17,67.95,111.45,66.62,111.45
    L66.62,111.45z M89.779,111.45c-1.51,0-2.789-0.3-3.859-0.9c-1.061-0.6-1.84-1.51-2.34-2.729l0.279-4.41
    c0,0.91,0.19,1.74,0.57,2.48c0.381,0.75,0.92,1.34,1.65,1.77c0.71,0.439,1.561,0.66,2.54,0.66c1.569,0,2.78-0.48,3.64-1.42
    c0.86-0.95,1.28-2.271,1.28-3.98v-4.58c0-1.75-0.42-3.1-1.28-4.05c-0.859-0.96-2.07-1.44-3.64-1.44c-0.979,0-1.83,0.211-2.54,0.631
    c-0.73,0.43-1.27,1-1.65,1.729c-0.38,0.74-0.57,1.55-0.57,2.45l-0.43-4.07c0.69-1.31,1.6-2.27,2.721-2.91
    c1.109-0.64,2.39-0.959,3.83-0.959c1.49,0,2.77,0.329,3.84,1c1.06,0.68,1.869,1.659,2.43,2.939c0.561,1.29,0.83,2.85,0.83,4.66v4.6
    c0,1.79-0.28,3.33-0.85,4.6c-0.57,1.271-1.4,2.25-2.51,2.92C92.62,111.109,91.311,111.45,89.779,111.45z M80.32,81.561h3.539v29.58
    H80.32V81.561z M111.63,111.45c-1.95,0-3.62-0.37-5-1.11c-1.39-0.74-2.44-1.82-3.17-3.24c-0.72-1.42-1.09-3.119-1.09-5.109v-2.381
    c0-2.09,0.351-3.879,1.05-5.359c0.7-1.48,1.71-2.6,3.04-3.37s2.931-1.159,4.8-1.159c1.77,0,3.27,0.409,4.52,1.229
    c1.25,0.819,2.201,2.01,2.861,3.569c0.659,1.561,0.979,3.44,0.979,5.631v1.89h-14.75v-2.979h11.42v-0.11
    c-0.05-1.89-0.521-3.37-1.39-4.421c-0.881-1.049-2.09-1.579-3.641-1.579c-1.76,0-3.13,0.56-4.09,1.68
    c-0.98,1.12-1.46,2.71-1.46,4.75v2.681c0,1.939,0.521,3.42,1.55,4.469c1.02,1.061,2.48,1.58,4.37,1.58c0.91,0,1.81-0.18,2.71-0.56
    c0.891-0.37,1.689-0.89,2.381-1.569l0,0l2.359,2.31l0,0c-1.03,1-2.2,1.78-3.5,2.33C114.279,111.17,112.96,111.45,111.63,111.45
    L111.63,111.45z M128.87,105.63c0,0.71,0.159,1.25,0.489,1.64c0.33,0.381,0.801,0.57,1.4,0.57h1.95v3.34h-2.44
    c-1.58,0-2.789-0.479-3.649-1.459c-0.86-0.98-1.29-2.361-1.29-4.131V81.561h3.54V105.63z"/>
</g>
</symbol>
<symbol id="logo-header-desktop" viewBox="0 0 77 77"  width="77" height="77">
<g id="Слой_x0020_1">
  <path fill="#FFFFFF" d="M155,155H0V0h155V155z M3.423,151.578h148.155V3.423H3.423V151.578z"/>
  <path fill="#FFFFFF" d="M55.057,60.719c0-1.643-0.401-2.915-1.223-3.824c-0.811-0.9-1.956-1.349-3.423-1.349
    c-1.437,0-2.552,0.439-3.334,1.31c-0.792,0.88-1.183,2.112-1.183,3.707l-1.018-3.492c0.665-1.535,1.555-2.718,2.67-3.55
    c1.133-0.821,2.415-1.242,3.892-1.242c1.506,0,2.776,0.323,3.843,0.987c1.066,0.656,1.868,1.614,2.416,2.876
    c0.557,1.262,0.832,2.777,0.832,4.556v12.538h-3.472V60.719L55.057,60.719z M29.797,52.583h3.461v20.654h-3.461V52.583z
     M42.432,60.719c0-1.643-0.401-2.915-1.184-3.824c-0.792-0.9-1.916-1.349-3.374-1.349c-1.477,0-2.61,0.4-3.413,1.203
    c-0.802,0.801-1.203,1.936-1.203,3.413l-0.42-3.98c0.664-1.311,1.535-2.289,2.61-2.934c1.066-0.646,2.288-0.969,3.658-0.969
    c1.437,0,2.659,0.323,3.667,0.987c1.016,0.656,1.79,1.614,2.327,2.876c0.528,1.262,0.792,2.777,0.792,4.556v12.538h-3.462V60.719
    L42.432,60.719z M76.854,60.142c0-1.506-0.411-2.688-1.212-3.52c-0.812-0.832-1.956-1.251-3.442-1.251
    c-0.91,0-1.78,0.137-2.65,0.42c-0.86,0.283-1.633,0.685-2.309,1.203l-2.522-1.731c0.781-0.938,1.809-1.672,3.089-2.19
    c1.281-0.528,2.7-0.792,4.273-0.792c1.712,0,3.169,0.303,4.392,0.91c1.222,0.596,2.151,1.477,2.787,2.621
    c0.635,1.154,0.958,2.533,0.958,4.155v13.271h-3.364V60.142z M71.3,73.53c-2.483,0-4.372-0.538-5.662-1.624
    c-1.291-1.095-1.936-2.68-1.936-4.763c0-2.004,0.596-3.53,1.78-4.566c1.184-1.037,2.915-1.565,5.183-1.565h6.367l0.273,2.973h-6.62
    c-1.193,0-2.103,0.264-2.728,0.802c-0.626,0.538-0.93,1.32-0.93,2.356c0,1.105,0.401,1.937,1.203,2.513
    c0.802,0.577,1.966,0.871,3.511,0.871c1.673,0,2.944-0.176,3.814-0.519c0.861-0.342,1.301-0.86,1.301-1.535l0.411,2.807
    c-0.381,0.489-0.87,0.909-1.447,1.242c-0.577,0.323-1.251,0.577-2.005,0.753C73.051,73.442,72.219,73.53,71.3,73.53z
     M88.285,65.785l11.169-13.202h4.078L87.865,70.214L88.285,65.785z M86.379,44.3h3.462v28.937h-3.462V44.3z M93.597,61.677
    l2.161-2.709l8.791,14.269h-3.95L93.597,61.677z M116.381,73.53c-1.904,0-3.539-0.362-4.889-1.085
    c-1.358-0.724-2.385-1.77-3.09-3.169c-0.714-1.378-1.066-3.041-1.066-4.997v-2.327c0-2.044,0.332-3.785,1.017-5.232
    s1.673-2.552,2.983-3.305c1.291-0.753,2.865-1.135,4.686-1.135c1.73,0,3.207,0.401,4.428,1.203
    c1.213,0.802,2.143,1.966,2.787,3.492c0.646,1.525,0.969,3.364,0.969,5.515v1.848h-14.424v-2.924h11.158v-0.098
    c-0.05-1.858-0.508-3.305-1.359-4.333c-0.861-1.017-2.045-1.535-3.559-1.535c-1.722,0-3.063,0.537-4.001,1.643
    c-0.948,1.096-1.429,2.641-1.429,4.645v2.621c0,1.887,0.51,3.345,1.518,4.361c1.006,1.037,2.425,1.545,4.271,1.545
    c0.891,0,1.781-0.176,2.652-0.538c0.869-0.372,1.652-0.88,2.326-1.545l0,0l2.308,2.269l0,0c-1.007,0.978-2.151,1.741-3.422,2.269
    C118.974,73.256,117.682,73.53,116.381,73.53L116.381,73.53z M48.769,97.879c0-1.643-0.4-2.914-1.222-3.814
    c-0.813-0.898-1.956-1.348-3.423-1.348c-1.438,0-2.553,0.43-3.335,1.311c-0.792,0.87-1.184,2.103-1.184,3.695l-1.017-3.481
    c0.665-1.535,1.555-2.718,2.669-3.55c1.135-0.83,2.416-1.24,3.892-1.24c1.506,0,2.777,0.321,3.843,0.979
    c1.066,0.664,1.868,1.622,2.415,2.873c0.558,1.263,0.832,2.787,0.832,4.559v12.537h-3.472V97.879z M23.509,89.742h3.462v20.656
    h-3.462V89.742z M36.144,97.879c0-1.643-0.4-2.914-1.183-3.814c-0.792-0.898-1.917-1.348-3.374-1.348
    c-1.477,0-2.611,0.4-3.413,1.202c-0.803,0.802-1.204,1.937-1.204,3.403l-0.42-3.979c0.666-1.312,1.536-2.29,2.611-2.934
    c1.066-0.646,2.298-0.958,3.657-0.958c1.438,0,2.66,0.321,3.667,0.979c1.018,0.664,1.79,1.622,2.328,2.873
    c0.527,1.263,0.792,2.787,0.792,4.559v12.537h-3.462V97.879z M66.86,110.7c-1.907,0-3.54-0.362-4.89-1.085
    c-1.359-0.725-2.386-1.781-3.09-3.17c-0.714-1.389-1.066-3.049-1.066-4.996v-2.328c0-2.043,0.332-3.793,1.026-5.24
    c0.675-1.449,1.663-2.543,2.974-3.296c1.291-0.755,2.865-1.134,4.693-1.134c1.721,0,3.198,0.399,4.42,1.202
    c1.213,0.802,2.142,1.965,2.787,3.491c0.646,1.525,0.968,3.364,0.968,5.506v1.849H60.26v-2.915h11.158v-0.108
    c-0.049-1.847-0.509-3.294-1.359-4.323c-0.861-1.025-2.044-1.544-3.55-1.544c-1.73,0-3.07,0.548-4.009,1.643
    c-0.949,1.097-1.428,2.651-1.428,4.646v2.62c0,1.896,0.508,3.346,1.516,4.371c1.007,1.037,2.425,1.545,4.273,1.545
    c0.889,0,1.78-0.176,2.65-0.548c0.871-0.362,1.653-0.87,2.327-1.534l0,0l2.308,2.259l0,0c-1.007,0.979-2.152,1.741-3.423,2.279
    C69.452,110.426,68.161,110.7,66.86,110.7L66.86,110.7z M89.508,110.7c-1.477,0-2.727-0.292-3.773-0.881
    c-1.037-0.586-1.799-1.477-2.289-2.669l0.273-4.313c0,0.891,0.187,1.701,0.559,2.426c0.371,0.734,0.898,1.311,1.613,1.73
    c0.694,0.43,1.525,0.646,2.483,0.646c1.536,0,2.72-0.471,3.56-1.389c0.841-0.931,1.253-2.222,1.253-3.893v-4.48
    c0-1.711-0.412-3.031-1.253-3.96c-0.84-0.938-2.023-1.409-3.56-1.409c-0.958,0-1.789,0.207-2.483,0.617
    c-0.715,0.42-1.242,0.979-1.613,1.692c-0.372,0.723-0.559,1.515-0.559,2.396l-0.42-3.98c0.675-1.28,1.564-2.219,2.66-2.846
    c1.086-0.626,2.337-0.938,3.746-0.938c1.457,0,2.709,0.321,3.754,0.979c1.037,0.664,1.828,1.622,2.377,2.873
    c0.549,1.263,0.813,2.787,0.813,4.559v4.498c0,1.749-0.274,3.256-0.832,4.498c-0.557,1.241-1.369,2.199-2.453,2.855
    C92.286,110.367,91.006,110.7,89.508,110.7z M80.258,81.471h3.461v28.928h-3.461V81.471z M110.876,110.7
    c-1.907,0-3.54-0.362-4.889-1.085c-1.36-0.725-2.388-1.781-3.101-3.17c-0.703-1.389-1.065-3.049-1.065-4.996v-2.328
    c0-2.043,0.343-3.793,1.026-5.24c0.685-1.449,1.673-2.543,2.974-3.296c1.301-0.755,2.864-1.134,4.692-1.134
    c1.73,0,3.197,0.399,4.42,1.202c1.223,0.802,2.152,1.965,2.799,3.491c0.644,1.525,0.958,3.364,0.958,5.506v1.849h-14.424v-2.915
    h11.166v-0.108c-0.048-1.847-0.509-3.294-1.358-4.323c-0.861-1.025-2.043-1.544-3.561-1.544c-1.721,0-3.06,0.548-3.998,1.643
    c-0.959,1.097-1.429,2.651-1.429,4.646v2.62c0,1.896,0.509,3.346,1.517,4.371c0.996,1.037,2.424,1.545,4.272,1.545
    c0.891,0,1.771-0.176,2.649-0.548c0.871-0.362,1.652-0.87,2.33-1.534l0,0l2.307,2.259l0,0c-1.007,0.979-2.151,1.741-3.424,2.279
    C113.467,110.426,112.177,110.7,110.876,110.7L110.876,110.7z M127.735,105.009c0,0.694,0.155,1.223,0.479,1.603
    c0.322,0.373,0.783,0.559,1.369,0.559h1.907v3.266h-2.388c-1.545,0-2.727-0.468-3.567-1.426c-0.843-0.959-1.263-2.311-1.263-4.041
    V81.471h3.462V105.009z"/>
</g>
  </symbol>
</svg>
