<svg xmlns="http://www.w3.org/2000/svg" xmlns:xlink="http://www.w3.org/1999/xlink">
  <symbol id="logo-header-mobile" viewBox="0 0 155 155" width="155" height="155">
<g id="Слой_x0020_1">
  <rect fill="none" stroke="#FFFFFF" stroke-width="3.5" stroke-miterlimit="22.9256" width="155" height="155"/>
  <path fill="#FFFFFF" d="M54.55,60.34c0-1.68-0.41-2.98-1.25-3.91c-0.83-0.92-2-1.38-3.5-1.38c-1.47,0-2.61,0.45-3.41,1.34
    c-0.81,0.9-1.21,2.16-1.21,3.79l-1.04-3.57c0.68-1.57,1.59-2.78,2.73-3.63c1.16-0.84,2.47-1.27,3.98-1.27
    c1.54,0,2.84,0.33,3.93,1.01c1.09,0.67,1.91,1.65,2.47,2.94c0.57,1.29,0.85,2.84,0.85,4.66v12.82h-3.55V60.34L54.55,60.34z
     M28.72,52.02h3.54v21.12h-3.54V52.02z M41.64,60.34c0-1.68-0.41-2.98-1.21-3.91c-0.81-0.92-1.96-1.38-3.45-1.38
    c-1.51,0-2.67,0.41-3.49,1.23c-0.82,0.82-1.23,1.979-1.23,3.49l-0.43-4.07c0.68-1.34,1.57-2.34,2.67-3
    c1.09-0.66,2.34-0.99,3.74-0.99c1.47,0,2.72,0.33,3.75,1.01c1.04,0.67,1.83,1.65,2.38,2.94c0.54,1.29,0.81,2.84,0.81,4.66v12.82
    h-3.54V60.34L41.64,60.34z M76.84,59.75c0-1.54-0.42-2.75-1.24-3.6c-0.83-0.85-2-1.28-3.52-1.28c-0.93,0-1.82,0.14-2.71,0.43
    c-0.88,0.29-1.67,0.7-2.36,1.23l-2.58-1.771c0.8-0.96,1.85-1.71,3.16-2.24c1.31-0.54,2.76-0.81,4.37-0.81
    c1.75,0,3.24,0.31,4.49,0.93c1.25,0.61,2.2,1.51,2.85,2.68c0.65,1.18,0.979,2.59,0.979,4.25v13.57H76.84V59.75z M71.16,73.44
    c-2.54,0-4.47-0.55-5.79-1.66c-1.32-1.12-1.98-2.74-1.98-4.87c0-2.05,0.61-3.61,1.82-4.67c1.21-1.06,2.98-1.6,5.3-1.6h6.51
    l0.28,3.04h-6.77c-1.22,0-2.15,0.27-2.79,0.82c-0.64,0.55-0.95,1.35-0.95,2.41c0,1.13,0.41,1.98,1.23,2.57s2.01,0.89,3.59,0.89
    c1.71,0,3.01-0.18,3.9-0.53c0.88-0.35,1.33-0.88,1.33-1.57l0.42,2.87c-0.39,0.5-0.89,0.93-1.48,1.27
    c-0.59,0.33-1.28,0.59-2.05,0.77C72.95,73.35,72.1,73.44,71.16,73.44z M88.529,65.52l11.421-13.5h4.17L88.1,70.05L88.529,65.52z
     M86.58,43.55h3.54v29.59h-3.54V43.55z M93.96,61.32l2.21-2.77l8.99,14.59h-4.04L93.96,61.32z M117.26,73.44
    c-1.949,0-3.619-0.37-5-1.11c-1.39-0.74-2.439-1.81-3.16-3.24c-0.729-1.41-1.09-3.11-1.09-5.11V61.6c0-2.09,0.34-3.87,1.04-5.35
    s1.71-2.61,3.05-3.38c1.32-0.77,2.93-1.16,4.791-1.16c1.77,0,3.279,0.41,4.529,1.23c1.24,0.82,2.189,2.01,2.85,3.57
    c0.66,1.56,0.99,3.44,0.99,5.64v1.89h-14.75v-2.99h11.41v-0.1c-0.05-1.9-0.52-3.38-1.391-4.43c-0.879-1.04-2.09-1.57-3.639-1.57
    c-1.761,0-3.131,0.55-4.091,1.68c-0.97,1.12-1.46,2.7-1.46,4.75v2.68c0,1.93,0.52,3.42,1.551,4.46
    c1.029,1.06,2.479,1.58,4.369,1.58c0.91,0,1.82-0.18,2.711-0.55c0.889-0.38,1.689-0.9,2.379-1.58l0,0l2.36,2.32l0,0
    c-1.03,1-2.2,1.78-3.5,2.32C119.91,73.16,118.59,73.44,117.26,73.44L117.26,73.44z M48.12,98.34c0-1.68-0.41-2.98-1.25-3.9
    c-0.83-0.92-2-1.379-3.5-1.379c-1.47,0-2.61,0.439-3.41,1.34c-0.81,0.89-1.21,2.149-1.21,3.779l-1.04-3.56
    c0.68-1.57,1.59-2.78,2.73-3.63c1.16-0.85,2.47-1.27,3.98-1.27c1.54,0,2.84,0.329,3.93,1c1.09,0.68,1.91,1.659,2.47,2.939
    c0.57,1.29,0.85,2.85,0.85,4.66v12.82h-3.55V98.34z M22.29,90.02h3.54v21.121h-3.54V90.02z M35.21,98.34c0-1.68-0.41-2.98-1.21-3.9
    c-0.81-0.92-1.96-1.379-3.45-1.379c-1.51,0-2.67,0.41-3.49,1.229c-0.82,0.819-1.23,1.979-1.23,3.479L25.4,93.7
    c0.68-1.341,1.57-2.341,2.67-3c1.09-0.66,2.35-0.979,3.74-0.979c1.47,0,2.72,0.329,3.75,1c1.04,0.68,1.83,1.659,2.38,2.939
    c0.54,1.29,0.81,2.85,0.81,4.66v12.82h-3.54V98.34z M66.62,111.45c-1.95,0-3.62-0.37-5-1.11c-1.39-0.74-2.44-1.82-3.16-3.24
    c-0.73-1.42-1.09-3.119-1.09-5.109v-2.381c0-2.09,0.34-3.879,1.05-5.359c0.69-1.48,1.7-2.6,3.04-3.37
    c1.32-0.771,2.93-1.159,4.8-1.159c1.76,0,3.27,0.409,4.52,1.229c1.24,0.819,2.19,2.01,2.85,3.569c0.66,1.561,0.99,3.44,0.99,5.631
    v1.89H59.87v-2.979h11.41v-0.11c-0.05-1.89-0.52-3.37-1.39-4.421c-0.88-1.049-2.09-1.579-3.63-1.579c-1.77,0-3.14,0.56-4.1,1.68
    c-0.97,1.12-1.46,2.71-1.46,4.75v2.681c0,1.939,0.52,3.42,1.55,4.469c1.03,1.061,2.48,1.58,4.37,1.58c0.91,0,1.82-0.18,2.71-0.56
    c0.89-0.37,1.69-0.89,2.38-1.569l0,0l2.36,2.31l0,0c-1.03,1-2.2,1.78-3.5,2.33C69.27,111.17,67.95,111.45,66.62,111.45
    L66.62,111.45z M89.779,111.45c-1.51,0-2.789-0.3-3.859-0.9c-1.061-0.6-1.84-1.51-2.34-2.729l0.279-4.41
    c0,0.91,0.19,1.74,0.57,2.48c0.381,0.75,0.92,1.34,1.65,1.77c0.71,0.439,1.561,0.66,2.54,0.66c1.569,0,2.78-0.48,3.64-1.42
    c0.86-0.95,1.28-2.271,1.28-3.98v-4.58c0-1.75-0.42-3.1-1.28-4.05c-0.859-0.96-2.07-1.44-3.64-1.44c-0.979,0-1.83,0.211-2.54,0.631
    c-0.73,0.43-1.27,1-1.65,1.729c-0.38,0.74-0.57,1.55-0.57,2.45l-0.43-4.07c0.69-1.31,1.6-2.27,2.721-2.91
    c1.109-0.64,2.39-0.959,3.83-0.959c1.49,0,2.77,0.329,3.84,1c1.06,0.68,1.869,1.659,2.43,2.939c0.561,1.29,0.83,2.85,0.83,4.66v4.6
    c0,1.79-0.28,3.33-0.85,4.6c-0.57,1.271-1.4,2.25-2.51,2.92C92.62,111.109,91.311,111.45,89.779,111.45z M80.32,81.561h3.539v29.58
    H80.32V81.561z M111.63,111.45c-1.95,0-3.62-0.37-5-1.11c-1.39-0.74-2.44-1.82-3.17-3.24c-0.72-1.42-1.09-3.119-1.09-5.109v-2.381
    c0-2.09,0.351-3.879,1.05-5.359c0.7-1.48,1.71-2.6,3.04-3.37s2.931-1.159,4.8-1.159c1.77,0,3.27,0.409,4.52,1.229
    c1.25,0.819,2.201,2.01,2.861,3.569c0.659,1.561,0.979,3.44,0.979,5.631v1.89h-14.75v-2.979h11.42v-0.11
    c-0.05-1.89-0.521-3.37-1.39-4.421c-0.881-1.049-2.09-1.579-3.641-1.579c-1.76,0-3.13,0.56-4.09,1.68
    c-0.98,1.12-1.46,2.71-1.46,4.75v2.681c0,1.939,0.521,3.42,1.55,4.469c1.02,1.061,2.48,1.58,4.37,1.58c0.91,0,1.81-0.18,2.71-0.56
    c0.891-0.37,1.689-0.89,2.381-1.569l0,0l2.359,2.31l0,0c-1.03,1-2.2,1.78-3.5,2.33C114.279,111.17,112.96,111.45,111.63,111.45
    L111.63,111.45z M128.87,105.63c0,0.71,0.159,1.25,0.489,1.64c0.33,0.381,0.801,0.57,1.4,0.57h1.95v3.34h-2.44
    c-1.58,0-2.789-0.479-3.649-1.459c-0.86-0.98-1.29-2.361-1.29-4.131V81.561h3.54V105.63z"/>
</g>
</symbol>
<symbol id="logo-header-desktop" viewBox="0 0 77 77"  width="77" height="77">
<g id="Слой_x0020_1">
  <g id="_2653717897472">
    <rect width="77" height="77"/>
    <path fill="#FFFFFF" d="M27.69,30.42c0-0.79-0.19-1.41-0.59-1.84c-0.39-0.44-0.94-0.65-1.65-0.65c-0.69,0-1.22,0.21-1.6,0.63
      s-0.57,1.01-0.57,1.78l-0.49-1.68c0.32-0.74,0.75-1.31,1.29-1.71c0.54-0.4,1.16-0.6,1.87-0.6c0.72,0,1.34,0.16,1.85,0.48
      c0.51,0.32,0.9,0.78,1.17,1.38c0.26,0.61,0.39,1.34,0.39,2.2v6.03h-1.67V30.42L27.69,30.42L27.69,30.42z M15.53,26.5h1.66v9.94
      h-1.66V26.5z M21.61,30.42c0-0.79-0.19-1.41-0.57-1.84c-0.38-0.44-0.92-0.65-1.63-0.65s-1.25,0.19-1.64,0.58
      c-0.38,0.38-0.58,0.93-0.58,1.64l-0.2-1.92c0.32-0.63,0.74-1.1,1.26-1.41c0.51-0.31,1.1-0.47,1.76-0.47
      c0.69,0,1.28,0.16,1.77,0.48c0.49,0.32,0.86,0.78,1.11,1.38c0.26,0.61,0.39,1.34,0.39,2.2v6.03h-1.67V30.42L21.61,30.42
      L21.61,30.42z M38.19,30.14c0-0.73-0.2-1.29-0.59-1.7c-0.391-0.4-0.94-0.6-1.65-0.6c-0.439,0-0.86,0.07-1.28,0.21
      c-0.41,0.13-0.79,0.33-1.11,0.57l-1.22-0.83c0.38-0.45,0.88-0.8,1.49-1.06c0.62-0.25,1.3-0.38,2.06-0.38
      c0.82,0,1.53,0.15,2.121,0.44c0.579,0.29,1.029,0.71,1.34,1.27c0.3,0.55,0.46,1.22,0.46,1.99v6.39h-1.62V30.14L38.19,30.14
      L38.19,30.14z M35.511,36.59c-1.191,0-2.101-0.26-2.721-0.79c-0.63-0.52-0.94-1.29-0.94-2.29c0-0.96,0.29-1.7,0.86-2.2
      s1.41-0.75,2.5-0.75h3.061l0.14,1.43h-3.19c-0.58,0-1.01,0.13-1.32,0.39c-0.3,0.25-0.44,0.63-0.44,1.13
      c0,0.53,0.19,0.94,0.58,1.21c0.38,0.28,0.939,0.42,1.689,0.42c0.801,0,1.41-0.08,1.83-0.25c0.42-0.16,0.631-0.41,0.631-0.73
      l0.199,1.35c-0.18,0.23-0.42,0.43-0.699,0.59c-0.28,0.16-0.601,0.28-0.971,0.36C36.36,36.55,35.96,36.59,35.511,36.59
      L35.511,36.59L35.511,36.59L35.511,36.59z M43.7,32.86l5.37-6.36h1.97l-7.55,8.49L43.7,32.86L43.7,32.86L43.7,32.86z
       M42.779,22.51h1.671v13.93h-1.671V22.51z M46.25,30.88l1.04-1.31l4.239,6.87H49.63L46.25,30.88z M57.23,36.59
      c-0.92,0-1.711-0.18-2.36-0.52c-0.649-0.35-1.149-0.86-1.49-1.53c-0.34-0.67-0.51-1.47-0.51-2.41v-1.12
      c0-0.979,0.159-1.82,0.489-2.52c0.33-0.7,0.811-1.23,1.431-1.59c0.63-0.36,1.38-0.55,2.26-0.55c0.83,0,1.54,0.2,2.13,0.58
      c0.59,0.39,1.041,0.95,1.35,1.68c0.311,0.74,0.461,1.63,0.461,2.66v0.89h-6.94v-1.41h5.37V30.7c-0.02-0.89-0.24-1.58-0.66-2.08
      c-0.41-0.49-0.98-0.74-1.71-0.74c-0.829,0-1.47,0.26-1.93,0.79c-0.45,0.53-0.681,1.27-0.681,2.24v1.26c0,0.91,0.24,1.61,0.73,2.1
      c0.48,0.5,1.17,0.75,2.061,0.75c0.43,0,0.85-0.09,1.27-0.27c0.42-0.17,0.8-0.42,1.12-0.74l0,0l1.11,1.09l0,0
      c-0.48,0.48-1.03,0.84-1.65,1.1C58.471,36.46,57.85,36.59,57.23,36.59L57.23,36.59L57.23,36.59z M24.66,48.32
      c0-0.79-0.19-1.41-0.58-1.84c-0.4-0.44-0.95-0.65-1.66-0.65c-0.69,0-1.22,0.21-1.6,0.63c-0.38,0.42-0.57,1.01-0.57,1.78
      l-0.49-1.68c0.32-0.74,0.75-1.311,1.29-1.711c0.54-0.399,1.16-0.6,1.87-0.6c0.72,0,1.34,0.16,1.85,0.48
      c0.51,0.319,0.9,0.779,1.17,1.379c0.26,0.61,0.39,1.341,0.39,2.201v6.029h-1.67V48.32L24.66,48.32L24.66,48.32z M12.5,44.4h1.67
      v9.939H12.5V44.4z M18.58,48.32c0-0.79-0.19-1.41-0.57-1.84c-0.38-0.44-0.92-0.65-1.62-0.65c-0.71,0-1.26,0.189-1.65,0.58
      c-0.38,0.38-0.57,0.93-0.57,1.64l-0.21-1.92c0.32-0.63,0.74-1.1,1.26-1.41c0.52-0.31,1.1-0.47,1.76-0.47
      c0.69,0,1.28,0.16,1.77,0.48c0.49,0.319,0.86,0.779,1.12,1.379c0.25,0.61,0.38,1.341,0.38,2.201v6.029h-1.67V48.32L18.58,48.32
      L18.58,48.32z M33.38,54.49c-0.92,0-1.71-0.18-2.36-0.521c-0.65-0.35-1.15-0.86-1.49-1.53c-0.34-0.67-0.51-1.47-0.51-2.409v-1.12
      c0-0.98,0.16-1.82,0.49-2.52c0.33-0.701,0.81-1.23,1.43-1.591c0.63-0.36,1.38-0.55,2.26-0.55c0.84,0,1.54,0.2,2.13,0.58
      c0.59,0.39,1.04,0.95,1.351,1.68c0.31,0.74,0.459,1.631,0.459,2.66v0.891H30.2v-1.41h5.369V48.6c-0.02-0.89-0.239-1.58-0.649-2.08
      c-0.42-0.489-0.99-0.739-1.72-0.739c-0.83,0-1.47,0.26-1.92,0.79c-0.46,0.529-0.69,1.27-0.69,2.24v1.26
      c0,0.91,0.24,1.609,0.73,2.1c0.48,0.5,1.17,0.75,2.06,0.75c0.43,0,0.85-0.09,1.27-0.27c0.419-0.17,0.8-0.42,1.121-0.74l0,0
      L36.88,53l0,0c-0.48,0.47-1.029,0.84-1.64,1.1C34.62,54.359,34,54.49,33.38,54.49L33.38,54.49L33.38,54.49z M44.279,54.49
      c-0.709,0-1.309-0.141-1.809-0.42c-0.5-0.28-0.871-0.711-1.111-1.29L41.5,50.7c0,0.43,0.08,0.819,0.26,1.17
      c0.18,0.36,0.44,0.63,0.78,0.84c0.34,0.2,0.739,0.3,1.2,0.3c0.74,0,1.31-0.22,1.71-0.66c0.409-0.449,0.6-1.07,0.6-1.88V48.32
      c0-0.83-0.19-1.471-0.6-1.91c-0.4-0.46-0.97-0.68-1.71-0.68c-0.461,0-0.86,0.1-1.2,0.299c-0.34,0.201-0.601,0.471-0.78,0.811
      c-0.18,0.35-0.26,0.73-0.26,1.15l-0.21-1.91c0.33-0.62,0.76-1.07,1.28-1.37c0.529-0.3,1.13-0.46,1.81-0.46
      c0.7,0,1.3,0.16,1.81,0.48c0.5,0.319,0.881,0.779,1.141,1.379c0.26,0.61,0.391,1.341,0.391,2.201v2.159
      c0,0.851-0.131,1.57-0.4,2.171c-0.271,0.6-0.66,1.06-1.18,1.369C45.62,54.33,45.01,54.49,44.279,54.49L44.279,54.49L44.279,54.49z
       M39.83,40.41h1.67v13.93h-1.67V40.41z M54.58,54.49c-0.92,0-1.71-0.18-2.359-0.521c-0.65-0.35-1.15-0.86-1.49-1.53
      s-0.51-1.47-0.51-2.409v-1.12c0-0.98,0.159-1.82,0.489-2.52c0.33-0.701,0.8-1.23,1.431-1.591c0.629-0.36,1.379-0.55,2.26-0.55
      c0.83,0,1.539,0.2,2.129,0.58c0.591,0.39,1.031,0.95,1.351,1.68c0.31,0.74,0.46,1.631,0.46,2.66v0.891h-6.949v-1.41h5.379V48.6
      c-0.029-0.89-0.25-1.58-0.66-2.08C55.7,46.03,55.13,45.78,54.4,45.78c-0.83,0-1.471,0.26-1.93,0.79
      c-0.461,0.529-0.681,1.27-0.681,2.24v1.26c0,0.91,0.239,1.609,0.729,2.1c0.48,0.5,1.17,0.75,2.061,0.75
      c0.42,0,0.85-0.09,1.27-0.27c0.42-0.17,0.801-0.42,1.121-0.74l0,0L58.08,53l0,0c-0.48,0.47-1.03,0.84-1.65,1.1
      C55.82,54.359,55.2,54.49,54.58,54.49L54.58,54.49L54.58,54.49z M62.689,51.75c0,0.33,0.08,0.59,0.24,0.77
      c0.15,0.181,0.37,0.271,0.65,0.271h0.92v1.569h-1.15c-0.74,0-1.31-0.219-1.72-0.689c-0.399-0.46-0.601-1.1-0.601-1.939V40.41h1.66
      V51.75L62.689,51.75L62.689,51.75z"/>
    <rect x="0.5" y="0.5" fill="#FFFFFF" width="76" height="3"/>
    <rect x="0.5" y="73.5" fill="#FFFFFF" width="76" height="3"/>
    <rect x="0.474" y="0.996" fill="#FFFFFF" width="2.999" height="75.004"/>
    <rect x="73.529" y="0.996" fill="#FFFFFF" width="2.998" height="75.004"/>
  </g>
</g>
  </symbol>
</svg>
