<?xml version="1.0" encoding="UTF-8"?>
<!DOCTYPE svg PUBLIC "-//W3C//DTD SVG 1.1//EN" "http://www.w3.org/Graphics/SVG/1.1/DTD/svg11.dtd">
<!-- Creator: CorelDRAW 2020 (64-Bit) -->
<svg xmlns="http://www.w3.org/2000/svg" xml:space="preserve" width="153px" height="128px" version="1.1" style="shape-rendering:geometricPrecision; text-rendering:geometricPrecision; image-rendering:optimizeQuality; fill-rule:evenodd; clip-rule:evenodd"
viewBox="0 0 153 128"
 xmlns:xlink="http://www.w3.org/1999/xlink"
 xmlns:xodm="http://www.corel.com/coreldraw/odm/2003">
 <defs>
  <style type="text/css">
   <![CDATA[
    .fil1 {fill:#632D11}
    .fil2 {fill:#DCE2DB}
    .fil0 {fill:#F5B2B6}
    .fil3 {fill:#F8EBE2}
   ]]>
  </style>
 </defs>
 <g id="Слой_x0020_1">
  <metadata id="CorelCorpID_0Corel-Layer"/>
  <g id="_2726217552144">
   <path class="fil0" d="M120.44 83.11c-0.02,-1.47 1.02,-19.62 1.03,-19.63 1.02,-2.28 6.01,-2.2 8.55,-1.6 2.72,0.63 5.21,2.45 6.42,4.01 5.11,6.63 2.05,23.65 -16,17.22zm-12.88 -50.51c-9.59,4.9 -24.77,8.2 -37.03,8.18 -9.34,-0.01 -29.69,-3.22 -36.04,-7.91 -2.55,-0.61 -4.05,-1.44 -6.18,-2.65 -2.71,-1.54 -3.42,-2.48 -5.32,-1.63 0.54,5.53 -1.37,19.93 -1.71,26.78 -1.24,25.62 -1.19,49.65 21.19,64.34 12.34,8.11 30.93,11.06 47.37,6.19 8.71,-2.58 12.93,-6.14 17.97,-11.21 2.1,-2.12 3.92,-5.32 5.63,-8.64 1.82,-3.56 2.66,-7.4 4.37,-10.48 19.25,2.29 11.39,-0.33 19.57,-0.42 1.87,-1.93 20.98,-11.26 13.32,-30.56 -2.2,-5.53 -6.26,-9.52 -11.38,-11.96 -8.66,-4.13 -10.15,-2.51 -18.85,-1.02 -0.25,-4.43 -0.8,-8.73 -1.37,-13.08 -0.48,-3.72 -0.59,-11.14 -2.48,-10.8 -2.89,2.24 -5.58,3.18 -9.06,4.87z"/>
   <path class="fil1" d="M34.49 32.87c6.35,4.69 26.7,7.9 36.04,7.91 12.26,0.02 27.44,-3.28 37.03,-8.18 -4.92,-4.51 -28.66,-7.18 -37.03,-7.31 -10.94,-0.17 -27.65,2.52 -36.04,7.58z"/>
   <path class="fil2" d="M53.36 20c-5.68,0.93 -27.78,7.02 -29.47,6.88 -1.22,1.1 -0.53,-0.01 -0.9,1.71 1.9,-0.85 2.61,0.09 5.32,1.63 2.13,1.21 3.63,2.04 6.18,2.65 8.39,-5.06 25.1,-7.75 36.04,-7.58 8.37,0.13 32.11,2.8 37.03,7.31 3.48,-1.69 6.17,-2.63 9.06,-4.87 -3.04,-2.76 -9.46,-3.5 -13.84,-4.72 -4.64,-1.28 -10.34,-2.61 -15.26,-3.42 -12.94,-2.16 -21.55,-1.33 -34.16,0.41z"/>
   <path class="fil3" d="M130.94 18.68c2.09,-4.89 12.63,-14.33 4.96,-18.85 -4.92,0.51 -4.31,4.53 -6.48,8.68 -2.35,-3.92 -1.11,-9.13 -7.8,-8.75 -5.4,9.72 4.21,17.14 9.32,18.92z"/>
   <path class="fil3" d="M-0.5 105.87c0.68,1.11 5.02,3.14 6.79,4.8l-1.2 6.46c2.65,-1.29 3.04,-2.82 5.8,-4.19 1.87,0.84 1.7,0.83 2.97,1.85l3.27 2.2c-0.56,-3.04 -1.59,-4.45 -2.04,-7.25l6.08 -3.86 -7.25 -0.34 -2.12 -8.4c-6.04,8.48 1.63,7.92 -12.3,8.73z"/>
  </g>
 </g>
</svg>
