<?xml version="1.0" encoding="UTF-8"?>
<!DOCTYPE svg PUBLIC "-//W3C//DTD SVG 1.1//EN" "http://www.w3.org/Graphics/SVG/1.1/DTD/svg11.dtd">
<!-- Creator: CorelDRAW 2020 (64-Bit) -->
<svg xmlns="http://www.w3.org/2000/svg" xml:space="preserve" width="169px" height="122px" version="1.1" style="shape-rendering:geometricPrecision; text-rendering:geometricPrecision; image-rendering:optimizeQuality; fill-rule:evenodd; clip-rule:evenodd"
viewBox="0 0 169 122"
 xmlns:xlink="http://www.w3.org/1999/xlink"
 xmlns:xodm="http://www.corel.com/coreldraw/odm/2003">
 <defs>
  <style type="text/css">
   <![CDATA[
    .fil0 {fill:#41210A}
    .fil11 {fill:#A7AD0A}
    .fil7 {fill:#ABB10B}
    .fil8 {fill:#B3DADC}
    .fil10 {fill:#B5DBDE}
    .fil13 {fill:#B5DCE1}
    .fil1 {fill:#E5B992}
    .fil9 {fill:#ED6423}
    .fil12 {fill:#F06524}
    .fil4 {fill:#F26423}
    .fil5 {fill:#F8C706}
    .fil3 {fill:#F8EBE2}
    .fil6 {fill:#FAC609}
    .fil2 {fill:#FEFEFE}
   ]]>
  </style>
 </defs>
 <g id="Слой_x0020_1">
  <metadata id="CorelCorpID_0Corel-Layer"/>
  <g id="_2726424292160">
   <path class="fil0" d="M50.26 97.26c-0.94,1.59 1.08,1.02 -2.61,1.79 -2.14,0.44 -2.34,0.44 -3.66,-0.25 0.69,-2.25 -1.23,-1.14 2.16,-2.02 0.07,-0.02 1.79,-0.24 1.8,-0.24 2.49,0.1 1.2,0.07 2.31,0.72zm11.66 -4.73c0.58,-1.78 -0.57,-1.43 2.75,-2.27 1.87,-0.46 1.55,-0.73 3.13,0.25 -0.62,2.56 -4.05,2.83 -5.88,2.02zm25.49 -3.37c1.1,-1.34 0.48,-1.34 2.96,-0.66 2.98,0.81 2.6,0.56 2.78,2.68 -2.05,0.63 -4.71,-0.74 -5.74,-2.02zm21.59 -1.35c1.15,-1.29 0.4,-1.36 2.69,-0.41 2.08,0.87 2.67,0.93 3.13,3.2 -2.26,0.29 -4.78,-1.21 -5.82,-2.79zm-93.2 -3.01c-2.27,0.68 -7.26,-1.2 -5.29,-3.12 0.74,-0.72 5.05,0.8 5.29,3.12zm7.56 -3.74c0.79,-1.41 -0.78,-1.4 2.92,-1.54 2.07,-0.08 1.98,-0.01 3.28,0.86 0,0.01 0.29,2.66 -4.58,1.5 -1.34,-0.32 -0.77,-0.25 -1.62,-0.82zm73.05 2.35c-0.88,-2 0.69,-5.43 3.24,-5.41 0.4,2.33 -1.34,5.37 -3.24,5.41zm-57.94 -5.11c2.37,0.1 1.98,0.16 3.19,1.57 0.99,1.13 1.32,1.45 1.65,3.35 -2.71,-0.32 -4.48,-2.29 -4.84,-4.92zm79.75 -2.64c1.61,-0.94 0.97,-0.77 3.3,-0.59 3.92,0.29 2.39,0.44 2.75,1.94 -1.59,0.7 -1.18,0.61 -3.34,0.42 -4.25,-0.37 -2.21,-1.2 -2.71,-1.77zm-13.58 -7.87c1.83,1.04 2.23,3.94 1.35,6.04 -1.89,-0.58 -1.14,1.76 -2.06,-2.28 -0.61,-2.65 -0.59,-2.46 0.71,-3.76zm-93.19 5.76c-0.07,-2.38 0.96,-4.8 3.2,-5.66 1.26,1.49 1.1,1.04 -0.14,3.37 -1.13,2.12 -0.75,2.07 -3.06,2.29zm11.66 -0.87c-0.9,-1.71 -0.84,-1.3 0.43,-3.09 1.49,-2.12 0.87,-2.35 3.02,-2.26 0.73,2.48 -1.32,4.6 -3.45,5.35zm22.27 -1.18c-3.07,-3.73 -0.72,-11.24 2.18,-15.75 1.52,-2.36 0.82,-1.52 3.07,-3.7 11.19,-10.79 30.45,-12.57 40.1,-3.68 5.28,4.86 9.86,13.65 7.07,19.17 -0.79,10.78 -13.04,16.79 -24.22,17.26 -11.8,0.5 -26.38,-4.59 -28.2,-13.3zm-12.12 -4.62c1.16,-1.85 4.45,-2.32 6.24,-1.19 -0.99,1.93 -4.26,3.04 -6.24,1.19zm79.48 1.52c-1.18,-2.87 -0.29,-4.95 2.03,-5.93 0.39,0.9 0.75,1.07 0.26,3.3 -0.79,3.58 -0.57,2.18 -2.29,2.63zm18.91 -3.53c-0.88,-1.46 -0.96,-1.4 -0.42,-3.8 0.74,-3.29 0.29,-1.64 1.78,-2.37 0.84,1.38 1.04,1.38 0.49,3.84 -0.75,3.3 -0.42,1.72 -1.85,2.33zm-12.2 -8.77c-0.4,-3.01 0.36,-3.08 0.72,-3.62 2.05,1.3 2.38,3.55 1.35,6.09 -1.37,-0.22 -1.67,0.58 -2.07,-2.47zm-97.44 0.2c3.08,3.39 1.06,3.3 1.04,3.35 -4.91,0.63 -5.94,-8.74 -1.04,-3.35zm-10.57 1.51c-0.5,-0.92 -0.67,0.42 -0.66,-2.3 0.01,-3.9 2.01,-3.84 2.01,-3.84 1.27,1.38 1.17,1.11 0.58,3.55 -0.86,3.56 -0.38,1.69 -1.93,2.59zm93.2 -3.75c0.56,-2.64 4.2,-3.33 5.91,-2.03 -0.75,1.91 0.71,0.97 -2.64,1.95 -1.83,0.54 -1.65,0.67 -3.27,0.08zm-69.18 -0.27c0.2,2.39 -0.25,1.82 -1.75,2.14 -2.39,-6.4 -0.51,-5.8 0.02,-6.27 1.2,1.3 1.56,2.07 1.73,4.13zm95.9 -7.16c-1.65,1.52 -4.74,2.21 -6.43,0 0.25,-1.31 4.18,-2.46 6.43,0zm-34.82 0.27c-2.34,-1.06 -2.62,-4.27 -1.36,-6.14 1.66,0.62 1.48,-0.18 1.87,2.72 0.26,2.02 -0.03,2.45 -0.51,3.42zm-58.7 -4.81c2.51,0.22 4.48,3.32 3.26,5.36 -1.73,0.21 -3.46,-2.98 -3.26,-5.36zm-13.17 3.03c-4.37,-0.61 -1.92,-0.05 -2.67,-1.86 1.39,-0.65 2.1,-0.89 4.22,-0.41 1.94,0.44 1.38,0.41 2,1.91 -1.06,0.36 -2.05,0.57 -3.55,0.36zm90.07 -7.37c2.42,0.04 5.05,0.54 5.88,2.81 -1.95,1.27 -5.33,0.08 -5.88,-2.81zm-63.8 2.13c1.53,-1.72 4.28,-2.73 6.12,-1.35 -0.75,2.06 -4.38,3.21 -6.12,1.35zm53.02 3.46c-0.29,-0.49 -1.45,0.44 -0.23,-3.66 0.85,-2.86 0.7,-1.98 2.46,-2.46 0.53,2.52 0.05,5.04 -2.23,6.12zm-21.99 -9.17c2.58,-0.05 3.62,2.9 3.94,5.3 -2.26,-0.41 -1.84,-0.26 -3.12,-2.09 -1.46,-2.08 -1.25,-1.05 -0.82,-3.21zm-39.92 0.4c-0.27,0.12 0.44,2.06 -3.58,-0.78 -1.64,-1.15 -1.48,-0.55 -1.79,-2.47 2.58,-0.57 5.59,1.34 5.37,3.25zm20.86 -3.45c0.31,2.77 0.47,1.77 -0.82,3.24 -2.27,-1.21 -2.74,-4.46 -0.67,-6.33 0.18,0.17 1.16,0.13 1.49,3.09zm32.91 -0.07c-0.13,1.41 -0.18,0.8 -0.64,1.59 0,0 -2.92,0.9 -1.67,-5.86 0,0 2.85,-1.78 2.31,4.27zm-22.25 0.62c-1.38,-0.98 -1.33,0.14 -0.94,-2.85 0.34,-2.61 0.1,-2.1 1.62,-3.5 1.56,2.07 1.25,4.77 -0.68,6.35zm-22.18 -1.91c-0.06,0.04 0.09,1.75 -3.96,-0.17 -2.26,-1.08 -1.67,-0.08 -1.9,-2.31 2.86,-0.63 4.84,0.2 5.86,2.48zm-43.76 22.67c-6,12.56 -5.68,28.72 1.68,40.86 1.3,2.14 2.22,2.85 2.56,4.52 0.92,0.64 0.53,0.24 1.33,1.03 0.05,0.05 0.79,0.94 0.92,1.09 2.91,-1.36 3.56,-6.36 5.04,-8.97 4.78,-0.76 3.52,-0.19 7.1,1.61 4.45,2.24 5.31,-0.51 9.34,0.67 5.92,1.73 4.17,20.2 13,15.56 3.4,-1.77 4.75,-10.09 8.67,-11.64 3.07,-1.22 3.82,1.26 7.52,1.37 2.39,-1.49 2.81,-3.92 6.61,-3.27 3.65,0.63 2.82,3.04 6.22,4.63 3.61,-0.91 8.07,-5.33 11.69,0.53 2.25,3.64 2.82,11.02 8.92,8.58 4.29,-3.61 -0.72,-9.8 4.2,-13.97 5.23,-4.44 8.66,1.29 13.7,0.74 1.15,-1.64 1.71,-3.65 2.68,-5.13 7.94,-0.66 1.35,6.83 9.65,6.62 4.11,-5.66 -1.23,-10.12 3.42,-12.85 2.77,-1.46 4.13,1.01 7.76,1.35 -0.13,-2.05 1.84,-8.17 2.11,-11.49 1.68,-20.44 -8.84,-36.81 -27.18,-45.68 -31.4,-15.17 -89.95,-12.67 -106.94,23.84z"/>
   <path class="fil1" d="M14.12 99.93c22.7,25.68 80.28,24.63 104.2,9.65 5.24,-3.28 8.03,-5.47 12.37,-9.91 4.32,-4.43 5.46,-7.72 8.04,-12.32l0.6 -1.05c0.08,-0.14 0.21,-0.36 0.31,-0.54 -3.63,-0.34 -4.99,-2.81 -7.76,-1.35 -4.65,2.73 0.69,7.19 -3.42,12.85 -8.3,0.21 -1.71,-7.28 -9.65,-6.62 -0.97,1.48 -1.53,3.49 -2.68,5.13 -5.04,0.55 -8.47,-5.18 -13.7,-0.74 -4.92,4.17 0.09,10.36 -4.2,13.97 -6.1,2.44 -6.67,-4.94 -8.92,-8.58 -3.62,-5.86 -8.08,-1.44 -11.69,-0.53 -3.4,-1.59 -2.57,-4 -6.22,-4.63 -3.8,-0.65 -4.22,1.78 -6.61,3.27 -3.7,-0.11 -4.45,-2.59 -7.52,-1.37 -3.92,1.55 -5.27,9.87 -8.67,11.64 -8.83,4.64 -7.08,-13.83 -13,-15.56 -4.03,-1.18 -4.89,1.57 -9.34,-0.67 -3.58,-1.8 -2.32,-2.37 -7.1,-1.61 -1.48,2.61 -2.13,7.61 -5.04,8.97z"/>
   <path class="fil2" d="M45.38 71.5c1.82,8.71 16.4,13.8 28.2,13.3 11.18,-0.47 23.43,-6.48 24.22,-17.26l-0.59 -1.62c-12.42,-3.53 -29.38,-6.22 -42.61,-1.15 -2.54,0.98 -9.7,3.63 -9.22,6.73z"/>
   <path class="fil1" d="M45.38 71.5c-0.48,-3.1 6.68,-5.75 9.22,-6.73 13.23,-5.07 30.19,-2.38 42.61,1.15l0.59 1.62c2.79,-5.52 -1.79,-14.31 -7.07,-19.17 -9.65,-8.89 -28.91,-7.11 -40.1,3.68 -2.25,2.18 -1.55,1.34 -3.07,3.7 -2.9,4.51 -5.25,12.02 -2.18,15.75z"/>
   <path class="fil3" d="M10.43 1.23c0.17,2.69 -0.54,3.82 -1.2,6.21l-9.73 -0.88c1.82,2.69 4.01,3.87 5.54,6.32l-3.35 8.91c7.6,-1.29 6.76,-7.39 12.61,-2.33 2.2,1.91 1.04,1.41 3.48,2.38l-1.6 -9.04c1.41,-1.15 5.8,-3.27 6.81,-5.3l-9.18 -0.12 -0.14 -3.2c-1.08,-1.37 -1.23,-2.73 -1.52,-4.22l-1.72 1.27z"/>
   <path class="fil3" d="M157.97 106.85c-2.25,-1.31 -3.26,-2.96 -5.38,-4.91l1.53 7.29 -8.77 2.49c1.01,0.86 0.12,0.35 1.65,1.07 0.57,0.27 1.12,0.43 1.73,0.57 1.39,0.33 2.12,0.1 3.69,0.67l-1.13 5.95c3.21,-1.34 2.89,-3.27 6.68,-4.78 2.6,2.28 2.13,4.72 5.13,6.84l-0.75 -8.06 5.69 -1.97c0.13,-0.1 0.33,-0.27 0.46,-0.44l-6.04 -2.69c-0.15,-3.58 0.7,-4.34 0.45,-6.64 -0.01,-0.11 -0.08,-0.35 -0.09,-0.44 -0.02,-0.08 -0.06,-0.29 -0.12,-0.41 -1.81,2.11 -2.36,4.04 -4.73,5.46z"/>
   <path class="fil4" d="M23.05 59.65c0.02,-0.05 2.04,0.04 -1.04,-3.35 -4.9,-5.39 -3.87,3.98 1.04,3.35z"/>
   <path class="fil5" d="M93.51 26.78c-1.25,6.76 1.67,5.86 1.67,5.86 0.46,-0.79 0.51,-0.18 0.64,-1.59 0.54,-6.05 -2.31,-4.27 -2.31,-4.27z"/>
   <path class="fil6" d="M11.44 57.81c1.55,-0.9 1.07,0.97 1.93,-2.59 0.59,-2.44 0.69,-2.17 -0.58,-3.55 0,0 -2,-0.06 -2.01,3.84 -0.01,2.72 0.16,1.38 0.66,2.3z"/>
   <path class="fil6" d="M43.99 98.8c1.32,0.69 1.52,0.69 3.66,0.25 3.69,-0.77 1.67,-0.2 2.61,-1.79 -1.11,-0.65 0.18,-0.62 -2.31,-0.72 -0.01,0 -1.73,0.22 -1.8,0.24 -3.39,0.88 -1.47,-0.23 -2.16,2.02z"/>
   <path class="fil7" d="M26.28 79.52c-3.7,0.14 -2.13,0.13 -2.92,1.54 0.85,0.57 0.28,0.5 1.62,0.82 4.87,1.16 4.58,-1.49 4.58,-1.5 -1.3,-0.87 -1.21,-0.94 -3.28,-0.86z"/>
   <path class="fil7" d="M103.96 43.34c2.28,-1.08 2.76,-3.6 2.23,-6.12 -1.76,0.48 -1.61,-0.4 -2.46,2.46 -1.22,4.1 -0.06,3.17 0.23,3.66z"/>
   <path class="fil8" d="M62.09 34.36c1.29,-1.47 1.13,-0.47 0.82,-3.24 -0.33,-2.96 -1.31,-2.92 -1.49,-3.09 -2.07,1.87 -1.6,5.12 0.67,6.33z"/>
   <path class="fil9" d="M33.71 55.93c1.5,-0.32 1.95,0.25 1.75,-2.14 -0.17,-2.06 -0.53,-2.83 -1.73,-4.13 -0.53,0.47 -2.41,-0.13 -0.02,6.27z"/>
   <path class="fil5" d="M51.39 29.76c-1.02,-2.28 -3,-3.11 -5.86,-2.48 0.23,2.23 -0.36,1.23 1.9,2.31 4.05,1.92 3.9,0.21 3.96,0.17z"/>
   <path class="fil10" d="M131.65 64.87c1.43,-0.61 1.1,0.97 1.85,-2.33 0.55,-2.46 0.35,-2.46 -0.49,-3.84 -1.49,0.73 -1.04,-0.92 -1.78,2.37 -0.54,2.4 -0.46,2.34 0.42,3.8z"/>
   <path class="fil10" d="M11.45 73.55c2.31,-0.22 1.93,-0.17 3.06,-2.29 1.24,-2.33 1.4,-1.88 0.14,-3.37 -2.24,0.86 -3.27,3.28 -3.2,5.66z"/>
   <path class="fil11" d="M121.52 75.07c-2.33,-0.18 -1.69,-0.35 -3.3,0.59 0.5,0.57 -1.54,1.4 2.71,1.77 2.16,0.19 1.75,0.28 3.34,-0.42 -0.36,-1.5 1.17,-1.65 -2.75,-1.94z"/>
   <path class="fil7" d="M112.74 68.4c1.72,-0.45 1.5,0.95 2.29,-2.63 0.49,-2.23 0.13,-2.4 -0.26,-3.3 -2.32,0.98 -3.21,3.06 -2.03,5.93z"/>
   <path class="fil11" d="M124.93 46.63c1.69,2.21 4.78,1.52 6.43,0 -2.25,-2.46 -6.18,-1.31 -6.43,0z"/>
   <path class="fil9" d="M23.11 72.68c2.13,-0.75 4.18,-2.87 3.45,-5.35 -2.15,-0.09 -1.53,0.14 -3.02,2.26 -1.27,1.79 -1.33,1.38 -0.43,3.09z"/>
   <path class="fil12" d="M103.93 71.55c0.92,4.04 0.17,1.7 2.06,2.28 0.88,-2.1 0.48,-5 -1.35,-6.04 -1.3,1.3 -1.32,1.11 -0.71,3.76z"/>
   <path class="fil7" d="M22 43.26c0.75,1.81 -1.7,1.25 2.67,1.86 1.5,0.21 2.49,0 3.55,-0.36 -0.62,-1.5 -0.06,-1.47 -2,-1.91 -2.12,-0.48 -2.83,-0.24 -4.22,0.41z"/>
   <path class="fil10" d="M42.05 34.57c0.22,-1.91 -2.79,-3.82 -5.37,-3.25 0.31,1.92 0.15,1.32 1.79,2.47 4.02,2.84 3.31,0.9 3.58,0.78z"/>
   <path class="fil5" d="M121.52 58.57c1.03,-2.54 0.7,-4.79 -1.35,-6.09 -0.36,0.54 -1.12,0.61 -0.72,3.62 0.4,3.05 0.7,2.25 2.07,2.47z"/>
   <path class="fil13" d="M10.51 81.68c-1.97,1.92 3.02,3.8 5.29,3.12 -0.24,-2.32 -4.55,-3.84 -5.29,-3.12z"/>
   <path class="fil4" d="M61.92 92.53c1.83,0.81 5.26,0.54 5.88,-2.02 -1.58,-0.98 -1.26,-0.71 -3.13,-0.25 -3.32,0.84 -2.17,0.49 -2.75,2.27z"/>
   <path class="fil8" d="M73.57 31.67c1.93,-1.58 2.24,-4.28 0.68,-6.35 -1.52,1.4 -1.28,0.89 -1.62,3.5 -0.39,2.99 -0.44,1.87 0.94,2.85z"/>
   <path class="fil8" d="M96.54 46.9c0.48,-0.97 0.77,-1.4 0.51,-3.42 -0.39,-2.9 -0.21,-2.1 -1.87,-2.72 -1.26,1.87 -0.98,5.08 1.36,6.14z"/>
   <path class="fil7" d="M85.91 39.47c-0.32,-2.4 -1.36,-5.35 -3.94,-5.3 -0.43,2.16 -0.64,1.13 0.82,3.21 1.28,1.83 0.86,1.68 3.12,2.09z"/>
   <path class="fil8" d="M111.69 87.4c-2.29,-0.95 -1.54,-0.88 -2.69,0.41 1.04,1.58 3.56,3.08 5.82,2.79 -0.46,-2.27 -1.05,-2.33 -3.13,-3.2z"/>
   <path class="fil4" d="M104.64 54.06c1.62,0.59 1.44,0.46 3.27,-0.08 3.35,-0.98 1.89,-0.04 2.64,-1.95 -1.71,-1.3 -5.35,-0.61 -5.91,2.03z"/>
   <path class="fil6" d="M90.37 88.5c-2.48,-0.68 -1.86,-0.68 -2.96,0.66 1.03,1.28 3.69,2.65 5.74,2.02 -0.18,-2.12 0.2,-1.87 -2.78,-2.68z"/>
   <path class="fil10" d="M96.41 83.41c1.9,-0.04 3.64,-3.08 3.24,-5.41 -2.55,-0.02 -4.12,3.41 -3.24,5.41z"/>
   <path class="fil6" d="M120.62 40.56c-0.83,-2.27 -3.46,-2.77 -5.88,-2.81 0.55,2.89 3.93,4.08 5.88,2.81z"/>
   <path class="fil7" d="M41.1 47.45c1.22,-2.04 -0.75,-5.14 -3.26,-5.36 -0.2,2.38 1.53,5.57 3.26,5.36z"/>
   <path class="fil12" d="M41.66 79.87c-1.21,-1.41 -0.82,-1.47 -3.19,-1.57 0.36,2.63 2.13,4.6 4.84,4.92 -0.33,-1.9 -0.66,-2.22 -1.65,-3.35z"/>
   <path class="fil9" d="M50.94 39.88c1.74,1.86 5.37,0.71 6.12,-1.35 -1.84,-1.38 -4.59,-0.37 -6.12,1.35z"/>
   <path class="fil6" d="M33.26 66.88c1.98,1.85 5.25,0.74 6.24,-1.19 -1.79,-1.13 -5.08,-0.66 -6.24,1.19z"/>
  </g>
 </g>
</svg>
