<?xml version="1.0" encoding="UTF-8"?>
<!DOCTYPE svg PUBLIC "-//W3C//DTD SVG 1.1//EN" "http://www.w3.org/Graphics/SVG/1.1/DTD/svg11.dtd">
<!-- Creator: CorelDRAW 2020 (64-Bit) -->
<svg xmlns="http://www.w3.org/2000/svg" xml:space="preserve" width="116px" height="150px" version="1.1" style="shape-rendering:geometricPrecision; text-rendering:geometricPrecision; image-rendering:optimizeQuality; fill-rule:evenodd; clip-rule:evenodd"
viewBox="0 0 116 150"
 xmlns:xlink="http://www.w3.org/1999/xlink"
 xmlns:xodm="http://www.corel.com/coreldraw/odm/2003">
 <defs>
  <style type="text/css">
   <![CDATA[
    .fil2 {fill:#41210A}
    .fil3 {fill:#5C3513}
    .fil4 {fill:#603714}
    .fil5 {fill:#B5DADD}
    .fil0 {fill:#E5B992}
    .fil1 {fill:#F6D6BA}
    .fil6 {fill:#F8EBE2}
   ]]>
  </style>
 </defs>
 <g id="Слой_x0020_1">
  <metadata id="CorelCorpID_0Corel-Layer"/>
  <g id="_2726426289168">
   <path class="fil0" d="M79.9 88.52c7.93,-2.03 9.89,9.77 8.62,16.74 -1.21,6.69 -5.73,14.82 -10.55,16.13 -4.11,1.11 -7.12,-1.87 -8.39,-4.81 -4.13,-9.65 2.94,-26.17 10.32,-28.06zm-32.5 -0.49c15.3,-5.9 22.25,21.86 17.87,29.63 -1.76,3.13 -2.67,2.94 -3.67,3.08 -2.98,2.89 -9.04,-1.37 -10.38,-2.75 -3.94,-4.03 -8.37,-14.26 -8.67,-20.76 -0.27,-5.74 1.63,-7.11 4.85,-9.2zm-17.39 0.46l6.3 34.04c1.44,-0.11 3.19,-0.23 4.63,-0.24 5.58,-0.04 3.39,1.89 9.79,5.81 12.19,7.45 26.15,5.19 36.42,-5.51 2.31,-2.41 5.06,-1.91 8.88,-1.75l6.11 -37.69 -14.91 0.89c-0.47,-0.14 -5.85,-5.81 -12.26,-7.87 -5.35,-1.71 -11.31,-2 -16.75,-0.48 -14.55,4.07 -10.74,9.92 -18.41,10.27 -2.85,0.13 -6.53,0.27 -9.25,0.14 -0.74,1.2 -1.06,-1.8 -0.55,2.39z"/>
   <path class="fil1" d="M25.14 60.14c-0.12,3.09 3.95,26.42 4.87,28.35 -0.51,-4.19 -0.19,-1.19 0.55,-2.39 2.72,0.13 6.4,-0.01 9.25,-0.14 7.67,-0.35 3.86,-6.2 18.41,-10.27 5.44,-1.52 11.4,-1.23 16.75,0.48 6.41,2.06 11.79,7.73 12.26,7.87l14.91 -0.89c1.08,-6.45 2.9,-17.08 2.53,-23.59l-79.53 0.58z"/>
   <path class="fil2" d="M26.68 42.68c-6.58,0.21 -5.56,1.26 -5.78,8.03 -0.19,5.84 -1.91,8.97 4.24,9.43l79.53 -0.58c5.16,0.18 3.81,-5.79 3.69,-10.36 -0.15,-5.67 -1.29,-7.7 -6.91,-7.83l-74.77 1.31z"/>
   <path class="fil1" d="M36.31 122.53c0.61,3.69 1.31,7.47 2.11,11.1 0.69,3.11 2.6,8.6 2.78,10.65 1.83,1.16 1.18,1.6 2.91,2.86 5.34,3.88 29.35,2.93 35.65,1.98 7.29,-1.1 10.64,-2.82 12.38,-9.67 1.58,-6.21 2.93,-12.12 3.89,-18.61 -3.82,-0.16 -6.57,-0.66 -8.88,1.75 -10.27,10.7 -24.23,12.96 -36.42,5.51 -6.4,-3.92 -4.21,-5.85 -9.79,-5.81 -1.44,0.01 -3.19,0.13 -4.63,0.24z"/>
   <path class="fil0" d="M53.04 26.16l-11.87 0.5c-5.33,0.17 -7.95,0.8 -9.93,4.99 -1.26,2.66 -4.04,8.34 -4.56,11.03l74.77 -1.31c-0.98,-4 -2.98,-8.39 -4.89,-11.08 -3.02,-4.26 -4.65,-5.05 -11.59,-4.91 -10.65,0.2 -21.32,0.66 -31.93,0.78z"/>
   <path class="fil2" d="M79.9 88.52c-7.38,1.89 -14.45,18.41 -10.32,28.06 1.27,2.94 4.28,5.92 8.39,4.81 4.82,-1.31 9.34,-9.44 10.55,-16.13 1.27,-6.97 -0.69,-18.77 -8.62,-16.74z"/>
   <path class="fil3" d="M47.4 88.03c-1.67,9.41 3.61,13.09 7.93,17.93 3.04,3.4 7.96,11.52 4.78,13.89 1.13,1.39 -1.5,2.3 1.49,0.89 1,-0.14 1.91,0.05 3.67,-3.08 4.38,-7.77 -2.57,-35.53 -17.87,-29.63z"/>
   <path class="fil4" d="M61.6 120.74c-2.99,1.41 -0.36,0.5 -1.49,-0.89 3.18,-2.37 -1.74,-10.49 -4.78,-13.89 -4.32,-4.84 -9.6,-8.52 -7.93,-17.93 -3.22,2.09 -5.12,3.46 -4.85,9.2 0.3,6.5 4.73,16.73 8.67,20.76 1.34,1.38 7.4,5.64 10.38,2.75z"/>
   <path class="fil5" d="M35.01 1.21c1.62,3.63 5.65,21.01 6.16,25.45l11.87 -0.5 -2.41 -0.11c-0.55,-4.05 -4.88,-23.18 -6.34,-26.01l-9.28 1.17z"/>
   <path class="fil6" d="M108.52 149.59c3.07,-5.06 9.4,-13.28 6.6,-17.05 -3.38,-4.55 -6.5,3.56 -6.57,3.66l-0.92 1.03c-1.05,-2.2 -1.51,-4.83 -4.34,-5.93 -4.62,1.37 -3.94,6.15 -1.41,9.96 0.99,1.49 4.84,7.48 6.64,8.33z"/>
   <path class="fil6" d="M6.64 49.69c3.29,-3.73 9.28,-17.04 3.65,-15.24 -0.8,0.26 -1.12,0.78 -1.58,1.39 -0.9,1.18 -1.16,2.2 -2.07,3.28 -1.18,-1.85 -1.36,-4.34 -3.54,-4.88 -6.57,-1.62 -0.03,9.36 0.32,10.12 0.93,1.97 1.53,4.37 3.22,5.33z"/>
  </g>
 </g>
</svg>
