<?xml version="1.0" encoding="UTF-8"?>
<!DOCTYPE svg PUBLIC "-//W3C//DTD SVG 1.1//EN" "http://www.w3.org/Graphics/SVG/1.1/DTD/svg11.dtd">
<!-- Creator: CorelDRAW 2020 (64-Bit) -->
<svg xmlns="http://www.w3.org/2000/svg" xml:space="preserve" width="184px" height="120px" version="1.1" style="shape-rendering:geometricPrecision; text-rendering:geometricPrecision; image-rendering:optimizeQuality; fill-rule:evenodd; clip-rule:evenodd"
viewBox="0 0 184 120"
 xmlns:xlink="http://www.w3.org/1999/xlink"
 xmlns:xodm="http://www.corel.com/coreldraw/odm/2003">
 <defs>
  <style type="text/css">
   <![CDATA[
    .fil6 {fill:#9BCBD0}
    .fil5 {fill:#ADCBB5}
    .fil3 {fill:#E6BB4A}
    .fil0 {fill:#F06524}
    .fil2 {fill:#F5EBBB}
    .fil4 {fill:#F8EBE2}
    .fil1 {fill:#FDD661}
   ]]>
  </style>
 </defs>
 <g id="Слой_x0020_1">
  <metadata id="CorelCorpID_0Corel-Layer"/>
  <g id="_2726426479568">
   <path class="fil0" d="M22.05 41.42c17.11,-5.05 38.96,3.84 38.1,-7.89 -8.28,-1.81 -21.89,0.93 -31,1.72 -23.62,2.05 -22.01,-6.81 -12.64,-8.08 9.56,-1.3 21.24,1.07 31.5,1.02 5.55,-0.02 10,0.01 15.41,-1.25 9.3,-2.15 5.03,-6.46 6.47,-8.99 1.74,1.69 2.12,1.54 1.8,4.21 -0.09,0.78 -1.47,3.05 -1.67,3.27 -3.97,4.29 -17.88,4.68 -23.53,4.48 -6.1,-0.22 -11.89,-0.75 -18,-1.08 -8.45,-0.46 -13.15,-1.64 -14.76,2.49 7.49,9.27 40.61,-5.9 49.69,2.26 0.11,3.74 0.12,3.29 -2.34,4.81 -10.35,6.36 -26.32,0.58 -33.79,3.36 -2.61,0.98 -2.44,1.09 -1.94,4.08 6.69,2.95 18.13,-1.92 24.48,0.87 0.48,5.13 -2.33,5.38 -6.98,5.84 -4.57,0.45 -4.34,0.47 -5.78,3.38l-0.76 1.46c-2.63,-0.3 -1.03,0.32 -2.36,-0.84 -1.28,-1.12 -0.57,0.04 -1,-1.82 3.38,-4.96 9.84,-0.81 14.5,-5.28 -4.56,-5.77 -26.88,5.36 -25.4,-8.02zm16.3 22.07c3.16,-1.39 8.68,-5.27 11.74,-7.41 40.84,-28.46 27.35,-54.45 12.28,-56.08 -10.87,-1.17 -21.28,10.32 -23.27,16.31l-2.24 -2.54c-5.01,-7.02 -11.39,-14.54 -21.33,-13.83 -14.59,1.04 -34.4,29.45 22.82,63.55z"/>
   <path class="fil1" d="M132.9 76.55c1.04,-1.38 0.71,-1.2 2.88,-2.22 2.58,-1.21 1.9,-1.12 3.69,-0.05 -1.05,2.2 -4.56,4.02 -6.57,2.27zm18.6 0.45c-0.03,-0.02 -2.98,-0.7 -0.34,-5.29 1.04,-1.82 0,-0.71 1.85,-1.45 0.35,0.77 0.52,0.29 0.54,1.71 0.03,2.44 -0.8,3.89 -2.05,5.03zm-37.62 -4.98c1.76,-0.77 5.02,-0.34 6.28,3.02 -0.85,0.32 -0.97,0.96 -3.76,-0.34 -4.12,-1.93 -1.9,-1.74 -2.52,-2.68zm-9.93 2.85c-1.19,-2.02 0.1,-5.49 2.26,-6.53 1.4,2.05 0.14,5.65 -2.26,6.53zm59.62 -3.72c-1.03,-1.22 -0.81,0.51 -1.06,-2.83 -0.08,-0.95 0.07,-2.98 0.07,-4.06 2.78,0.48 2.47,-0.89 2.56,3.22 0.1,4.8 -1.51,3.51 -1.57,3.67zm-17.84 -6.94c0.04,5.83 0.74,5.01 -1.03,6.92 -1.61,-0.87 -1.57,0.13 -1.52,-3.65 0.06,-4.17 -0.31,-2.73 2.55,-3.27zm-50.84 -0.31c2.22,2.14 1.98,5.07 0.76,7.12 -1.57,-0.23 -1.93,1.15 -2.16,-2.76 -0.19,-3.38 -0.27,-2.82 1.4,-4.36zm27.61 6.81c0.28,-2.49 0.12,-2.29 1.59,-4.27 1.93,-2.59 0.87,-1.88 2.71,-1.37 0.62,2.31 -0.97,4.94 -4.3,5.64zm48.56 -7.64c2.97,0.74 4.72,1.97 5.51,4.42 -1.25,0.56 -5.69,0.73 -5.51,-4.42zm-39.49 4.81c-0.1,-2.47 2.81,-4.37 5.22,-4.46 0.82,2.85 1.18,1.27 -1.31,3.11 -1.56,1.15 -2.09,1.53 -3.91,1.35zm25.7 -2.15c-2.89,1.63 -6.01,-2.84 -5.49,-4.07 1.14,-2.67 4.97,2.72 5.49,4.07zm-57.79 -5.04c1.77,-0.92 5.66,-1.09 6.56,2.27 -1.74,0.9 -1.47,0.68 -3.63,0.07 -4.2,-1.2 -2.2,-1.49 -2.93,-2.34zm11.87 3.02c0.45,-2.79 -0.82,-0.98 2.33,-3.15 2.47,-1.71 1.08,-1.84 3.68,-0.61 -0.83,2.39 -3.95,4.52 -6.01,3.76zm-26 -0.75c1.32,-1.46 3.5,-3.46 6.11,-3.32 0.11,2.08 -0.27,2.14 -2.49,3.46 -2.14,1.27 -2.1,1.43 -3.62,-0.14zm77.91 -2.27c0,0 -0.69,-2.4 4.09,-2.34 3.83,0.06 1.4,0.05 2.67,0.83 -1.11,1.6 0.57,1.18 -3.09,1.93 -2.01,0.41 -2.34,0.47 -3.67,-0.42zm-26.12 -3.02c2.03,-1.61 4.68,-1.75 6.9,0 -1.08,1.65 0.13,1.36 -3.1,1.51 -4.62,0.21 -2.99,-0.88 -3.8,-1.51zm-13.78 -1.51c3.37,-1.61 5.77,1.64 6.1,3.79 -5.52,0.15 -6.1,-3.79 -6.1,-3.79zm-20.85 -4.53c2.21,-0.9 5.04,0.92 6.18,3.02 -0.43,0.26 -0.64,1.57 -3.81,-0.08 -3.98,-2.08 -1.92,-2.2 -2.37,-2.94zm55.02 5.59c-1.81,-1.16 -1.45,-0.67 -0.63,-3.14 1,-2.99 0.55,-2.72 2.9,-3.29 0.81,2.03 -0.58,5.18 -2.27,6.43zm-12.79 -6.34c1.76,-0.95 5.78,-1.23 6.57,2.26 -4.77,1.89 -6.57,-2.26 -6.57,-2.26zm-27.9 0c0.55,-1.77 -1.14,-1.3 2.25,-2.09 2.9,-0.68 2.88,-0.61 4.37,0.58 -1.12,2.23 -4.71,2.42 -6.62,1.51zm14.23 1.55c0.7,-3.33 2.57,-5.04 5.16,-5.11 0.33,3.35 -1.79,5.13 -5.16,5.11zm-51.56 17.17l2.47 -1.26c18.66,12.46 50.68,15.18 73.92,10.42 9.05,-1.85 15.32,-4.84 23.52,-7.45l2.44 2.29c-0.36,-6.1 3.61,-15.55 -14.94,-23.07 -9.77,-3.96 -21.81,-6.28 -33.52,-6.34 -12.28,-0.05 -38.56,2.64 -47.95,10.82 -4.2,3.67 -6.32,6.38 -5.94,14.59z"/>
   <path class="fil1" d="M77.99 91.01c-0.07,2.89 -8.48,17.18 15.4,24.8 21.66,6.92 78.86,6.66 88.6,-9.51 3.58,-5.93 0.58,-8.31 1.18,-11.95 0.37,-2.25 1.6,-1.27 0.11,-4.24 -1,5.34 -2.65,5.05 -9.39,7.28 -23.33,7.71 -48.92,9.2 -72.78,2.28l-18.45 -6.49c-1.16,-0.51 -2.03,-0.89 -2.61,-1.17l-2.06 -1z"/>
   <path class="fil2" d="M78.29 84.59c8.27,-0.54 39.31,22.52 90.91,6.63 3.85,-1.19 8.76,-3.99 12.54,-2.96 -1.44,-2.82 -0.54,-1.24 -0.97,-4.73 -0.28,-2.34 -0.61,-3.19 -0.94,-4.83 -8.07,2.21 -14.42,5.34 -23.54,7.05 -18.64,3.5 -36.09,3.25 -54.48,-1.84 -9.12,-2.53 -18.93,-7.23 -22.01,-7.98 0.26,2.68 -0.63,5.11 0.87,7.09l-2.38 1.57z"/>
   <path class="fil3" d="M77.99 91.01l2.06 1c0.58,0.28 1.45,0.66 2.61,1.17l18.45 6.49c23.86,6.92 49.45,5.43 72.78,-2.28 6.74,-2.23 8.39,-1.94 9.39,-7.28 -0.76,-2.1 1.04,-0.96 -1.54,-1.85 -3.78,-1.03 -8.69,1.77 -12.54,2.96 -51.6,15.89 -82.64,-7.17 -90.91,-6.63 -1.38,2.16 -3.71,3.85 -0.3,6.42z"/>
   <path class="fil3" d="M79.8 75.93c3.08,0.75 12.89,5.45 22.01,7.98 18.39,5.09 35.84,5.34 54.48,1.84 9.12,-1.71 15.47,-4.84 23.54,-7.05 2.1,-1.35 3.46,-1.34 2.03,-5.1l-2.44 -2.29c-8.2,2.61 -14.47,5.6 -23.52,7.45 -23.24,4.76 -55.26,2.04 -73.92,-10.42l-2.47 1.26c-5.18,2 -0.69,5.03 0.29,6.33z"/>
   <path class="fil0" d="M60.15 33.53c0.86,11.73 -20.99,2.84 -38.1,7.89 -1.48,13.38 20.84,2.25 25.4,8.02 -4.66,4.47 -11.12,0.32 -14.5,5.28 0.43,1.86 -0.28,0.7 1,1.82 1.33,1.16 -0.27,0.54 2.36,0.84l0.76 -1.46c1.44,-2.91 1.21,-2.93 5.78,-3.38 4.65,-0.46 7.46,-0.71 6.98,-5.84 -6.35,-2.79 -17.79,2.08 -24.48,-0.87 -0.5,-2.99 -0.67,-3.1 1.94,-4.08 7.47,-2.78 23.44,3 33.79,-3.36 2.46,-1.52 2.45,-1.07 2.34,-4.81 -9.08,-8.16 -42.2,7.01 -49.69,-2.26 1.61,-4.13 6.31,-2.95 14.76,-2.49 6.11,0.33 11.9,0.86 18,1.08 5.65,0.2 19.56,-0.19 23.53,-4.48 0.2,-0.22 1.58,-2.49 1.67,-3.27 0.32,-2.67 -0.06,-2.52 -1.8,-4.21 -1.44,2.53 2.83,6.84 -6.47,8.99 -5.41,1.26 -9.86,1.23 -15.41,1.25 -10.26,0.05 -21.94,-2.32 -31.5,-1.02 -9.37,1.27 -10.98,10.13 12.64,8.08 9.11,-0.79 22.72,-3.53 31,-1.72z"/>
   <path class="fil4" d="M31.14 100.06c-2.51,-1.47 -3.64,-3.31 -6.01,-5.49l1.71 8.15 -9.8 2.78c1.13,0.97 0.13,0.4 1.84,1.2 0.64,0.3 1.26,0.48 1.94,0.64 1.55,0.37 2.36,0.11 4.12,0.75l-1.27 6.65c3.59,-1.49 3.23,-3.65 7.47,-5.35 2.9,2.56 2.38,5.28 5.73,7.66l-0.83 -9.02 6.36 -2.2c0.14,-0.11 0.36,-0.31 0.51,-0.49l-6.75 -3.01c-0.17,-4.01 0.78,-4.86 0.51,-7.43 -0.02,-0.12 -0.1,-0.39 -0.11,-0.48 -0.02,-0.1 -0.06,-0.33 -0.14,-0.47 -2.02,2.36 -2.63,4.52 -5.28,6.11z"/>
   <path class="fil5" d="M93.49 68.26c0.23,3.91 0.59,2.53 2.16,2.76 1.22,-2.05 1.46,-4.98 -0.76,-7.12 -1.67,1.54 -1.59,0.98 -1.4,4.36z"/>
   <path class="fil6" d="M143.18 67.48c-0.05,3.78 -0.09,2.78 1.52,3.65 1.77,-1.91 1.07,-1.09 1.03,-6.92 -2.86,0.54 -2.49,-0.9 -2.55,3.27z"/>
   <path class="fil6" d="M163.57 71.15c0.06,-0.16 1.67,1.13 1.57,-3.67 -0.09,-4.11 0.22,-2.74 -2.56,-3.22 0,1.08 -0.15,3.11 -0.07,4.06 0.25,3.34 0.03,1.61 1.06,2.83z"/>
   <path class="fil6" d="M151.5 77c1.25,-1.14 2.08,-2.59 2.05,-5.03 -0.02,-1.42 -0.19,-0.94 -0.54,-1.71 -1.85,0.74 -0.81,-0.37 -1.85,1.45 -2.64,4.59 0.31,5.27 0.34,5.29z"/>
   <path class="fil6" d="M163.26 60.69c1.33,0.89 1.66,0.83 3.67,0.42 3.66,-0.75 1.98,-0.33 3.09,-1.93 -1.27,-0.78 1.16,-0.77 -2.67,-0.83 -4.78,-0.06 -4.09,2.34 -4.09,2.34z"/>
   <path class="fil6" d="M131.07 52.43c3.37,0.02 5.49,-1.76 5.16,-5.11 -2.59,0.07 -4.46,1.78 -5.16,5.11z"/>
   <path class="fil6" d="M129.46 59.95c-0.33,-2.15 -2.73,-5.4 -6.1,-3.79 0,0 0.58,3.94 6.1,3.79z"/>
   <path class="fil6" d="M151.78 61.66c-0.52,1.23 2.6,5.7 5.49,4.07 -0.52,-1.35 -4.35,-6.74 -5.49,-4.07z"/>
   <path class="fil6" d="M151.31 53.14c-0.79,-3.49 -4.81,-3.21 -6.57,-2.26 0,0 1.8,4.15 6.57,2.26z"/>
   <path class="fil6" d="M111.35 63.71c2.06,0.76 5.18,-1.37 6.01,-3.76 -2.6,-1.23 -1.21,-1.1 -3.68,0.61 -3.15,2.17 -1.88,0.36 -2.33,3.15z"/>
   <path class="fil6" d="M106.04 62.96c-0.9,-3.36 -4.79,-3.19 -6.56,-2.27 0.73,0.85 -1.27,1.14 2.93,2.34 2.16,0.61 1.89,0.83 3.63,-0.07z"/>
   <path class="fil6" d="M122.5 70.71c3.33,-0.7 4.92,-3.33 4.3,-5.64 -1.84,-0.51 -0.78,-1.22 -2.71,1.37 -1.47,1.98 -1.31,1.78 -1.59,4.27z"/>
   <path class="fil6" d="M176.57 67.49c-0.79,-2.45 -2.54,-3.68 -5.51,-4.42 -0.18,5.15 4.26,4.98 5.51,4.42z"/>
   <path class="fil6" d="M108.69 54.65c-1.14,-2.1 -3.97,-3.92 -6.18,-3.02 0.45,0.74 -1.61,0.86 2.37,2.94 3.17,1.65 3.38,0.34 3.81,0.08z"/>
   <path class="fil6" d="M144.04 57.67c-2.22,-1.75 -4.87,-1.61 -6.9,0 0.81,0.63 -0.82,1.72 3.8,1.51 3.23,-0.15 2.02,0.14 3.1,-1.51z"/>
   <path class="fil6" d="M131.57 67.88c1.82,0.18 2.35,-0.2 3.91,-1.35 2.49,-1.84 2.13,-0.26 1.31,-3.11 -2.41,0.09 -5.32,1.99 -5.22,4.46z"/>
   <path class="fil6" d="M120.16 75.04c-1.26,-3.36 -4.52,-3.79 -6.28,-3.02 0.62,0.94 -1.6,0.75 2.52,2.68 2.79,1.3 2.91,0.66 3.76,0.34z"/>
   <path class="fil6" d="M116.84 50.88c1.91,0.91 5.5,0.72 6.62,-1.51 -1.49,-1.19 -1.47,-1.26 -4.37,-0.58 -3.39,0.79 -1.7,0.32 -2.25,2.09z"/>
   <path class="fil6" d="M157.53 57.22c1.69,-1.25 3.08,-4.4 2.27,-6.43 -2.35,0.57 -1.9,0.3 -2.9,3.29 -0.82,2.47 -1.18,1.98 0.63,3.14z"/>
   <path class="fil6" d="M85.35 62.96c1.52,1.57 1.48,1.41 3.62,0.14 2.22,-1.32 2.6,-1.38 2.49,-3.46 -2.61,-0.14 -4.79,1.86 -6.11,3.32z"/>
   <path class="fil6" d="M132.9 76.55c2.01,1.75 5.52,-0.07 6.57,-2.27 -1.79,-1.07 -1.11,-1.16 -3.69,0.05 -2.17,1.02 -1.84,0.84 -2.88,2.22z"/>
   <path class="fil6" d="M103.95 74.87c2.4,-0.88 3.66,-4.48 2.26,-6.53 -2.16,1.04 -3.45,4.51 -2.26,6.53z"/>
  </g>
 </g>
</svg>
