<?xml version="1.0" encoding="UTF-8"?>
<!DOCTYPE svg PUBLIC "-//W3C//DTD SVG 1.1//EN" "http://www.w3.org/Graphics/SVG/1.1/DTD/svg11.dtd">
<!-- Creator: CorelDRAW 2020 (64-Bit) -->
<svg xmlns="http://www.w3.org/2000/svg" xml:space="preserve" width="176px" height="104px" version="1.1" style="shape-rendering:geometricPrecision; text-rendering:geometricPrecision; image-rendering:optimizeQuality; fill-rule:evenodd; clip-rule:evenodd"
viewBox="0 0 176 104"
 xmlns:xlink="http://www.w3.org/1999/xlink"
 xmlns:xodm="http://www.corel.com/coreldraw/odm/2003">
 <defs>
  <style type="text/css">
   <![CDATA[
    .fil2 {fill:#532D1A}
    .fil5 {fill:#562D1A}
    .fil1 {fill:#7E4439}
    .fil4 {fill:#C9C662}
    .fil0 {fill:#D4D26B}
    .fil3 {fill:#EDECB9}
    .fil6 {fill:#F5ECE4}
   ]]>
  </style>
 </defs>
 <g id="Слой_x0020_1">
  <metadata id="CorelCorpID_0Corel-Layer"/>
  <g id="_2726418127088">
   <path class="fil0" d="M2.92 53.08c13.09,2.59 42.59,23.2 89.22,5.99 5.21,-1.92 6.76,-4.29 11.38,-1.13 -0.2,-7.77 2.48,-15.42 -15.02,-22.38 -29.53,-11.74 -88.45,-6.26 -85.58,17.52z"/>
   <path class="fil1" d="M159.16 86.8c-0.94,3.82 -4.96,1.84 -7.76,-0.02 -6.49,-4.31 -12.61,-13.53 -19.43,-13.38 0.57,3.34 3.09,5.54 5.08,7.56 2.01,2.04 5.43,3.41 4.72,7.79 -4.02,1.14 -11.08,-4.06 -11.11,-7.95 3.01,1.38 4.79,6.29 8.8,6.37 0.13,-3.89 -6.35,-8.28 -7.97,-10.03 -1.85,-2 -1.83,-1.96 -0.83,-5.08 8.07,-3.38 18.43,16.95 28.5,14.74zm0 0c-0.63,-5.2 -12.36,-12.1 -16.45,-15.35 -3.26,-2.59 -6.03,-4.72 -9.06,-7.25 -0.97,-0.81 -3.18,-2.87 -3.78,-4.01 -0.43,-0.82 -0.77,-1.63 -0.67,-2.79 0.79,-8.9 13.54,2.98 16.28,5.82 2.32,2.39 3.84,3.03 6.71,5.69 3.36,3.11 3.3,4.34 8.59,3.95 0.26,-5.8 -11.81,-14.67 -16.78,-18.25 -3.48,-2.52 -18.35,-13.38 -14.26,-19.02 3.5,-4.82 12.35,6.17 15.4,8.55 6.88,5.36 10.68,11.98 16.06,10.51 3.02,-10.88 -24.97,-19.26 -21.1,-29.51 9,-3.52 14.93,11.71 22.21,13.2 -1.16,-8.81 -8.97,-8.05 -7.58,-15.02 4.91,-1.04 8.14,2.4 9.45,5.75 -4.04,-2.06 -3.38,-5.5 -7.66,-3.81 -0.39,3.74 8.86,7.01 7.04,14.7 -3.46,-0.1 -3.84,-0.79 -6.16,-2.63 -2.03,-1.6 -18.2,-18.36 -15.92,-8.24 0.6,2.66 9.79,9.28 11.81,10.81 4.56,3.45 11.08,9.62 9.55,15.88 -6.56,3.78 -10.75,-4.34 -19.96,-11.7 -2.65,-2.12 -7.29,-8.55 -10.83,-7.92 -1.63,2.33 -1.69,4.28 0.95,6.93 10.15,10.2 13.5,11.2 23.74,19.72 1.75,1.45 2.67,2.65 4.03,4.52 1.97,2.7 1.89,2.83 1.37,5.23l-0.6 1.26c-7.47,4.52 -21.62,-19 -29.8,-17.55 -1.96,5.07 7.82,10.58 13.9,15.32 5.18,4.04 15.73,10.76 13.52,15.21zm6.97 0.78c1.46,-5.01 0.26,-46.82 0.38,-55.88 0.18,-13.75 -3.33,-12.7 -15.91,-12.69 -11.01,0.01 -21.24,-2 -23.59,4.65 -1.53,4.33 -0.61,47.91 -0.64,56.17 -0.06,15.36 4.11,12.97 30.47,12.74 5.05,-0.05 8.04,-0.68 9.29,-4.99z"/>
   <path class="fil2" d="M166.13 87.58c-1.25,4.31 -4.24,4.94 -9.29,4.99 -26.36,0.23 -30.53,2.62 -30.47,-12.74 0.03,-8.26 -0.89,-51.84 0.64,-56.17 2.35,-6.65 12.58,-4.64 23.59,-4.65 12.58,-0.01 16.09,-1.06 15.91,12.69 -0.12,9.06 1.08,50.87 -0.38,55.88zm-42.89 -77.22c-8.67,3.13 -6.18,18.33 -6.18,31.44 0,12.67 0,25.35 0,38.02 0,16.19 -2.3,22.18 15.69,22.1 47.83,-0.22 43.12,5.36 43.12,-32.18 0,-12.68 0,-25.35 0,-38.03 0,-15.45 2.18,-22.13 -15.18,-22.04 -6.64,0.03 -33.36,-0.78 -37.45,0.69z"/>
   <path class="fil0" d="M0.12 79.7c-3.48,31.59 67.69,25.83 88.24,19.95 12.48,-3.57 18.7,-7.76 15.99,-21.31 -0.21,0.13 -0.47,0.28 -0.64,0.38 -20.74,11.83 -57.6,11.39 -79.36,5.7 -12.72,-3.33 -15.01,-5.98 -22.94,-8.67l-1.29 3.95z"/>
   <path class="fil3" d="M3.65 69.17c3.76,0.6 6.51,2.31 10.14,3.86 3.77,1.61 7.45,2.64 11.62,3.82 41.68,11.78 68.6,-4.19 77.19,-4.58 0.08,-2.74 0.53,-4.91 -0.97,-6.95l0.58 -1.44c0.09,-0.15 0.35,-0.49 0.45,-0.63 0.1,-0.14 0.36,-0.38 0.54,-0.57 -16.25,6.57 -31.55,10.7 -51.86,9.98 -20.26,-0.71 -32.82,-5.6 -48.59,-12.32l0.9 8.83z"/>
   <path class="fil4" d="M2.75 60.34c15.77,6.72 28.33,11.61 48.59,12.32 20.31,0.72 35.61,-3.41 51.86,-9.98 0.87,-2.05 1.28,-2.18 0.32,-4.74 -4.62,-3.16 -6.17,-0.79 -11.38,1.13 -46.63,17.21 -76.13,-3.4 -89.22,-5.99 -1.96,3.46 -4.4,4.16 -0.17,7.26z"/>
   <path class="fil5" d="M159.16 86.8c2.21,-4.45 -8.34,-11.17 -13.52,-15.21 -6.08,-4.74 -15.86,-10.25 -13.9,-15.32 8.18,-1.45 22.33,22.07 29.8,17.55l0.6 -1.26c0.52,-2.4 0.6,-2.53 -1.37,-5.23 -1.36,-1.87 -2.28,-3.07 -4.03,-4.52 -10.24,-8.52 -13.59,-9.52 -23.74,-19.72 -2.64,-2.65 -2.58,-4.6 -0.95,-6.93 3.54,-0.63 8.18,5.8 10.83,7.92 9.21,7.36 13.4,15.48 19.96,11.7 1.53,-6.26 -4.99,-12.43 -9.55,-15.88 -2.02,-1.53 -11.21,-8.15 -11.81,-10.81 -2.28,-10.12 13.89,6.64 15.92,8.24 2.32,1.84 2.7,2.53 6.16,2.63 1.82,-7.69 -7.43,-10.96 -7.04,-14.7 4.28,-1.69 3.62,1.75 7.66,3.81 -1.31,-3.35 -4.54,-6.79 -9.45,-5.75 -1.39,6.97 6.42,6.21 7.58,15.02 -7.28,-1.49 -13.21,-16.72 -22.21,-13.2 -3.87,10.25 24.12,18.63 21.1,29.51 -5.38,1.47 -9.18,-5.15 -16.06,-10.51 -3.05,-2.38 -11.9,-13.37 -15.4,-8.55 -4.09,5.64 10.78,16.5 14.26,19.02 4.97,3.58 17.04,12.45 16.78,18.25 -5.29,0.39 -5.23,-0.84 -8.59,-3.95 -2.87,-2.66 -4.39,-3.3 -6.71,-5.69 -2.74,-2.84 -15.49,-14.72 -16.28,-5.82 -0.1,1.16 0.24,1.97 0.67,2.79 0.6,1.14 2.81,3.2 3.78,4.01 3.03,2.53 5.8,4.66 9.06,7.25 4.09,3.25 15.82,10.15 16.45,15.35z"/>
   <path class="fil6" d="M86.6 18.15l3.03 -3.89c3.74,1.71 3.62,4.37 6.42,5.83l-2.5 -7.67 9.13 -1.46 -9.7 -2.04c0.1,-3.03 0.37,-2.4 1.32,-4.69 1.9,-4.53 0.54,-3.82 -0.27,-4.5 -0.37,2.34 -2,4.21 -4.22,6.26 -2.94,-1.57 -3.33,-4.44 -6.1,-5.9l1.76 9.08 -9.4 1.77c2.35,1.33 6.61,1.56 9.95,2.05l-2.38 8.27 2.96 -3.11z"/>
   <path class="fil5" d="M159.16 86.8c-10.07,2.21 -20.43,-18.12 -28.5,-14.74 -1,3.12 -1.02,3.08 0.83,5.08 1.62,1.75 8.1,6.14 7.97,10.03 -4.01,-0.08 -5.79,-4.99 -8.8,-6.37 0.03,3.89 7.09,9.09 11.11,7.95 0.71,-4.38 -2.71,-5.75 -4.72,-7.79 -1.99,-2.02 -4.51,-4.22 -5.08,-7.56 6.82,-0.15 12.94,9.07 19.43,13.38 2.8,1.86 6.82,3.84 7.76,0.02z"/>
  </g>
 </g>
</svg>
