<?xml version="1.0" encoding="UTF-8"?>
<!DOCTYPE svg PUBLIC "-//W3C//DTD SVG 1.1//EN" "http://www.w3.org/Graphics/SVG/1.1/DTD/svg11.dtd">
<!-- Creator: CorelDRAW 2020 (64-Bit) -->
<svg xmlns="http://www.w3.org/2000/svg" xml:space="preserve" width="125px" height="137px" version="1.1" style="shape-rendering:geometricPrecision; text-rendering:geometricPrecision; image-rendering:optimizeQuality; fill-rule:evenodd; clip-rule:evenodd"
viewBox="0 0 125 137"
 xmlns:xlink="http://www.w3.org/1999/xlink"
 xmlns:xodm="http://www.corel.com/coreldraw/odm/2003">
 <defs>
  <style type="text/css">
   <![CDATA[
    .fil1 {fill:#41210A}
    .fil5 {fill:#603714}
    .fil3 {fill:#E3B791}
    .fil0 {fill:#F06524}
    .fil6 {fill:#F8EBE2}
    .fil2 {fill:#FA9377}
    .fil4 {fill:#FDFDFD}
   ]]>
  </style>
 </defs>
 <g id="Слой_x0020_1">
  <metadata id="CorelCorpID_0Corel-Layer"/>
  <g id="_2726382710096">
   <path class="fil0" d="M67.72 85.09c-5.87,26.94 -45.85,20.88 -40.95,-5.74 1.9,-10.32 11.45,-18.46 23.69,-17.1 10.78,1.2 19.96,10.46 17.26,22.84zm26.48 -9.17l0.48 -27.46c4.54,-1.61 8.5,-4.07 14.39,-2.53 13.42,3.5 1.38,27.24 -14.87,29.99zm-93.32 -49.7c0,34.95 -8.42,77.25 16.32,96.58 11.15,8.71 30.21,11.52 46.8,7.89 18.01,-3.93 23.83,-12.22 28.13,-29.39 7.14,2.53 13.62,5.92 23.74,-0.07 13.43,-7.95 8.5,-17.66 3.13,-16.08 -2.58,1.5 -2.02,2.77 -4.97,4.38 -9.73,-0.91 -3.38,-12.23 -0.63,-16.88 3.05,-5.15 7.62,-10.28 9.64,-17.04 2.54,-8.47 -0.24,-15.23 -5.97,-18.28 -7.6,-4.04 -14.66,-2.44 -22.94,-1.03l-0.7 -12.31c-1.64,0.54 -0.5,0.07 -1.68,2.18 -11.2,20.03 -82.92,26.52 -89.9,-1.59l-0.97 1.64z"/>
   <path class="fil1" d="M10.75 27.4c1.92,4.15 8.27,7.66 14.46,9.21 6.82,1.71 14.27,1.95 21.46,1.58 9.67,-0.48 33.42,-4.76 35.67,-11.48 -3.97,-4.53 -7.39,-6.83 -14.84,-8.72 -11.41,-2.9 -30.73,-2.19 -42.17,0.9 -8.08,2.18 -10.07,3.26 -14.58,8.51z"/>
   <path class="fil2" d="M82.34 26.71c-2.25,6.72 -26,11 -35.67,11.48 -7.19,0.37 -14.64,0.13 -21.46,-1.58 -6.19,-1.55 -12.54,-5.06 -14.46,-9.21 -2.03,-1.45 -8.44,-11.45 7.78,-17.24 13.5,-4.8 41.75,-4.4 55.57,-0.1 6.04,1.88 11.74,5.39 11.19,11.57 -0.1,1.11 -0.28,1.81 -0.81,2.84 -1.07,2.06 -0.86,1.57 -2.14,2.24zm-81.46 -0.49l0.97 -1.64c6.98,28.11 78.7,21.62 89.9,1.59 1.18,-2.11 0.04,-1.64 1.68,-2.18 -0.65,-7.75 -0.59,-8.24 -5.19,-12.49 -2.55,-2.37 -7.08,-4.73 -11.06,-6.31 -16.25,-6.49 -45.29,-6.05 -61.74,0.12 -10.23,3.84 -14.07,7.62 -14.56,20.91z"/>
   <path class="fil3" d="M47.85 96.59c-2.41,-1.02 -0.71,0.1 -2.59,-1.84 -1.17,-1.2 -0.75,-0.9 -1.58,-2.11 -13.59,-20.11 -5.42,-24.84 -0.65,-21.11 2.86,2.23 3.44,7.33 4.1,11.66 3.26,-6.74 1.38,-14.5 11.16,-12.54 2.99,9.23 -7.46,20.18 -10.44,25.94zm19.87 -11.5c2.7,-12.38 -6.48,-21.64 -17.26,-22.84 -12.24,-1.36 -21.79,6.78 -23.69,17.1 -4.9,26.62 35.08,32.68 40.95,5.74z"/>
   <path class="fil0" d="M10.75 27.4c4.51,-5.25 6.5,-6.33 14.58,-8.51 11.44,-3.09 30.76,-3.8 42.17,-0.9 7.45,1.89 10.87,4.19 14.84,8.72 1.28,-0.67 1.07,-0.18 2.14,-2.24 0.53,-1.03 0.71,-1.73 0.81,-2.84 0.55,-6.18 -5.15,-9.69 -11.19,-11.57 -13.82,-4.3 -42.07,-4.7 -55.57,0.1 -16.22,5.79 -9.81,15.79 -7.78,17.24z"/>
   <path class="fil4" d="M94.2 75.92c16.25,-2.75 28.29,-26.49 14.87,-29.99 -5.89,-1.54 -9.85,0.92 -14.39,2.53l-0.48 27.46z"/>
   <path class="fil5" d="M47.85 96.59c2.98,-5.76 13.43,-16.71 10.44,-25.94 -9.78,-1.96 -7.9,5.8 -11.16,12.54 -0.66,-4.33 -1.24,-9.43 -4.1,-11.66 -4.77,-3.73 -12.94,1 0.65,21.11 0.83,1.21 0.41,0.91 1.58,2.11 1.88,1.94 0.18,0.82 2.59,1.84z"/>
   <path class="fil6" d="M107.44 128.08l-6.24 -0.72c1.03,0.9 1.51,1.04 2.84,1.73 1.25,0.66 1.98,1.15 3.21,1.93l-0.58 5.97c2.31,-1.51 2.06,-1.83 3.63,-3.61 3.81,1.52 0.92,2.26 5.33,4.12l-2.03 -6.4 5.33 -2 -2.73 -0.85c-1.24,-0.16 -2.39,-0.12 -3.63,-0.12 -0.21,-1.53 -0.37,-2.18 -0.82,-3.52 -0.57,-1.7 -0.64,-1.92 -1.45,-2.94l-2.86 6.41z"/>
  </g>
 </g>
</svg>
